G04 #@! TF.GenerationSoftware,KiCad,Pcbnew,5.1.6-c6e7f7d~87~ubuntu20.04.1*
G04 #@! TF.CreationDate,2020-11-03T14:00:41+02:00*
G04 #@! TF.ProjectId,temp_monitor,74656d70-5f6d-46f6-9e69-746f722e6b69,rev?*
G04 #@! TF.SameCoordinates,Original*
G04 #@! TF.FileFunction,Paste,Top*
G04 #@! TF.FilePolarity,Positive*
%FSLAX46Y46*%
G04 Gerber Fmt 4.6, Leading zero omitted, Abs format (unit mm)*
G04 Created by KiCad (PCBNEW 5.1.6-c6e7f7d~87~ubuntu20.04.1) date 2020-11-03 14:00:41*
%MOMM*%
%LPD*%
G01*
G04 APERTURE LIST*
%ADD10R,0.900000X2.000000*%
%ADD11R,2.000000X0.900000*%
%ADD12R,5.000000X5.000000*%
%ADD13R,0.800000X0.900000*%
%ADD14R,0.900000X0.800000*%
G04 APERTURE END LIST*
G36*
G01*
X111900001Y-85166000D02*
X110999999Y-85166000D01*
G75*
G02*
X110750000Y-84916001I0J249999D01*
G01*
X110750000Y-84265999D01*
G75*
G02*
X110999999Y-84016000I249999J0D01*
G01*
X111900001Y-84016000D01*
G75*
G02*
X112150000Y-84265999I0J-249999D01*
G01*
X112150000Y-84916001D01*
G75*
G02*
X111900001Y-85166000I-249999J0D01*
G01*
G37*
G36*
G01*
X111900001Y-83116000D02*
X110999999Y-83116000D01*
G75*
G02*
X110750000Y-82866001I0J249999D01*
G01*
X110750000Y-82215999D01*
G75*
G02*
X110999999Y-81966000I249999J0D01*
G01*
X111900001Y-81966000D01*
G75*
G02*
X112150000Y-82215999I0J-249999D01*
G01*
X112150000Y-82866001D01*
G75*
G02*
X111900001Y-83116000I-249999J0D01*
G01*
G37*
G36*
G01*
X78400001Y-85166000D02*
X77499999Y-85166000D01*
G75*
G02*
X77250000Y-84916001I0J249999D01*
G01*
X77250000Y-84265999D01*
G75*
G02*
X77499999Y-84016000I249999J0D01*
G01*
X78400001Y-84016000D01*
G75*
G02*
X78650000Y-84265999I0J-249999D01*
G01*
X78650000Y-84916001D01*
G75*
G02*
X78400001Y-85166000I-249999J0D01*
G01*
G37*
G36*
G01*
X78400001Y-83116000D02*
X77499999Y-83116000D01*
G75*
G02*
X77250000Y-82866001I0J249999D01*
G01*
X77250000Y-82215999D01*
G75*
G02*
X77499999Y-81966000I249999J0D01*
G01*
X78400001Y-81966000D01*
G75*
G02*
X78650000Y-82215999I0J-249999D01*
G01*
X78650000Y-82866001D01*
G75*
G02*
X78400001Y-83116000I-249999J0D01*
G01*
G37*
G36*
G01*
X108460000Y-92005999D02*
X108460000Y-92906001D01*
G75*
G02*
X108210001Y-93156000I-249999J0D01*
G01*
X107559999Y-93156000D01*
G75*
G02*
X107310000Y-92906001I0J249999D01*
G01*
X107310000Y-92005999D01*
G75*
G02*
X107559999Y-91756000I249999J0D01*
G01*
X108210001Y-91756000D01*
G75*
G02*
X108460000Y-92005999I0J-249999D01*
G01*
G37*
G36*
G01*
X110510000Y-92005999D02*
X110510000Y-92906001D01*
G75*
G02*
X110260001Y-93156000I-249999J0D01*
G01*
X109609999Y-93156000D01*
G75*
G02*
X109360000Y-92906001I0J249999D01*
G01*
X109360000Y-92005999D01*
G75*
G02*
X109609999Y-91756000I249999J0D01*
G01*
X110260001Y-91756000D01*
G75*
G02*
X110510000Y-92005999I0J-249999D01*
G01*
G37*
G36*
G01*
X74960000Y-92005999D02*
X74960000Y-92906001D01*
G75*
G02*
X74710001Y-93156000I-249999J0D01*
G01*
X74059999Y-93156000D01*
G75*
G02*
X73810000Y-92906001I0J249999D01*
G01*
X73810000Y-92005999D01*
G75*
G02*
X74059999Y-91756000I249999J0D01*
G01*
X74710001Y-91756000D01*
G75*
G02*
X74960000Y-92005999I0J-249999D01*
G01*
G37*
G36*
G01*
X77010000Y-92005999D02*
X77010000Y-92906001D01*
G75*
G02*
X76760001Y-93156000I-249999J0D01*
G01*
X76109999Y-93156000D01*
G75*
G02*
X75860000Y-92906001I0J249999D01*
G01*
X75860000Y-92005999D01*
G75*
G02*
X76109999Y-91756000I249999J0D01*
G01*
X76760001Y-91756000D01*
G75*
G02*
X77010000Y-92005999I0J-249999D01*
G01*
G37*
D10*
X98115000Y-52206000D03*
X99385000Y-52206000D03*
X100655000Y-52206000D03*
X101925000Y-52206000D03*
X103195000Y-52206000D03*
X104465000Y-52206000D03*
X105735000Y-52206000D03*
X107005000Y-52206000D03*
X108275000Y-52206000D03*
X109545000Y-52206000D03*
X110815000Y-52206000D03*
X112085000Y-52206000D03*
X113355000Y-52206000D03*
X114625000Y-52206000D03*
D11*
X115625000Y-54991000D03*
X115625000Y-56261000D03*
X115625000Y-57531000D03*
X115625000Y-58801000D03*
X115625000Y-60071000D03*
X115625000Y-61341000D03*
X115625000Y-62611000D03*
X115625000Y-63881000D03*
X115625000Y-65151000D03*
X115625000Y-66421000D03*
D10*
X114625000Y-69206000D03*
X113355000Y-69206000D03*
X112085000Y-69206000D03*
X110815000Y-69206000D03*
X109545000Y-69206000D03*
X108275000Y-69206000D03*
X107005000Y-69206000D03*
X105735000Y-69206000D03*
X104465000Y-69206000D03*
X103195000Y-69206000D03*
X101925000Y-69206000D03*
X100655000Y-69206000D03*
X99385000Y-69206000D03*
X98115000Y-69206000D03*
D12*
X105615000Y-61706000D03*
D10*
X64615000Y-52206000D03*
X65885000Y-52206000D03*
X67155000Y-52206000D03*
X68425000Y-52206000D03*
X69695000Y-52206000D03*
X70965000Y-52206000D03*
X72235000Y-52206000D03*
X73505000Y-52206000D03*
X74775000Y-52206000D03*
X76045000Y-52206000D03*
X77315000Y-52206000D03*
X78585000Y-52206000D03*
X79855000Y-52206000D03*
X81125000Y-52206000D03*
D11*
X82125000Y-54991000D03*
X82125000Y-56261000D03*
X82125000Y-57531000D03*
X82125000Y-58801000D03*
X82125000Y-60071000D03*
X82125000Y-61341000D03*
X82125000Y-62611000D03*
X82125000Y-63881000D03*
X82125000Y-65151000D03*
X82125000Y-66421000D03*
D10*
X81125000Y-69206000D03*
X79855000Y-69206000D03*
X78585000Y-69206000D03*
X77315000Y-69206000D03*
X76045000Y-69206000D03*
X74775000Y-69206000D03*
X73505000Y-69206000D03*
X72235000Y-69206000D03*
X70965000Y-69206000D03*
X69695000Y-69206000D03*
X68425000Y-69206000D03*
X67155000Y-69206000D03*
X65885000Y-69206000D03*
X64615000Y-69206000D03*
D12*
X72115000Y-61706000D03*
G36*
G01*
X109240000Y-75495999D02*
X109240000Y-76396001D01*
G75*
G02*
X108990001Y-76646000I-249999J0D01*
G01*
X108339999Y-76646000D01*
G75*
G02*
X108090000Y-76396001I0J249999D01*
G01*
X108090000Y-75495999D01*
G75*
G02*
X108339999Y-75246000I249999J0D01*
G01*
X108990001Y-75246000D01*
G75*
G02*
X109240000Y-75495999I0J-249999D01*
G01*
G37*
G36*
G01*
X107190000Y-75495999D02*
X107190000Y-76396001D01*
G75*
G02*
X106940001Y-76646000I-249999J0D01*
G01*
X106289999Y-76646000D01*
G75*
G02*
X106040000Y-76396001I0J249999D01*
G01*
X106040000Y-75495999D01*
G75*
G02*
X106289999Y-75246000I249999J0D01*
G01*
X106940001Y-75246000D01*
G75*
G02*
X107190000Y-75495999I0J-249999D01*
G01*
G37*
G36*
G01*
X75740000Y-75495999D02*
X75740000Y-76396001D01*
G75*
G02*
X75490001Y-76646000I-249999J0D01*
G01*
X74839999Y-76646000D01*
G75*
G02*
X74590000Y-76396001I0J249999D01*
G01*
X74590000Y-75495999D01*
G75*
G02*
X74839999Y-75246000I249999J0D01*
G01*
X75490001Y-75246000D01*
G75*
G02*
X75740000Y-75495999I0J-249999D01*
G01*
G37*
G36*
G01*
X73690000Y-75495999D02*
X73690000Y-76396001D01*
G75*
G02*
X73440001Y-76646000I-249999J0D01*
G01*
X72789999Y-76646000D01*
G75*
G02*
X72540000Y-76396001I0J249999D01*
G01*
X72540000Y-75495999D01*
G75*
G02*
X72789999Y-75246000I249999J0D01*
G01*
X73440001Y-75246000D01*
G75*
G02*
X73690000Y-75495999I0J-249999D01*
G01*
G37*
G36*
G01*
X103379999Y-85041000D02*
X104280001Y-85041000D01*
G75*
G02*
X104530000Y-85290999I0J-249999D01*
G01*
X104530000Y-85941001D01*
G75*
G02*
X104280001Y-86191000I-249999J0D01*
G01*
X103379999Y-86191000D01*
G75*
G02*
X103130000Y-85941001I0J249999D01*
G01*
X103130000Y-85290999D01*
G75*
G02*
X103379999Y-85041000I249999J0D01*
G01*
G37*
G36*
G01*
X103379999Y-82991000D02*
X104280001Y-82991000D01*
G75*
G02*
X104530000Y-83240999I0J-249999D01*
G01*
X104530000Y-83891001D01*
G75*
G02*
X104280001Y-84141000I-249999J0D01*
G01*
X103379999Y-84141000D01*
G75*
G02*
X103130000Y-83891001I0J249999D01*
G01*
X103130000Y-83240999D01*
G75*
G02*
X103379999Y-82991000I249999J0D01*
G01*
G37*
G36*
G01*
X69879999Y-85041000D02*
X70780001Y-85041000D01*
G75*
G02*
X71030000Y-85290999I0J-249999D01*
G01*
X71030000Y-85941001D01*
G75*
G02*
X70780001Y-86191000I-249999J0D01*
G01*
X69879999Y-86191000D01*
G75*
G02*
X69630000Y-85941001I0J249999D01*
G01*
X69630000Y-85290999D01*
G75*
G02*
X69879999Y-85041000I249999J0D01*
G01*
G37*
G36*
G01*
X69879999Y-82991000D02*
X70780001Y-82991000D01*
G75*
G02*
X71030000Y-83240999I0J-249999D01*
G01*
X71030000Y-83891001D01*
G75*
G02*
X70780001Y-84141000I-249999J0D01*
G01*
X69879999Y-84141000D01*
G75*
G02*
X69630000Y-83891001I0J249999D01*
G01*
X69630000Y-83240999D01*
G75*
G02*
X69879999Y-82991000I249999J0D01*
G01*
G37*
D13*
X108590000Y-78756000D03*
X106690000Y-78756000D03*
X107640000Y-80756000D03*
X75090000Y-78756000D03*
X73190000Y-78756000D03*
X74140000Y-80756000D03*
G36*
G01*
X99462500Y-94371000D02*
X99462500Y-95621000D01*
G75*
G02*
X99212500Y-95871000I-250000J0D01*
G01*
X98287500Y-95871000D01*
G75*
G02*
X98037500Y-95621000I0J250000D01*
G01*
X98037500Y-94371000D01*
G75*
G02*
X98287500Y-94121000I250000J0D01*
G01*
X99212500Y-94121000D01*
G75*
G02*
X99462500Y-94371000I0J-250000D01*
G01*
G37*
G36*
G01*
X96487500Y-94371000D02*
X96487500Y-95621000D01*
G75*
G02*
X96237500Y-95871000I-250000J0D01*
G01*
X95312500Y-95871000D01*
G75*
G02*
X95062500Y-95621000I0J250000D01*
G01*
X95062500Y-94371000D01*
G75*
G02*
X95312500Y-94121000I250000J0D01*
G01*
X96237500Y-94121000D01*
G75*
G02*
X96487500Y-94371000I0J-250000D01*
G01*
G37*
G36*
G01*
X65962500Y-94371000D02*
X65962500Y-95621000D01*
G75*
G02*
X65712500Y-95871000I-250000J0D01*
G01*
X64787500Y-95871000D01*
G75*
G02*
X64537500Y-95621000I0J250000D01*
G01*
X64537500Y-94371000D01*
G75*
G02*
X64787500Y-94121000I250000J0D01*
G01*
X65712500Y-94121000D01*
G75*
G02*
X65962500Y-94371000I0J-250000D01*
G01*
G37*
G36*
G01*
X62987500Y-94371000D02*
X62987500Y-95621000D01*
G75*
G02*
X62737500Y-95871000I-250000J0D01*
G01*
X61812500Y-95871000D01*
G75*
G02*
X61562500Y-95621000I0J250000D01*
G01*
X61562500Y-94371000D01*
G75*
G02*
X61812500Y-94121000I250000J0D01*
G01*
X62737500Y-94121000D01*
G75*
G02*
X62987500Y-94371000I0J-250000D01*
G01*
G37*
G36*
G01*
X115590000Y-92005999D02*
X115590000Y-92906001D01*
G75*
G02*
X115340001Y-93156000I-249999J0D01*
G01*
X114689999Y-93156000D01*
G75*
G02*
X114440000Y-92906001I0J249999D01*
G01*
X114440000Y-92005999D01*
G75*
G02*
X114689999Y-91756000I249999J0D01*
G01*
X115340001Y-91756000D01*
G75*
G02*
X115590000Y-92005999I0J-249999D01*
G01*
G37*
G36*
G01*
X113540000Y-92005999D02*
X113540000Y-92906001D01*
G75*
G02*
X113290001Y-93156000I-249999J0D01*
G01*
X112639999Y-93156000D01*
G75*
G02*
X112390000Y-92906001I0J249999D01*
G01*
X112390000Y-92005999D01*
G75*
G02*
X112639999Y-91756000I249999J0D01*
G01*
X113290001Y-91756000D01*
G75*
G02*
X113540000Y-92005999I0J-249999D01*
G01*
G37*
G36*
G01*
X82090000Y-92005999D02*
X82090000Y-92906001D01*
G75*
G02*
X81840001Y-93156000I-249999J0D01*
G01*
X81189999Y-93156000D01*
G75*
G02*
X80940000Y-92906001I0J249999D01*
G01*
X80940000Y-92005999D01*
G75*
G02*
X81189999Y-91756000I249999J0D01*
G01*
X81840001Y-91756000D01*
G75*
G02*
X82090000Y-92005999I0J-249999D01*
G01*
G37*
G36*
G01*
X80040000Y-92005999D02*
X80040000Y-92906001D01*
G75*
G02*
X79790001Y-93156000I-249999J0D01*
G01*
X79139999Y-93156000D01*
G75*
G02*
X78890000Y-92906001I0J249999D01*
G01*
X78890000Y-92005999D01*
G75*
G02*
X79139999Y-91756000I249999J0D01*
G01*
X79790001Y-91756000D01*
G75*
G02*
X80040000Y-92005999I0J-249999D01*
G01*
G37*
G36*
G01*
X99570000Y-72955999D02*
X99570000Y-73856001D01*
G75*
G02*
X99320001Y-74106000I-249999J0D01*
G01*
X98669999Y-74106000D01*
G75*
G02*
X98420000Y-73856001I0J249999D01*
G01*
X98420000Y-72955999D01*
G75*
G02*
X98669999Y-72706000I249999J0D01*
G01*
X99320001Y-72706000D01*
G75*
G02*
X99570000Y-72955999I0J-249999D01*
G01*
G37*
G36*
G01*
X101620000Y-72955999D02*
X101620000Y-73856001D01*
G75*
G02*
X101370001Y-74106000I-249999J0D01*
G01*
X100719999Y-74106000D01*
G75*
G02*
X100470000Y-73856001I0J249999D01*
G01*
X100470000Y-72955999D01*
G75*
G02*
X100719999Y-72706000I249999J0D01*
G01*
X101370001Y-72706000D01*
G75*
G02*
X101620000Y-72955999I0J-249999D01*
G01*
G37*
G36*
G01*
X66070000Y-72955999D02*
X66070000Y-73856001D01*
G75*
G02*
X65820001Y-74106000I-249999J0D01*
G01*
X65169999Y-74106000D01*
G75*
G02*
X64920000Y-73856001I0J249999D01*
G01*
X64920000Y-72955999D01*
G75*
G02*
X65169999Y-72706000I249999J0D01*
G01*
X65820001Y-72706000D01*
G75*
G02*
X66070000Y-72955999I0J-249999D01*
G01*
G37*
G36*
G01*
X68120000Y-72955999D02*
X68120000Y-73856001D01*
G75*
G02*
X67870001Y-74106000I-249999J0D01*
G01*
X67219999Y-74106000D01*
G75*
G02*
X66970000Y-73856001I0J249999D01*
G01*
X66970000Y-72955999D01*
G75*
G02*
X67219999Y-72706000I249999J0D01*
G01*
X67870001Y-72706000D01*
G75*
G02*
X68120000Y-72955999I0J-249999D01*
G01*
G37*
G36*
G01*
X95435000Y-81163000D02*
X95435000Y-82413000D01*
G75*
G02*
X95185000Y-82663000I-250000J0D01*
G01*
X94260000Y-82663000D01*
G75*
G02*
X94010000Y-82413000I0J250000D01*
G01*
X94010000Y-81163000D01*
G75*
G02*
X94260000Y-80913000I250000J0D01*
G01*
X95185000Y-80913000D01*
G75*
G02*
X95435000Y-81163000I0J-250000D01*
G01*
G37*
G36*
G01*
X98410000Y-81163000D02*
X98410000Y-82413000D01*
G75*
G02*
X98160000Y-82663000I-250000J0D01*
G01*
X97235000Y-82663000D01*
G75*
G02*
X96985000Y-82413000I0J250000D01*
G01*
X96985000Y-81163000D01*
G75*
G02*
X97235000Y-80913000I250000J0D01*
G01*
X98160000Y-80913000D01*
G75*
G02*
X98410000Y-81163000I0J-250000D01*
G01*
G37*
G36*
G01*
X61935000Y-81163000D02*
X61935000Y-82413000D01*
G75*
G02*
X61685000Y-82663000I-250000J0D01*
G01*
X60760000Y-82663000D01*
G75*
G02*
X60510000Y-82413000I0J250000D01*
G01*
X60510000Y-81163000D01*
G75*
G02*
X60760000Y-80913000I250000J0D01*
G01*
X61685000Y-80913000D01*
G75*
G02*
X61935000Y-81163000I0J-250000D01*
G01*
G37*
G36*
G01*
X64910000Y-81163000D02*
X64910000Y-82413000D01*
G75*
G02*
X64660000Y-82663000I-250000J0D01*
G01*
X63735000Y-82663000D01*
G75*
G02*
X63485000Y-82413000I0J250000D01*
G01*
X63485000Y-81163000D01*
G75*
G02*
X63735000Y-80913000I250000J0D01*
G01*
X64660000Y-80913000D01*
G75*
G02*
X64910000Y-81163000I0J-250000D01*
G01*
G37*
G36*
G01*
X103335000Y-77841000D02*
X103335000Y-76591000D01*
G75*
G02*
X103585000Y-76341000I250000J0D01*
G01*
X104510000Y-76341000D01*
G75*
G02*
X104760000Y-76591000I0J-250000D01*
G01*
X104760000Y-77841000D01*
G75*
G02*
X104510000Y-78091000I-250000J0D01*
G01*
X103585000Y-78091000D01*
G75*
G02*
X103335000Y-77841000I0J250000D01*
G01*
G37*
G36*
G01*
X100360000Y-77841000D02*
X100360000Y-76591000D01*
G75*
G02*
X100610000Y-76341000I250000J0D01*
G01*
X101535000Y-76341000D01*
G75*
G02*
X101785000Y-76591000I0J-250000D01*
G01*
X101785000Y-77841000D01*
G75*
G02*
X101535000Y-78091000I-250000J0D01*
G01*
X100610000Y-78091000D01*
G75*
G02*
X100360000Y-77841000I0J250000D01*
G01*
G37*
G36*
G01*
X69835000Y-77841000D02*
X69835000Y-76591000D01*
G75*
G02*
X70085000Y-76341000I250000J0D01*
G01*
X71010000Y-76341000D01*
G75*
G02*
X71260000Y-76591000I0J-250000D01*
G01*
X71260000Y-77841000D01*
G75*
G02*
X71010000Y-78091000I-250000J0D01*
G01*
X70085000Y-78091000D01*
G75*
G02*
X69835000Y-77841000I0J250000D01*
G01*
G37*
G36*
G01*
X66860000Y-77841000D02*
X66860000Y-76591000D01*
G75*
G02*
X67110000Y-76341000I250000J0D01*
G01*
X68035000Y-76341000D01*
G75*
G02*
X68285000Y-76591000I0J-250000D01*
G01*
X68285000Y-77841000D01*
G75*
G02*
X68035000Y-78091000I-250000J0D01*
G01*
X67110000Y-78091000D01*
G75*
G02*
X66860000Y-77841000I0J250000D01*
G01*
G37*
G36*
G01*
X98192500Y-76591000D02*
X98192500Y-77841000D01*
G75*
G02*
X97942500Y-78091000I-250000J0D01*
G01*
X97017500Y-78091000D01*
G75*
G02*
X96767500Y-77841000I0J250000D01*
G01*
X96767500Y-76591000D01*
G75*
G02*
X97017500Y-76341000I250000J0D01*
G01*
X97942500Y-76341000D01*
G75*
G02*
X98192500Y-76591000I0J-250000D01*
G01*
G37*
G36*
G01*
X95217500Y-76591000D02*
X95217500Y-77841000D01*
G75*
G02*
X94967500Y-78091000I-250000J0D01*
G01*
X94042500Y-78091000D01*
G75*
G02*
X93792500Y-77841000I0J250000D01*
G01*
X93792500Y-76591000D01*
G75*
G02*
X94042500Y-76341000I250000J0D01*
G01*
X94967500Y-76341000D01*
G75*
G02*
X95217500Y-76591000I0J-250000D01*
G01*
G37*
G36*
G01*
X64692500Y-76591000D02*
X64692500Y-77841000D01*
G75*
G02*
X64442500Y-78091000I-250000J0D01*
G01*
X63517500Y-78091000D01*
G75*
G02*
X63267500Y-77841000I0J250000D01*
G01*
X63267500Y-76591000D01*
G75*
G02*
X63517500Y-76341000I250000J0D01*
G01*
X64442500Y-76341000D01*
G75*
G02*
X64692500Y-76591000I0J-250000D01*
G01*
G37*
G36*
G01*
X61717500Y-76591000D02*
X61717500Y-77841000D01*
G75*
G02*
X61467500Y-78091000I-250000J0D01*
G01*
X60542500Y-78091000D01*
G75*
G02*
X60292500Y-77841000I0J250000D01*
G01*
X60292500Y-76591000D01*
G75*
G02*
X60542500Y-76341000I250000J0D01*
G01*
X61467500Y-76341000D01*
G75*
G02*
X61717500Y-76591000I0J-250000D01*
G01*
G37*
D14*
X108640000Y-84836000D03*
X106640000Y-85786000D03*
X106640000Y-83886000D03*
X75140000Y-84836000D03*
X73140000Y-85786000D03*
X73140000Y-83886000D03*
G36*
G01*
X29487500Y-94371000D02*
X29487500Y-95621000D01*
G75*
G02*
X29237500Y-95871000I-250000J0D01*
G01*
X28312500Y-95871000D01*
G75*
G02*
X28062500Y-95621000I0J250000D01*
G01*
X28062500Y-94371000D01*
G75*
G02*
X28312500Y-94121000I250000J0D01*
G01*
X29237500Y-94121000D01*
G75*
G02*
X29487500Y-94371000I0J-250000D01*
G01*
G37*
G36*
G01*
X32462500Y-94371000D02*
X32462500Y-95621000D01*
G75*
G02*
X32212500Y-95871000I-250000J0D01*
G01*
X31287500Y-95871000D01*
G75*
G02*
X31037500Y-95621000I0J250000D01*
G01*
X31037500Y-94371000D01*
G75*
G02*
X31287500Y-94121000I250000J0D01*
G01*
X32212500Y-94121000D01*
G75*
G02*
X32462500Y-94371000I0J-250000D01*
G01*
G37*
G36*
G01*
X31410000Y-81163000D02*
X31410000Y-82413000D01*
G75*
G02*
X31160000Y-82663000I-250000J0D01*
G01*
X30235000Y-82663000D01*
G75*
G02*
X29985000Y-82413000I0J250000D01*
G01*
X29985000Y-81163000D01*
G75*
G02*
X30235000Y-80913000I250000J0D01*
G01*
X31160000Y-80913000D01*
G75*
G02*
X31410000Y-81163000I0J-250000D01*
G01*
G37*
G36*
G01*
X28435000Y-81163000D02*
X28435000Y-82413000D01*
G75*
G02*
X28185000Y-82663000I-250000J0D01*
G01*
X27260000Y-82663000D01*
G75*
G02*
X27010000Y-82413000I0J250000D01*
G01*
X27010000Y-81163000D01*
G75*
G02*
X27260000Y-80913000I250000J0D01*
G01*
X28185000Y-80913000D01*
G75*
G02*
X28435000Y-81163000I0J-250000D01*
G01*
G37*
G36*
G01*
X28217500Y-76591000D02*
X28217500Y-77841000D01*
G75*
G02*
X27967500Y-78091000I-250000J0D01*
G01*
X27042500Y-78091000D01*
G75*
G02*
X26792500Y-77841000I0J250000D01*
G01*
X26792500Y-76591000D01*
G75*
G02*
X27042500Y-76341000I250000J0D01*
G01*
X27967500Y-76341000D01*
G75*
G02*
X28217500Y-76591000I0J-250000D01*
G01*
G37*
G36*
G01*
X31192500Y-76591000D02*
X31192500Y-77841000D01*
G75*
G02*
X30942500Y-78091000I-250000J0D01*
G01*
X30017500Y-78091000D01*
G75*
G02*
X29767500Y-77841000I0J250000D01*
G01*
X29767500Y-76591000D01*
G75*
G02*
X30017500Y-76341000I250000J0D01*
G01*
X30942500Y-76341000D01*
G75*
G02*
X31192500Y-76591000I0J-250000D01*
G01*
G37*
G36*
G01*
X33360000Y-77841000D02*
X33360000Y-76591000D01*
G75*
G02*
X33610000Y-76341000I250000J0D01*
G01*
X34535000Y-76341000D01*
G75*
G02*
X34785000Y-76591000I0J-250000D01*
G01*
X34785000Y-77841000D01*
G75*
G02*
X34535000Y-78091000I-250000J0D01*
G01*
X33610000Y-78091000D01*
G75*
G02*
X33360000Y-77841000I0J250000D01*
G01*
G37*
G36*
G01*
X36335000Y-77841000D02*
X36335000Y-76591000D01*
G75*
G02*
X36585000Y-76341000I250000J0D01*
G01*
X37510000Y-76341000D01*
G75*
G02*
X37760000Y-76591000I0J-250000D01*
G01*
X37760000Y-77841000D01*
G75*
G02*
X37510000Y-78091000I-250000J0D01*
G01*
X36585000Y-78091000D01*
G75*
G02*
X36335000Y-77841000I0J250000D01*
G01*
G37*
X39640000Y-83886000D03*
X39640000Y-85786000D03*
X41640000Y-84836000D03*
D13*
X40640000Y-80756000D03*
X39690000Y-78756000D03*
X41590000Y-78756000D03*
G36*
G01*
X36379999Y-82991000D02*
X37280001Y-82991000D01*
G75*
G02*
X37530000Y-83240999I0J-249999D01*
G01*
X37530000Y-83891001D01*
G75*
G02*
X37280001Y-84141000I-249999J0D01*
G01*
X36379999Y-84141000D01*
G75*
G02*
X36130000Y-83891001I0J249999D01*
G01*
X36130000Y-83240999D01*
G75*
G02*
X36379999Y-82991000I249999J0D01*
G01*
G37*
G36*
G01*
X36379999Y-85041000D02*
X37280001Y-85041000D01*
G75*
G02*
X37530000Y-85290999I0J-249999D01*
G01*
X37530000Y-85941001D01*
G75*
G02*
X37280001Y-86191000I-249999J0D01*
G01*
X36379999Y-86191000D01*
G75*
G02*
X36130000Y-85941001I0J249999D01*
G01*
X36130000Y-85290999D01*
G75*
G02*
X36379999Y-85041000I249999J0D01*
G01*
G37*
G36*
G01*
X40190000Y-75495999D02*
X40190000Y-76396001D01*
G75*
G02*
X39940001Y-76646000I-249999J0D01*
G01*
X39289999Y-76646000D01*
G75*
G02*
X39040000Y-76396001I0J249999D01*
G01*
X39040000Y-75495999D01*
G75*
G02*
X39289999Y-75246000I249999J0D01*
G01*
X39940001Y-75246000D01*
G75*
G02*
X40190000Y-75495999I0J-249999D01*
G01*
G37*
G36*
G01*
X42240000Y-75495999D02*
X42240000Y-76396001D01*
G75*
G02*
X41990001Y-76646000I-249999J0D01*
G01*
X41339999Y-76646000D01*
G75*
G02*
X41090000Y-76396001I0J249999D01*
G01*
X41090000Y-75495999D01*
G75*
G02*
X41339999Y-75246000I249999J0D01*
G01*
X41990001Y-75246000D01*
G75*
G02*
X42240000Y-75495999I0J-249999D01*
G01*
G37*
G36*
G01*
X46540000Y-92005999D02*
X46540000Y-92906001D01*
G75*
G02*
X46290001Y-93156000I-249999J0D01*
G01*
X45639999Y-93156000D01*
G75*
G02*
X45390000Y-92906001I0J249999D01*
G01*
X45390000Y-92005999D01*
G75*
G02*
X45639999Y-91756000I249999J0D01*
G01*
X46290001Y-91756000D01*
G75*
G02*
X46540000Y-92005999I0J-249999D01*
G01*
G37*
G36*
G01*
X48590000Y-92005999D02*
X48590000Y-92906001D01*
G75*
G02*
X48340001Y-93156000I-249999J0D01*
G01*
X47689999Y-93156000D01*
G75*
G02*
X47440000Y-92906001I0J249999D01*
G01*
X47440000Y-92005999D01*
G75*
G02*
X47689999Y-91756000I249999J0D01*
G01*
X48340001Y-91756000D01*
G75*
G02*
X48590000Y-92005999I0J-249999D01*
G01*
G37*
G36*
G01*
X34620000Y-72955999D02*
X34620000Y-73856001D01*
G75*
G02*
X34370001Y-74106000I-249999J0D01*
G01*
X33719999Y-74106000D01*
G75*
G02*
X33470000Y-73856001I0J249999D01*
G01*
X33470000Y-72955999D01*
G75*
G02*
X33719999Y-72706000I249999J0D01*
G01*
X34370001Y-72706000D01*
G75*
G02*
X34620000Y-72955999I0J-249999D01*
G01*
G37*
G36*
G01*
X32570000Y-72955999D02*
X32570000Y-73856001D01*
G75*
G02*
X32320001Y-74106000I-249999J0D01*
G01*
X31669999Y-74106000D01*
G75*
G02*
X31420000Y-73856001I0J249999D01*
G01*
X31420000Y-72955999D01*
G75*
G02*
X31669999Y-72706000I249999J0D01*
G01*
X32320001Y-72706000D01*
G75*
G02*
X32570000Y-72955999I0J-249999D01*
G01*
G37*
G36*
G01*
X44900001Y-83116000D02*
X43999999Y-83116000D01*
G75*
G02*
X43750000Y-82866001I0J249999D01*
G01*
X43750000Y-82215999D01*
G75*
G02*
X43999999Y-81966000I249999J0D01*
G01*
X44900001Y-81966000D01*
G75*
G02*
X45150000Y-82215999I0J-249999D01*
G01*
X45150000Y-82866001D01*
G75*
G02*
X44900001Y-83116000I-249999J0D01*
G01*
G37*
G36*
G01*
X44900001Y-85166000D02*
X43999999Y-85166000D01*
G75*
G02*
X43750000Y-84916001I0J249999D01*
G01*
X43750000Y-84265999D01*
G75*
G02*
X43999999Y-84016000I249999J0D01*
G01*
X44900001Y-84016000D01*
G75*
G02*
X45150000Y-84265999I0J-249999D01*
G01*
X45150000Y-84916001D01*
G75*
G02*
X44900001Y-85166000I-249999J0D01*
G01*
G37*
G36*
G01*
X43510000Y-92005999D02*
X43510000Y-92906001D01*
G75*
G02*
X43260001Y-93156000I-249999J0D01*
G01*
X42609999Y-93156000D01*
G75*
G02*
X42360000Y-92906001I0J249999D01*
G01*
X42360000Y-92005999D01*
G75*
G02*
X42609999Y-91756000I249999J0D01*
G01*
X43260001Y-91756000D01*
G75*
G02*
X43510000Y-92005999I0J-249999D01*
G01*
G37*
G36*
G01*
X41460000Y-92005999D02*
X41460000Y-92906001D01*
G75*
G02*
X41210001Y-93156000I-249999J0D01*
G01*
X40559999Y-93156000D01*
G75*
G02*
X40310000Y-92906001I0J249999D01*
G01*
X40310000Y-92005999D01*
G75*
G02*
X40559999Y-91756000I249999J0D01*
G01*
X41210001Y-91756000D01*
G75*
G02*
X41460000Y-92005999I0J-249999D01*
G01*
G37*
D12*
X38615000Y-61706000D03*
D10*
X31115000Y-69206000D03*
X32385000Y-69206000D03*
X33655000Y-69206000D03*
X34925000Y-69206000D03*
X36195000Y-69206000D03*
X37465000Y-69206000D03*
X38735000Y-69206000D03*
X40005000Y-69206000D03*
X41275000Y-69206000D03*
X42545000Y-69206000D03*
X43815000Y-69206000D03*
X45085000Y-69206000D03*
X46355000Y-69206000D03*
X47625000Y-69206000D03*
D11*
X48625000Y-66421000D03*
X48625000Y-65151000D03*
X48625000Y-63881000D03*
X48625000Y-62611000D03*
X48625000Y-61341000D03*
X48625000Y-60071000D03*
X48625000Y-58801000D03*
X48625000Y-57531000D03*
X48625000Y-56261000D03*
X48625000Y-54991000D03*
D10*
X47625000Y-52206000D03*
X46355000Y-52206000D03*
X45085000Y-52206000D03*
X43815000Y-52206000D03*
X42545000Y-52206000D03*
X41275000Y-52206000D03*
X40005000Y-52206000D03*
X38735000Y-52206000D03*
X37465000Y-52206000D03*
X36195000Y-52206000D03*
X34925000Y-52206000D03*
X33655000Y-52206000D03*
X32385000Y-52206000D03*
X31115000Y-52206000D03*
M02*
