G04 #@! TF.GenerationSoftware,KiCad,Pcbnew,5.1.6-c6e7f7d~87~ubuntu20.04.1*
G04 #@! TF.CreationDate,2020-11-03T14:00:41+02:00*
G04 #@! TF.ProjectId,temp_monitor,74656d70-5f6d-46f6-9e69-746f722e6b69,rev?*
G04 #@! TF.SameCoordinates,Original*
G04 #@! TF.FileFunction,Legend,Top*
G04 #@! TF.FilePolarity,Positive*
%FSLAX46Y46*%
G04 Gerber Fmt 4.6, Leading zero omitted, Abs format (unit mm)*
G04 Created by KiCad (PCBNEW 5.1.6-c6e7f7d~87~ubuntu20.04.1) date 2020-11-03 14:00:41*
%MOMM*%
%LPD*%
G01*
G04 APERTURE LIST*
%ADD10C,0.120000*%
%ADD11C,0.150000*%
G04 APERTURE END LIST*
D10*
X87044549Y-64620316D02*
G75*
G02*
X89949999Y-64600001I1455451J-379684D01*
G01*
X89955451Y-60379684D02*
G75*
G02*
X87050001Y-60399999I-1455451J379684D01*
G01*
X87044549Y-36620316D02*
G75*
G02*
X89949999Y-36600001I1455451J-379684D01*
G01*
X89955451Y-32379684D02*
G75*
G02*
X87050001Y-32399999I-1455451J379684D01*
G01*
X87044549Y-92120316D02*
G75*
G02*
X89949999Y-92100001I1455451J-379684D01*
G01*
X89955451Y-87879684D02*
G75*
G02*
X87050001Y-87899999I-1455451J379684D01*
G01*
X110990000Y-43326000D02*
X112490000Y-43326000D01*
X114990000Y-42076000D02*
X114990000Y-37576000D01*
X112490000Y-36326000D02*
X110990000Y-36326000D01*
X108490000Y-37576000D02*
X108490000Y-42076000D01*
X77490000Y-43326000D02*
X78990000Y-43326000D01*
X81490000Y-42076000D02*
X81490000Y-37576000D01*
X78990000Y-36326000D02*
X77490000Y-36326000D01*
X74990000Y-37576000D02*
X74990000Y-42076000D01*
X110740000Y-83827252D02*
X110740000Y-83304748D01*
X112160000Y-83827252D02*
X112160000Y-83304748D01*
X77240000Y-83827252D02*
X77240000Y-83304748D01*
X78660000Y-83827252D02*
X78660000Y-83304748D01*
X109171252Y-91746000D02*
X108648748Y-91746000D01*
X109171252Y-93166000D02*
X108648748Y-93166000D01*
X75671252Y-91746000D02*
X75148748Y-91746000D01*
X75671252Y-93166000D02*
X75148748Y-93166000D01*
X100440000Y-90186000D02*
X100440000Y-85686000D01*
X96440000Y-91436000D02*
X97940000Y-91436000D01*
X93940000Y-85686000D02*
X93940000Y-90186000D01*
X97940000Y-84436000D02*
X96440000Y-84436000D01*
X66940000Y-90186000D02*
X66940000Y-85686000D01*
X62940000Y-91436000D02*
X64440000Y-91436000D01*
X60440000Y-85686000D02*
X60440000Y-90186000D01*
X64440000Y-84436000D02*
X62940000Y-84436000D01*
X96925000Y-69826000D02*
X96925000Y-70206000D01*
X90505000Y-69826000D02*
X96925000Y-69826000D01*
X90505000Y-51586000D02*
X96925000Y-51586000D01*
X90505000Y-69826000D02*
X90505000Y-51586000D01*
X116250000Y-51586000D02*
X116250000Y-52586000D01*
X115470000Y-51586000D02*
X116250000Y-51586000D01*
X116250000Y-69826000D02*
X116250000Y-68826000D01*
X115470000Y-69826000D02*
X116250000Y-69826000D01*
X63425000Y-69826000D02*
X63425000Y-70206000D01*
X57005000Y-69826000D02*
X63425000Y-69826000D01*
X57005000Y-51586000D02*
X63425000Y-51586000D01*
X57005000Y-69826000D02*
X57005000Y-51586000D01*
X82750000Y-51586000D02*
X82750000Y-52586000D01*
X81970000Y-51586000D02*
X82750000Y-51586000D01*
X82750000Y-69826000D02*
X82750000Y-68826000D01*
X81970000Y-69826000D02*
X82750000Y-69826000D01*
X113410000Y-81766000D02*
X113410000Y-85366000D01*
X113421522Y-85404478D02*
G75*
G03*
X117860000Y-83566000I1838478J1838478D01*
G01*
X113421522Y-81727522D02*
G75*
G02*
X117860000Y-83566000I1838478J-1838478D01*
G01*
X79910000Y-81766000D02*
X79910000Y-85366000D01*
X79921522Y-85404478D02*
G75*
G03*
X84360000Y-83566000I1838478J1838478D01*
G01*
X79921522Y-81727522D02*
G75*
G02*
X84360000Y-83566000I1838478J-1838478D01*
G01*
X107901252Y-76656000D02*
X107378748Y-76656000D01*
X107901252Y-75236000D02*
X107378748Y-75236000D01*
X74401252Y-76656000D02*
X73878748Y-76656000D01*
X74401252Y-75236000D02*
X73878748Y-75236000D01*
X103120000Y-84329748D02*
X103120000Y-84852252D01*
X104540000Y-84329748D02*
X104540000Y-84852252D01*
X69620000Y-84329748D02*
X69620000Y-84852252D01*
X71040000Y-84329748D02*
X71040000Y-84852252D01*
X106060000Y-80516000D02*
X106990000Y-80516000D01*
X109220000Y-80516000D02*
X108290000Y-80516000D01*
X109220000Y-80516000D02*
X109220000Y-78356000D01*
X106060000Y-80516000D02*
X106060000Y-79056000D01*
X72560000Y-80516000D02*
X73490000Y-80516000D01*
X75720000Y-80516000D02*
X74790000Y-80516000D01*
X75720000Y-80516000D02*
X75720000Y-78356000D01*
X72560000Y-80516000D02*
X72560000Y-79056000D01*
X97864564Y-95906000D02*
X96660436Y-95906000D01*
X97864564Y-94086000D02*
X96660436Y-94086000D01*
X64364564Y-95906000D02*
X63160436Y-95906000D01*
X64364564Y-94086000D02*
X63160436Y-94086000D01*
X114251252Y-93166000D02*
X113728748Y-93166000D01*
X114251252Y-91746000D02*
X113728748Y-91746000D01*
X80751252Y-93166000D02*
X80228748Y-93166000D01*
X80751252Y-91746000D02*
X80228748Y-91746000D01*
X100281252Y-72696000D02*
X99758748Y-72696000D01*
X100281252Y-74116000D02*
X99758748Y-74116000D01*
X66781252Y-72696000D02*
X66258748Y-72696000D01*
X66781252Y-74116000D02*
X66258748Y-74116000D01*
X96812064Y-80878000D02*
X95607936Y-80878000D01*
X96812064Y-82698000D02*
X95607936Y-82698000D01*
X63312064Y-80878000D02*
X62107936Y-80878000D01*
X63312064Y-82698000D02*
X62107936Y-82698000D01*
X101957936Y-78126000D02*
X103162064Y-78126000D01*
X101957936Y-76306000D02*
X103162064Y-76306000D01*
X68457936Y-78126000D02*
X69662064Y-78126000D01*
X68457936Y-76306000D02*
X69662064Y-76306000D01*
X96594564Y-78126000D02*
X95390436Y-78126000D01*
X96594564Y-76306000D02*
X95390436Y-76306000D01*
X63094564Y-78126000D02*
X61890436Y-78126000D01*
X63094564Y-76306000D02*
X61890436Y-76306000D01*
X107330000Y-41170000D02*
X107330000Y-42500000D01*
X106000000Y-41170000D02*
X107330000Y-41170000D01*
X104730000Y-41170000D02*
X104730000Y-43830000D01*
X104730000Y-43830000D02*
X97050000Y-43830000D01*
X104730000Y-41170000D02*
X97050000Y-41170000D01*
X97050000Y-41170000D02*
X97050000Y-43830000D01*
X73830000Y-41170000D02*
X73830000Y-42500000D01*
X72500000Y-41170000D02*
X73830000Y-41170000D01*
X71230000Y-41170000D02*
X71230000Y-43830000D01*
X71230000Y-43830000D02*
X63550000Y-43830000D01*
X71230000Y-41170000D02*
X63550000Y-41170000D01*
X63550000Y-41170000D02*
X63550000Y-43830000D01*
X108400000Y-86416000D02*
X106940000Y-86416000D01*
X108400000Y-83256000D02*
X106240000Y-83256000D01*
X108400000Y-83256000D02*
X108400000Y-84186000D01*
X108400000Y-86416000D02*
X108400000Y-85486000D01*
X74900000Y-86416000D02*
X73440000Y-86416000D01*
X74900000Y-83256000D02*
X72740000Y-83256000D01*
X74900000Y-83256000D02*
X74900000Y-84186000D01*
X74900000Y-86416000D02*
X74900000Y-85486000D01*
X56455451Y-87879684D02*
G75*
G02*
X53550001Y-87899999I-1455451J379684D01*
G01*
X53544549Y-92120316D02*
G75*
G02*
X56449999Y-92100001I1455451J-379684D01*
G01*
X56455451Y-60379684D02*
G75*
G02*
X53550001Y-60399999I-1455451J379684D01*
G01*
X53544549Y-64620316D02*
G75*
G02*
X56449999Y-64600001I1455451J-379684D01*
G01*
X56455451Y-32379684D02*
G75*
G02*
X53550001Y-32399999I-1455451J379684D01*
G01*
X53544549Y-36620316D02*
G75*
G02*
X56449999Y-36600001I1455451J-379684D01*
G01*
X30864564Y-94086000D02*
X29660436Y-94086000D01*
X30864564Y-95906000D02*
X29660436Y-95906000D01*
X29812064Y-82698000D02*
X28607936Y-82698000D01*
X29812064Y-80878000D02*
X28607936Y-80878000D01*
X29594564Y-76306000D02*
X28390436Y-76306000D01*
X29594564Y-78126000D02*
X28390436Y-78126000D01*
X34957936Y-76306000D02*
X36162064Y-76306000D01*
X34957936Y-78126000D02*
X36162064Y-78126000D01*
X30050000Y-41170000D02*
X30050000Y-43830000D01*
X37730000Y-41170000D02*
X30050000Y-41170000D01*
X37730000Y-43830000D02*
X30050000Y-43830000D01*
X37730000Y-41170000D02*
X37730000Y-43830000D01*
X39000000Y-41170000D02*
X40330000Y-41170000D01*
X40330000Y-41170000D02*
X40330000Y-42500000D01*
X41400000Y-86416000D02*
X41400000Y-85486000D01*
X41400000Y-83256000D02*
X41400000Y-84186000D01*
X41400000Y-83256000D02*
X39240000Y-83256000D01*
X41400000Y-86416000D02*
X39940000Y-86416000D01*
X39060000Y-80516000D02*
X39060000Y-79056000D01*
X42220000Y-80516000D02*
X42220000Y-78356000D01*
X42220000Y-80516000D02*
X41290000Y-80516000D01*
X39060000Y-80516000D02*
X39990000Y-80516000D01*
X37540000Y-84329748D02*
X37540000Y-84852252D01*
X36120000Y-84329748D02*
X36120000Y-84852252D01*
X40901252Y-75236000D02*
X40378748Y-75236000D01*
X40901252Y-76656000D02*
X40378748Y-76656000D01*
X47251252Y-91746000D02*
X46728748Y-91746000D01*
X47251252Y-93166000D02*
X46728748Y-93166000D01*
X33281252Y-74116000D02*
X32758748Y-74116000D01*
X33281252Y-72696000D02*
X32758748Y-72696000D01*
X45160000Y-83827252D02*
X45160000Y-83304748D01*
X43740000Y-83827252D02*
X43740000Y-83304748D01*
X42171252Y-93166000D02*
X41648748Y-93166000D01*
X42171252Y-91746000D02*
X41648748Y-91746000D01*
X30940000Y-84436000D02*
X29440000Y-84436000D01*
X26940000Y-85686000D02*
X26940000Y-90186000D01*
X29440000Y-91436000D02*
X30940000Y-91436000D01*
X33440000Y-90186000D02*
X33440000Y-85686000D01*
X41490000Y-37576000D02*
X41490000Y-42076000D01*
X45490000Y-36326000D02*
X43990000Y-36326000D01*
X47990000Y-42076000D02*
X47990000Y-37576000D01*
X43990000Y-43326000D02*
X45490000Y-43326000D01*
X48470000Y-69826000D02*
X49250000Y-69826000D01*
X49250000Y-69826000D02*
X49250000Y-68826000D01*
X48470000Y-51586000D02*
X49250000Y-51586000D01*
X49250000Y-51586000D02*
X49250000Y-52586000D01*
X23505000Y-69826000D02*
X23505000Y-51586000D01*
X23505000Y-51586000D02*
X29925000Y-51586000D01*
X23505000Y-69826000D02*
X29925000Y-69826000D01*
X29925000Y-69826000D02*
X29925000Y-70206000D01*
X46410000Y-81766000D02*
X46410000Y-85366000D01*
X46421522Y-81727522D02*
G75*
G02*
X50860000Y-83566000I1838478J-1838478D01*
G01*
X46421522Y-85404478D02*
G75*
G03*
X50860000Y-83566000I1838478J1838478D01*
G01*
D11*
X116394761Y-41159333D02*
X116442380Y-41016476D01*
X116442380Y-40778380D01*
X116394761Y-40683142D01*
X116347142Y-40635523D01*
X116251904Y-40587904D01*
X116156666Y-40587904D01*
X116061428Y-40635523D01*
X116013809Y-40683142D01*
X115966190Y-40778380D01*
X115918571Y-40968857D01*
X115870952Y-41064095D01*
X115823333Y-41111714D01*
X115728095Y-41159333D01*
X115632857Y-41159333D01*
X115537619Y-41111714D01*
X115490000Y-41064095D01*
X115442380Y-40968857D01*
X115442380Y-40730761D01*
X115490000Y-40587904D01*
X115442380Y-40254571D02*
X116442380Y-40016476D01*
X115728095Y-39826000D01*
X116442380Y-39635523D01*
X115442380Y-39397428D01*
X115537619Y-39064095D02*
X115490000Y-39016476D01*
X115442380Y-38921238D01*
X115442380Y-38683142D01*
X115490000Y-38587904D01*
X115537619Y-38540285D01*
X115632857Y-38492666D01*
X115728095Y-38492666D01*
X115870952Y-38540285D01*
X116442380Y-39111714D01*
X116442380Y-38492666D01*
X82894761Y-41159333D02*
X82942380Y-41016476D01*
X82942380Y-40778380D01*
X82894761Y-40683142D01*
X82847142Y-40635523D01*
X82751904Y-40587904D01*
X82656666Y-40587904D01*
X82561428Y-40635523D01*
X82513809Y-40683142D01*
X82466190Y-40778380D01*
X82418571Y-40968857D01*
X82370952Y-41064095D01*
X82323333Y-41111714D01*
X82228095Y-41159333D01*
X82132857Y-41159333D01*
X82037619Y-41111714D01*
X81990000Y-41064095D01*
X81942380Y-40968857D01*
X81942380Y-40730761D01*
X81990000Y-40587904D01*
X81942380Y-40254571D02*
X82942380Y-40016476D01*
X82228095Y-39826000D01*
X82942380Y-39635523D01*
X81942380Y-39397428D01*
X82037619Y-39064095D02*
X81990000Y-39016476D01*
X81942380Y-38921238D01*
X81942380Y-38683142D01*
X81990000Y-38587904D01*
X82037619Y-38540285D01*
X82132857Y-38492666D01*
X82228095Y-38492666D01*
X82370952Y-38540285D01*
X82942380Y-39111714D01*
X82942380Y-38492666D01*
X110252380Y-83732666D02*
X109776190Y-84066000D01*
X110252380Y-84304095D02*
X109252380Y-84304095D01*
X109252380Y-83923142D01*
X109300000Y-83827904D01*
X109347619Y-83780285D01*
X109442857Y-83732666D01*
X109585714Y-83732666D01*
X109680952Y-83780285D01*
X109728571Y-83827904D01*
X109776190Y-83923142D01*
X109776190Y-84304095D01*
X109252380Y-82827904D02*
X109252380Y-83304095D01*
X109728571Y-83351714D01*
X109680952Y-83304095D01*
X109633333Y-83208857D01*
X109633333Y-82970761D01*
X109680952Y-82875523D01*
X109728571Y-82827904D01*
X109823809Y-82780285D01*
X110061904Y-82780285D01*
X110157142Y-82827904D01*
X110204761Y-82875523D01*
X110252380Y-82970761D01*
X110252380Y-83208857D01*
X110204761Y-83304095D01*
X110157142Y-83351714D01*
X76752380Y-83732666D02*
X76276190Y-84066000D01*
X76752380Y-84304095D02*
X75752380Y-84304095D01*
X75752380Y-83923142D01*
X75800000Y-83827904D01*
X75847619Y-83780285D01*
X75942857Y-83732666D01*
X76085714Y-83732666D01*
X76180952Y-83780285D01*
X76228571Y-83827904D01*
X76276190Y-83923142D01*
X76276190Y-84304095D01*
X75752380Y-82827904D02*
X75752380Y-83304095D01*
X76228571Y-83351714D01*
X76180952Y-83304095D01*
X76133333Y-83208857D01*
X76133333Y-82970761D01*
X76180952Y-82875523D01*
X76228571Y-82827904D01*
X76323809Y-82780285D01*
X76561904Y-82780285D01*
X76657142Y-82827904D01*
X76704761Y-82875523D01*
X76752380Y-82970761D01*
X76752380Y-83208857D01*
X76704761Y-83304095D01*
X76657142Y-83351714D01*
X108743333Y-94558380D02*
X108410000Y-94082190D01*
X108171904Y-94558380D02*
X108171904Y-93558380D01*
X108552857Y-93558380D01*
X108648095Y-93606000D01*
X108695714Y-93653619D01*
X108743333Y-93748857D01*
X108743333Y-93891714D01*
X108695714Y-93986952D01*
X108648095Y-94034571D01*
X108552857Y-94082190D01*
X108171904Y-94082190D01*
X109600476Y-93558380D02*
X109410000Y-93558380D01*
X109314761Y-93606000D01*
X109267142Y-93653619D01*
X109171904Y-93796476D01*
X109124285Y-93986952D01*
X109124285Y-94367904D01*
X109171904Y-94463142D01*
X109219523Y-94510761D01*
X109314761Y-94558380D01*
X109505238Y-94558380D01*
X109600476Y-94510761D01*
X109648095Y-94463142D01*
X109695714Y-94367904D01*
X109695714Y-94129809D01*
X109648095Y-94034571D01*
X109600476Y-93986952D01*
X109505238Y-93939333D01*
X109314761Y-93939333D01*
X109219523Y-93986952D01*
X109171904Y-94034571D01*
X109124285Y-94129809D01*
X75243333Y-94558380D02*
X74910000Y-94082190D01*
X74671904Y-94558380D02*
X74671904Y-93558380D01*
X75052857Y-93558380D01*
X75148095Y-93606000D01*
X75195714Y-93653619D01*
X75243333Y-93748857D01*
X75243333Y-93891714D01*
X75195714Y-93986952D01*
X75148095Y-94034571D01*
X75052857Y-94082190D01*
X74671904Y-94082190D01*
X76100476Y-93558380D02*
X75910000Y-93558380D01*
X75814761Y-93606000D01*
X75767142Y-93653619D01*
X75671904Y-93796476D01*
X75624285Y-93986952D01*
X75624285Y-94367904D01*
X75671904Y-94463142D01*
X75719523Y-94510761D01*
X75814761Y-94558380D01*
X76005238Y-94558380D01*
X76100476Y-94510761D01*
X76148095Y-94463142D01*
X76195714Y-94367904D01*
X76195714Y-94129809D01*
X76148095Y-94034571D01*
X76100476Y-93986952D01*
X76005238Y-93939333D01*
X75814761Y-93939333D01*
X75719523Y-93986952D01*
X75671904Y-94034571D01*
X75624285Y-94129809D01*
X93344761Y-89269333D02*
X93392380Y-89126476D01*
X93392380Y-88888380D01*
X93344761Y-88793142D01*
X93297142Y-88745523D01*
X93201904Y-88697904D01*
X93106666Y-88697904D01*
X93011428Y-88745523D01*
X92963809Y-88793142D01*
X92916190Y-88888380D01*
X92868571Y-89078857D01*
X92820952Y-89174095D01*
X92773333Y-89221714D01*
X92678095Y-89269333D01*
X92582857Y-89269333D01*
X92487619Y-89221714D01*
X92440000Y-89174095D01*
X92392380Y-89078857D01*
X92392380Y-88840761D01*
X92440000Y-88697904D01*
X92392380Y-88364571D02*
X93392380Y-88126476D01*
X92678095Y-87936000D01*
X93392380Y-87745523D01*
X92392380Y-87507428D01*
X93392380Y-86602666D02*
X93392380Y-87174095D01*
X93392380Y-86888380D02*
X92392380Y-86888380D01*
X92535238Y-86983619D01*
X92630476Y-87078857D01*
X92678095Y-87174095D01*
X59844761Y-89269333D02*
X59892380Y-89126476D01*
X59892380Y-88888380D01*
X59844761Y-88793142D01*
X59797142Y-88745523D01*
X59701904Y-88697904D01*
X59606666Y-88697904D01*
X59511428Y-88745523D01*
X59463809Y-88793142D01*
X59416190Y-88888380D01*
X59368571Y-89078857D01*
X59320952Y-89174095D01*
X59273333Y-89221714D01*
X59178095Y-89269333D01*
X59082857Y-89269333D01*
X58987619Y-89221714D01*
X58940000Y-89174095D01*
X58892380Y-89078857D01*
X58892380Y-88840761D01*
X58940000Y-88697904D01*
X58892380Y-88364571D02*
X59892380Y-88126476D01*
X59178095Y-87936000D01*
X59892380Y-87745523D01*
X58892380Y-87507428D01*
X59892380Y-86602666D02*
X59892380Y-87174095D01*
X59892380Y-86888380D02*
X58892380Y-86888380D01*
X59035238Y-86983619D01*
X59130476Y-87078857D01*
X59178095Y-87174095D01*
X114038095Y-70768380D02*
X114038095Y-71577904D01*
X114085714Y-71673142D01*
X114133333Y-71720761D01*
X114228571Y-71768380D01*
X114419047Y-71768380D01*
X114514285Y-71720761D01*
X114561904Y-71673142D01*
X114609523Y-71577904D01*
X114609523Y-70768380D01*
X115609523Y-71768380D02*
X115038095Y-71768380D01*
X115323809Y-71768380D02*
X115323809Y-70768380D01*
X115228571Y-70911238D01*
X115133333Y-71006476D01*
X115038095Y-71054095D01*
X80538095Y-70768380D02*
X80538095Y-71577904D01*
X80585714Y-71673142D01*
X80633333Y-71720761D01*
X80728571Y-71768380D01*
X80919047Y-71768380D01*
X81014285Y-71720761D01*
X81061904Y-71673142D01*
X81109523Y-71577904D01*
X81109523Y-70768380D01*
X82109523Y-71768380D02*
X81538095Y-71768380D01*
X81823809Y-71768380D02*
X81823809Y-70768380D01*
X81728571Y-70911238D01*
X81633333Y-71006476D01*
X81538095Y-71054095D01*
X118272380Y-84327904D02*
X119081904Y-84327904D01*
X119177142Y-84280285D01*
X119224761Y-84232666D01*
X119272380Y-84137428D01*
X119272380Y-83946952D01*
X119224761Y-83851714D01*
X119177142Y-83804095D01*
X119081904Y-83756476D01*
X118272380Y-83756476D01*
X118367619Y-83327904D02*
X118320000Y-83280285D01*
X118272380Y-83185047D01*
X118272380Y-82946952D01*
X118320000Y-82851714D01*
X118367619Y-82804095D01*
X118462857Y-82756476D01*
X118558095Y-82756476D01*
X118700952Y-82804095D01*
X119272380Y-83375523D01*
X119272380Y-82756476D01*
X84772380Y-84327904D02*
X85581904Y-84327904D01*
X85677142Y-84280285D01*
X85724761Y-84232666D01*
X85772380Y-84137428D01*
X85772380Y-83946952D01*
X85724761Y-83851714D01*
X85677142Y-83804095D01*
X85581904Y-83756476D01*
X84772380Y-83756476D01*
X84867619Y-83327904D02*
X84820000Y-83280285D01*
X84772380Y-83185047D01*
X84772380Y-82946952D01*
X84820000Y-82851714D01*
X84867619Y-82804095D01*
X84962857Y-82756476D01*
X85058095Y-82756476D01*
X85200952Y-82804095D01*
X85772380Y-83375523D01*
X85772380Y-82756476D01*
X107473333Y-78048380D02*
X107140000Y-77572190D01*
X106901904Y-78048380D02*
X106901904Y-77048380D01*
X107282857Y-77048380D01*
X107378095Y-77096000D01*
X107425714Y-77143619D01*
X107473333Y-77238857D01*
X107473333Y-77381714D01*
X107425714Y-77476952D01*
X107378095Y-77524571D01*
X107282857Y-77572190D01*
X106901904Y-77572190D01*
X107854285Y-77143619D02*
X107901904Y-77096000D01*
X107997142Y-77048380D01*
X108235238Y-77048380D01*
X108330476Y-77096000D01*
X108378095Y-77143619D01*
X108425714Y-77238857D01*
X108425714Y-77334095D01*
X108378095Y-77476952D01*
X107806666Y-78048380D01*
X108425714Y-78048380D01*
X73973333Y-78048380D02*
X73640000Y-77572190D01*
X73401904Y-78048380D02*
X73401904Y-77048380D01*
X73782857Y-77048380D01*
X73878095Y-77096000D01*
X73925714Y-77143619D01*
X73973333Y-77238857D01*
X73973333Y-77381714D01*
X73925714Y-77476952D01*
X73878095Y-77524571D01*
X73782857Y-77572190D01*
X73401904Y-77572190D01*
X74354285Y-77143619D02*
X74401904Y-77096000D01*
X74497142Y-77048380D01*
X74735238Y-77048380D01*
X74830476Y-77096000D01*
X74878095Y-77143619D01*
X74925714Y-77238857D01*
X74925714Y-77334095D01*
X74878095Y-77476952D01*
X74306666Y-78048380D01*
X74925714Y-78048380D01*
X105932380Y-84757666D02*
X105456190Y-85091000D01*
X105932380Y-85329095D02*
X104932380Y-85329095D01*
X104932380Y-84948142D01*
X104980000Y-84852904D01*
X105027619Y-84805285D01*
X105122857Y-84757666D01*
X105265714Y-84757666D01*
X105360952Y-84805285D01*
X105408571Y-84852904D01*
X105456190Y-84948142D01*
X105456190Y-85329095D01*
X105932380Y-83805285D02*
X105932380Y-84376714D01*
X105932380Y-84091000D02*
X104932380Y-84091000D01*
X105075238Y-84186238D01*
X105170476Y-84281476D01*
X105218095Y-84376714D01*
X72432380Y-84757666D02*
X71956190Y-85091000D01*
X72432380Y-85329095D02*
X71432380Y-85329095D01*
X71432380Y-84948142D01*
X71480000Y-84852904D01*
X71527619Y-84805285D01*
X71622857Y-84757666D01*
X71765714Y-84757666D01*
X71860952Y-84805285D01*
X71908571Y-84852904D01*
X71956190Y-84948142D01*
X71956190Y-85329095D01*
X72432380Y-83805285D02*
X72432380Y-84376714D01*
X72432380Y-84091000D02*
X71432380Y-84091000D01*
X71575238Y-84186238D01*
X71670476Y-84281476D01*
X71718095Y-84376714D01*
X110687619Y-79851238D02*
X110640000Y-79946476D01*
X110544761Y-80041714D01*
X110401904Y-80184571D01*
X110354285Y-80279809D01*
X110354285Y-80375047D01*
X110592380Y-80327428D02*
X110544761Y-80422666D01*
X110449523Y-80517904D01*
X110259047Y-80565523D01*
X109925714Y-80565523D01*
X109735238Y-80517904D01*
X109640000Y-80422666D01*
X109592380Y-80327428D01*
X109592380Y-80136952D01*
X109640000Y-80041714D01*
X109735238Y-79946476D01*
X109925714Y-79898857D01*
X110259047Y-79898857D01*
X110449523Y-79946476D01*
X110544761Y-80041714D01*
X110592380Y-80136952D01*
X110592380Y-80327428D01*
X109687619Y-79517904D02*
X109640000Y-79470285D01*
X109592380Y-79375047D01*
X109592380Y-79136952D01*
X109640000Y-79041714D01*
X109687619Y-78994095D01*
X109782857Y-78946476D01*
X109878095Y-78946476D01*
X110020952Y-78994095D01*
X110592380Y-79565523D01*
X110592380Y-78946476D01*
X77187619Y-79851238D02*
X77140000Y-79946476D01*
X77044761Y-80041714D01*
X76901904Y-80184571D01*
X76854285Y-80279809D01*
X76854285Y-80375047D01*
X77092380Y-80327428D02*
X77044761Y-80422666D01*
X76949523Y-80517904D01*
X76759047Y-80565523D01*
X76425714Y-80565523D01*
X76235238Y-80517904D01*
X76140000Y-80422666D01*
X76092380Y-80327428D01*
X76092380Y-80136952D01*
X76140000Y-80041714D01*
X76235238Y-79946476D01*
X76425714Y-79898857D01*
X76759047Y-79898857D01*
X76949523Y-79946476D01*
X77044761Y-80041714D01*
X77092380Y-80136952D01*
X77092380Y-80327428D01*
X76187619Y-79517904D02*
X76140000Y-79470285D01*
X76092380Y-79375047D01*
X76092380Y-79136952D01*
X76140000Y-79041714D01*
X76187619Y-78994095D01*
X76282857Y-78946476D01*
X76378095Y-78946476D01*
X76520952Y-78994095D01*
X77092380Y-79565523D01*
X77092380Y-78946476D01*
X97095833Y-97173142D02*
X97048214Y-97220761D01*
X96905357Y-97268380D01*
X96810119Y-97268380D01*
X96667261Y-97220761D01*
X96572023Y-97125523D01*
X96524404Y-97030285D01*
X96476785Y-96839809D01*
X96476785Y-96696952D01*
X96524404Y-96506476D01*
X96572023Y-96411238D01*
X96667261Y-96316000D01*
X96810119Y-96268380D01*
X96905357Y-96268380D01*
X97048214Y-96316000D01*
X97095833Y-96363619D01*
X98048214Y-97268380D02*
X97476785Y-97268380D01*
X97762500Y-97268380D02*
X97762500Y-96268380D01*
X97667261Y-96411238D01*
X97572023Y-96506476D01*
X97476785Y-96554095D01*
X63595833Y-97173142D02*
X63548214Y-97220761D01*
X63405357Y-97268380D01*
X63310119Y-97268380D01*
X63167261Y-97220761D01*
X63072023Y-97125523D01*
X63024404Y-97030285D01*
X62976785Y-96839809D01*
X62976785Y-96696952D01*
X63024404Y-96506476D01*
X63072023Y-96411238D01*
X63167261Y-96316000D01*
X63310119Y-96268380D01*
X63405357Y-96268380D01*
X63548214Y-96316000D01*
X63595833Y-96363619D01*
X64548214Y-97268380D02*
X63976785Y-97268380D01*
X64262500Y-97268380D02*
X64262500Y-96268380D01*
X64167261Y-96411238D01*
X64072023Y-96506476D01*
X63976785Y-96554095D01*
X113823333Y-94558380D02*
X113490000Y-94082190D01*
X113251904Y-94558380D02*
X113251904Y-93558380D01*
X113632857Y-93558380D01*
X113728095Y-93606000D01*
X113775714Y-93653619D01*
X113823333Y-93748857D01*
X113823333Y-93891714D01*
X113775714Y-93986952D01*
X113728095Y-94034571D01*
X113632857Y-94082190D01*
X113251904Y-94082190D01*
X114156666Y-93558380D02*
X114775714Y-93558380D01*
X114442380Y-93939333D01*
X114585238Y-93939333D01*
X114680476Y-93986952D01*
X114728095Y-94034571D01*
X114775714Y-94129809D01*
X114775714Y-94367904D01*
X114728095Y-94463142D01*
X114680476Y-94510761D01*
X114585238Y-94558380D01*
X114299523Y-94558380D01*
X114204285Y-94510761D01*
X114156666Y-94463142D01*
X80323333Y-94558380D02*
X79990000Y-94082190D01*
X79751904Y-94558380D02*
X79751904Y-93558380D01*
X80132857Y-93558380D01*
X80228095Y-93606000D01*
X80275714Y-93653619D01*
X80323333Y-93748857D01*
X80323333Y-93891714D01*
X80275714Y-93986952D01*
X80228095Y-94034571D01*
X80132857Y-94082190D01*
X79751904Y-94082190D01*
X80656666Y-93558380D02*
X81275714Y-93558380D01*
X80942380Y-93939333D01*
X81085238Y-93939333D01*
X81180476Y-93986952D01*
X81228095Y-94034571D01*
X81275714Y-94129809D01*
X81275714Y-94367904D01*
X81228095Y-94463142D01*
X81180476Y-94510761D01*
X81085238Y-94558380D01*
X80799523Y-94558380D01*
X80704285Y-94510761D01*
X80656666Y-94463142D01*
X99853333Y-75508380D02*
X99520000Y-75032190D01*
X99281904Y-75508380D02*
X99281904Y-74508380D01*
X99662857Y-74508380D01*
X99758095Y-74556000D01*
X99805714Y-74603619D01*
X99853333Y-74698857D01*
X99853333Y-74841714D01*
X99805714Y-74936952D01*
X99758095Y-74984571D01*
X99662857Y-75032190D01*
X99281904Y-75032190D01*
X100710476Y-74841714D02*
X100710476Y-75508380D01*
X100472380Y-74460761D02*
X100234285Y-75175047D01*
X100853333Y-75175047D01*
X66353333Y-75508380D02*
X66020000Y-75032190D01*
X65781904Y-75508380D02*
X65781904Y-74508380D01*
X66162857Y-74508380D01*
X66258095Y-74556000D01*
X66305714Y-74603619D01*
X66353333Y-74698857D01*
X66353333Y-74841714D01*
X66305714Y-74936952D01*
X66258095Y-74984571D01*
X66162857Y-75032190D01*
X65781904Y-75032190D01*
X67210476Y-74841714D02*
X67210476Y-75508380D01*
X66972380Y-74460761D02*
X66734285Y-75175047D01*
X67353333Y-75175047D01*
X96043333Y-83965142D02*
X95995714Y-84012761D01*
X95852857Y-84060380D01*
X95757619Y-84060380D01*
X95614761Y-84012761D01*
X95519523Y-83917523D01*
X95471904Y-83822285D01*
X95424285Y-83631809D01*
X95424285Y-83488952D01*
X95471904Y-83298476D01*
X95519523Y-83203238D01*
X95614761Y-83108000D01*
X95757619Y-83060380D01*
X95852857Y-83060380D01*
X95995714Y-83108000D01*
X96043333Y-83155619D01*
X96424285Y-83155619D02*
X96471904Y-83108000D01*
X96567142Y-83060380D01*
X96805238Y-83060380D01*
X96900476Y-83108000D01*
X96948095Y-83155619D01*
X96995714Y-83250857D01*
X96995714Y-83346095D01*
X96948095Y-83488952D01*
X96376666Y-84060380D01*
X96995714Y-84060380D01*
X62543333Y-83965142D02*
X62495714Y-84012761D01*
X62352857Y-84060380D01*
X62257619Y-84060380D01*
X62114761Y-84012761D01*
X62019523Y-83917523D01*
X61971904Y-83822285D01*
X61924285Y-83631809D01*
X61924285Y-83488952D01*
X61971904Y-83298476D01*
X62019523Y-83203238D01*
X62114761Y-83108000D01*
X62257619Y-83060380D01*
X62352857Y-83060380D01*
X62495714Y-83108000D01*
X62543333Y-83155619D01*
X62924285Y-83155619D02*
X62971904Y-83108000D01*
X63067142Y-83060380D01*
X63305238Y-83060380D01*
X63400476Y-83108000D01*
X63448095Y-83155619D01*
X63495714Y-83250857D01*
X63495714Y-83346095D01*
X63448095Y-83488952D01*
X62876666Y-84060380D01*
X63495714Y-84060380D01*
X102393333Y-75753142D02*
X102345714Y-75800761D01*
X102202857Y-75848380D01*
X102107619Y-75848380D01*
X101964761Y-75800761D01*
X101869523Y-75705523D01*
X101821904Y-75610285D01*
X101774285Y-75419809D01*
X101774285Y-75276952D01*
X101821904Y-75086476D01*
X101869523Y-74991238D01*
X101964761Y-74896000D01*
X102107619Y-74848380D01*
X102202857Y-74848380D01*
X102345714Y-74896000D01*
X102393333Y-74943619D01*
X103250476Y-75181714D02*
X103250476Y-75848380D01*
X103012380Y-74800761D02*
X102774285Y-75515047D01*
X103393333Y-75515047D01*
X68893333Y-75753142D02*
X68845714Y-75800761D01*
X68702857Y-75848380D01*
X68607619Y-75848380D01*
X68464761Y-75800761D01*
X68369523Y-75705523D01*
X68321904Y-75610285D01*
X68274285Y-75419809D01*
X68274285Y-75276952D01*
X68321904Y-75086476D01*
X68369523Y-74991238D01*
X68464761Y-74896000D01*
X68607619Y-74848380D01*
X68702857Y-74848380D01*
X68845714Y-74896000D01*
X68893333Y-74943619D01*
X69750476Y-75181714D02*
X69750476Y-75848380D01*
X69512380Y-74800761D02*
X69274285Y-75515047D01*
X69893333Y-75515047D01*
X95825833Y-79393142D02*
X95778214Y-79440761D01*
X95635357Y-79488380D01*
X95540119Y-79488380D01*
X95397261Y-79440761D01*
X95302023Y-79345523D01*
X95254404Y-79250285D01*
X95206785Y-79059809D01*
X95206785Y-78916952D01*
X95254404Y-78726476D01*
X95302023Y-78631238D01*
X95397261Y-78536000D01*
X95540119Y-78488380D01*
X95635357Y-78488380D01*
X95778214Y-78536000D01*
X95825833Y-78583619D01*
X96159166Y-78488380D02*
X96778214Y-78488380D01*
X96444880Y-78869333D01*
X96587738Y-78869333D01*
X96682976Y-78916952D01*
X96730595Y-78964571D01*
X96778214Y-79059809D01*
X96778214Y-79297904D01*
X96730595Y-79393142D01*
X96682976Y-79440761D01*
X96587738Y-79488380D01*
X96302023Y-79488380D01*
X96206785Y-79440761D01*
X96159166Y-79393142D01*
X62325833Y-79393142D02*
X62278214Y-79440761D01*
X62135357Y-79488380D01*
X62040119Y-79488380D01*
X61897261Y-79440761D01*
X61802023Y-79345523D01*
X61754404Y-79250285D01*
X61706785Y-79059809D01*
X61706785Y-78916952D01*
X61754404Y-78726476D01*
X61802023Y-78631238D01*
X61897261Y-78536000D01*
X62040119Y-78488380D01*
X62135357Y-78488380D01*
X62278214Y-78536000D01*
X62325833Y-78583619D01*
X62659166Y-78488380D02*
X63278214Y-78488380D01*
X62944880Y-78869333D01*
X63087738Y-78869333D01*
X63182976Y-78916952D01*
X63230595Y-78964571D01*
X63278214Y-79059809D01*
X63278214Y-79297904D01*
X63230595Y-79393142D01*
X63182976Y-79440761D01*
X63087738Y-79488380D01*
X62802023Y-79488380D01*
X62706785Y-79440761D01*
X62659166Y-79393142D01*
X107782380Y-42833333D02*
X108496666Y-42833333D01*
X108639523Y-42880952D01*
X108734761Y-42976190D01*
X108782380Y-43119047D01*
X108782380Y-43214285D01*
X108782380Y-41833333D02*
X108782380Y-42404761D01*
X108782380Y-42119047D02*
X107782380Y-42119047D01*
X107925238Y-42214285D01*
X108020476Y-42309523D01*
X108068095Y-42404761D01*
X74282380Y-42833333D02*
X74996666Y-42833333D01*
X75139523Y-42880952D01*
X75234761Y-42976190D01*
X75282380Y-43119047D01*
X75282380Y-43214285D01*
X75282380Y-41833333D02*
X75282380Y-42404761D01*
X75282380Y-42119047D02*
X74282380Y-42119047D01*
X74425238Y-42214285D01*
X74520476Y-42309523D01*
X74568095Y-42404761D01*
X107544761Y-82883619D02*
X107449523Y-82836000D01*
X107354285Y-82740761D01*
X107211428Y-82597904D01*
X107116190Y-82550285D01*
X107020952Y-82550285D01*
X107068571Y-82788380D02*
X106973333Y-82740761D01*
X106878095Y-82645523D01*
X106830476Y-82455047D01*
X106830476Y-82121714D01*
X106878095Y-81931238D01*
X106973333Y-81836000D01*
X107068571Y-81788380D01*
X107259047Y-81788380D01*
X107354285Y-81836000D01*
X107449523Y-81931238D01*
X107497142Y-82121714D01*
X107497142Y-82455047D01*
X107449523Y-82645523D01*
X107354285Y-82740761D01*
X107259047Y-82788380D01*
X107068571Y-82788380D01*
X108449523Y-82788380D02*
X107878095Y-82788380D01*
X108163809Y-82788380D02*
X108163809Y-81788380D01*
X108068571Y-81931238D01*
X107973333Y-82026476D01*
X107878095Y-82074095D01*
X74044761Y-82883619D02*
X73949523Y-82836000D01*
X73854285Y-82740761D01*
X73711428Y-82597904D01*
X73616190Y-82550285D01*
X73520952Y-82550285D01*
X73568571Y-82788380D02*
X73473333Y-82740761D01*
X73378095Y-82645523D01*
X73330476Y-82455047D01*
X73330476Y-82121714D01*
X73378095Y-81931238D01*
X73473333Y-81836000D01*
X73568571Y-81788380D01*
X73759047Y-81788380D01*
X73854285Y-81836000D01*
X73949523Y-81931238D01*
X73997142Y-82121714D01*
X73997142Y-82455047D01*
X73949523Y-82645523D01*
X73854285Y-82740761D01*
X73759047Y-82788380D01*
X73568571Y-82788380D01*
X74949523Y-82788380D02*
X74378095Y-82788380D01*
X74663809Y-82788380D02*
X74663809Y-81788380D01*
X74568571Y-81931238D01*
X74473333Y-82026476D01*
X74378095Y-82074095D01*
X30095833Y-97173142D02*
X30048214Y-97220761D01*
X29905357Y-97268380D01*
X29810119Y-97268380D01*
X29667261Y-97220761D01*
X29572023Y-97125523D01*
X29524404Y-97030285D01*
X29476785Y-96839809D01*
X29476785Y-96696952D01*
X29524404Y-96506476D01*
X29572023Y-96411238D01*
X29667261Y-96316000D01*
X29810119Y-96268380D01*
X29905357Y-96268380D01*
X30048214Y-96316000D01*
X30095833Y-96363619D01*
X31048214Y-97268380D02*
X30476785Y-97268380D01*
X30762500Y-97268380D02*
X30762500Y-96268380D01*
X30667261Y-96411238D01*
X30572023Y-96506476D01*
X30476785Y-96554095D01*
X29043333Y-83965142D02*
X28995714Y-84012761D01*
X28852857Y-84060380D01*
X28757619Y-84060380D01*
X28614761Y-84012761D01*
X28519523Y-83917523D01*
X28471904Y-83822285D01*
X28424285Y-83631809D01*
X28424285Y-83488952D01*
X28471904Y-83298476D01*
X28519523Y-83203238D01*
X28614761Y-83108000D01*
X28757619Y-83060380D01*
X28852857Y-83060380D01*
X28995714Y-83108000D01*
X29043333Y-83155619D01*
X29424285Y-83155619D02*
X29471904Y-83108000D01*
X29567142Y-83060380D01*
X29805238Y-83060380D01*
X29900476Y-83108000D01*
X29948095Y-83155619D01*
X29995714Y-83250857D01*
X29995714Y-83346095D01*
X29948095Y-83488952D01*
X29376666Y-84060380D01*
X29995714Y-84060380D01*
X28825833Y-79393142D02*
X28778214Y-79440761D01*
X28635357Y-79488380D01*
X28540119Y-79488380D01*
X28397261Y-79440761D01*
X28302023Y-79345523D01*
X28254404Y-79250285D01*
X28206785Y-79059809D01*
X28206785Y-78916952D01*
X28254404Y-78726476D01*
X28302023Y-78631238D01*
X28397261Y-78536000D01*
X28540119Y-78488380D01*
X28635357Y-78488380D01*
X28778214Y-78536000D01*
X28825833Y-78583619D01*
X29159166Y-78488380D02*
X29778214Y-78488380D01*
X29444880Y-78869333D01*
X29587738Y-78869333D01*
X29682976Y-78916952D01*
X29730595Y-78964571D01*
X29778214Y-79059809D01*
X29778214Y-79297904D01*
X29730595Y-79393142D01*
X29682976Y-79440761D01*
X29587738Y-79488380D01*
X29302023Y-79488380D01*
X29206785Y-79440761D01*
X29159166Y-79393142D01*
X35393333Y-75753142D02*
X35345714Y-75800761D01*
X35202857Y-75848380D01*
X35107619Y-75848380D01*
X34964761Y-75800761D01*
X34869523Y-75705523D01*
X34821904Y-75610285D01*
X34774285Y-75419809D01*
X34774285Y-75276952D01*
X34821904Y-75086476D01*
X34869523Y-74991238D01*
X34964761Y-74896000D01*
X35107619Y-74848380D01*
X35202857Y-74848380D01*
X35345714Y-74896000D01*
X35393333Y-74943619D01*
X36250476Y-75181714D02*
X36250476Y-75848380D01*
X36012380Y-74800761D02*
X35774285Y-75515047D01*
X36393333Y-75515047D01*
X40782380Y-42833333D02*
X41496666Y-42833333D01*
X41639523Y-42880952D01*
X41734761Y-42976190D01*
X41782380Y-43119047D01*
X41782380Y-43214285D01*
X41782380Y-41833333D02*
X41782380Y-42404761D01*
X41782380Y-42119047D02*
X40782380Y-42119047D01*
X40925238Y-42214285D01*
X41020476Y-42309523D01*
X41068095Y-42404761D01*
X40544761Y-82883619D02*
X40449523Y-82836000D01*
X40354285Y-82740761D01*
X40211428Y-82597904D01*
X40116190Y-82550285D01*
X40020952Y-82550285D01*
X40068571Y-82788380D02*
X39973333Y-82740761D01*
X39878095Y-82645523D01*
X39830476Y-82455047D01*
X39830476Y-82121714D01*
X39878095Y-81931238D01*
X39973333Y-81836000D01*
X40068571Y-81788380D01*
X40259047Y-81788380D01*
X40354285Y-81836000D01*
X40449523Y-81931238D01*
X40497142Y-82121714D01*
X40497142Y-82455047D01*
X40449523Y-82645523D01*
X40354285Y-82740761D01*
X40259047Y-82788380D01*
X40068571Y-82788380D01*
X41449523Y-82788380D02*
X40878095Y-82788380D01*
X41163809Y-82788380D02*
X41163809Y-81788380D01*
X41068571Y-81931238D01*
X40973333Y-82026476D01*
X40878095Y-82074095D01*
X43687619Y-79851238D02*
X43640000Y-79946476D01*
X43544761Y-80041714D01*
X43401904Y-80184571D01*
X43354285Y-80279809D01*
X43354285Y-80375047D01*
X43592380Y-80327428D02*
X43544761Y-80422666D01*
X43449523Y-80517904D01*
X43259047Y-80565523D01*
X42925714Y-80565523D01*
X42735238Y-80517904D01*
X42640000Y-80422666D01*
X42592380Y-80327428D01*
X42592380Y-80136952D01*
X42640000Y-80041714D01*
X42735238Y-79946476D01*
X42925714Y-79898857D01*
X43259047Y-79898857D01*
X43449523Y-79946476D01*
X43544761Y-80041714D01*
X43592380Y-80136952D01*
X43592380Y-80327428D01*
X42687619Y-79517904D02*
X42640000Y-79470285D01*
X42592380Y-79375047D01*
X42592380Y-79136952D01*
X42640000Y-79041714D01*
X42687619Y-78994095D01*
X42782857Y-78946476D01*
X42878095Y-78946476D01*
X43020952Y-78994095D01*
X43592380Y-79565523D01*
X43592380Y-78946476D01*
X38932380Y-84757666D02*
X38456190Y-85091000D01*
X38932380Y-85329095D02*
X37932380Y-85329095D01*
X37932380Y-84948142D01*
X37980000Y-84852904D01*
X38027619Y-84805285D01*
X38122857Y-84757666D01*
X38265714Y-84757666D01*
X38360952Y-84805285D01*
X38408571Y-84852904D01*
X38456190Y-84948142D01*
X38456190Y-85329095D01*
X38932380Y-83805285D02*
X38932380Y-84376714D01*
X38932380Y-84091000D02*
X37932380Y-84091000D01*
X38075238Y-84186238D01*
X38170476Y-84281476D01*
X38218095Y-84376714D01*
X40473333Y-78048380D02*
X40140000Y-77572190D01*
X39901904Y-78048380D02*
X39901904Y-77048380D01*
X40282857Y-77048380D01*
X40378095Y-77096000D01*
X40425714Y-77143619D01*
X40473333Y-77238857D01*
X40473333Y-77381714D01*
X40425714Y-77476952D01*
X40378095Y-77524571D01*
X40282857Y-77572190D01*
X39901904Y-77572190D01*
X40854285Y-77143619D02*
X40901904Y-77096000D01*
X40997142Y-77048380D01*
X41235238Y-77048380D01*
X41330476Y-77096000D01*
X41378095Y-77143619D01*
X41425714Y-77238857D01*
X41425714Y-77334095D01*
X41378095Y-77476952D01*
X40806666Y-78048380D01*
X41425714Y-78048380D01*
X46823333Y-94558380D02*
X46490000Y-94082190D01*
X46251904Y-94558380D02*
X46251904Y-93558380D01*
X46632857Y-93558380D01*
X46728095Y-93606000D01*
X46775714Y-93653619D01*
X46823333Y-93748857D01*
X46823333Y-93891714D01*
X46775714Y-93986952D01*
X46728095Y-94034571D01*
X46632857Y-94082190D01*
X46251904Y-94082190D01*
X47156666Y-93558380D02*
X47775714Y-93558380D01*
X47442380Y-93939333D01*
X47585238Y-93939333D01*
X47680476Y-93986952D01*
X47728095Y-94034571D01*
X47775714Y-94129809D01*
X47775714Y-94367904D01*
X47728095Y-94463142D01*
X47680476Y-94510761D01*
X47585238Y-94558380D01*
X47299523Y-94558380D01*
X47204285Y-94510761D01*
X47156666Y-94463142D01*
X32853333Y-75508380D02*
X32520000Y-75032190D01*
X32281904Y-75508380D02*
X32281904Y-74508380D01*
X32662857Y-74508380D01*
X32758095Y-74556000D01*
X32805714Y-74603619D01*
X32853333Y-74698857D01*
X32853333Y-74841714D01*
X32805714Y-74936952D01*
X32758095Y-74984571D01*
X32662857Y-75032190D01*
X32281904Y-75032190D01*
X33710476Y-74841714D02*
X33710476Y-75508380D01*
X33472380Y-74460761D02*
X33234285Y-75175047D01*
X33853333Y-75175047D01*
X43252380Y-83732666D02*
X42776190Y-84066000D01*
X43252380Y-84304095D02*
X42252380Y-84304095D01*
X42252380Y-83923142D01*
X42300000Y-83827904D01*
X42347619Y-83780285D01*
X42442857Y-83732666D01*
X42585714Y-83732666D01*
X42680952Y-83780285D01*
X42728571Y-83827904D01*
X42776190Y-83923142D01*
X42776190Y-84304095D01*
X42252380Y-82827904D02*
X42252380Y-83304095D01*
X42728571Y-83351714D01*
X42680952Y-83304095D01*
X42633333Y-83208857D01*
X42633333Y-82970761D01*
X42680952Y-82875523D01*
X42728571Y-82827904D01*
X42823809Y-82780285D01*
X43061904Y-82780285D01*
X43157142Y-82827904D01*
X43204761Y-82875523D01*
X43252380Y-82970761D01*
X43252380Y-83208857D01*
X43204761Y-83304095D01*
X43157142Y-83351714D01*
X41743333Y-94558380D02*
X41410000Y-94082190D01*
X41171904Y-94558380D02*
X41171904Y-93558380D01*
X41552857Y-93558380D01*
X41648095Y-93606000D01*
X41695714Y-93653619D01*
X41743333Y-93748857D01*
X41743333Y-93891714D01*
X41695714Y-93986952D01*
X41648095Y-94034571D01*
X41552857Y-94082190D01*
X41171904Y-94082190D01*
X42600476Y-93558380D02*
X42410000Y-93558380D01*
X42314761Y-93606000D01*
X42267142Y-93653619D01*
X42171904Y-93796476D01*
X42124285Y-93986952D01*
X42124285Y-94367904D01*
X42171904Y-94463142D01*
X42219523Y-94510761D01*
X42314761Y-94558380D01*
X42505238Y-94558380D01*
X42600476Y-94510761D01*
X42648095Y-94463142D01*
X42695714Y-94367904D01*
X42695714Y-94129809D01*
X42648095Y-94034571D01*
X42600476Y-93986952D01*
X42505238Y-93939333D01*
X42314761Y-93939333D01*
X42219523Y-93986952D01*
X42171904Y-94034571D01*
X42124285Y-94129809D01*
X26344761Y-89269333D02*
X26392380Y-89126476D01*
X26392380Y-88888380D01*
X26344761Y-88793142D01*
X26297142Y-88745523D01*
X26201904Y-88697904D01*
X26106666Y-88697904D01*
X26011428Y-88745523D01*
X25963809Y-88793142D01*
X25916190Y-88888380D01*
X25868571Y-89078857D01*
X25820952Y-89174095D01*
X25773333Y-89221714D01*
X25678095Y-89269333D01*
X25582857Y-89269333D01*
X25487619Y-89221714D01*
X25440000Y-89174095D01*
X25392380Y-89078857D01*
X25392380Y-88840761D01*
X25440000Y-88697904D01*
X25392380Y-88364571D02*
X26392380Y-88126476D01*
X25678095Y-87936000D01*
X26392380Y-87745523D01*
X25392380Y-87507428D01*
X26392380Y-86602666D02*
X26392380Y-87174095D01*
X26392380Y-86888380D02*
X25392380Y-86888380D01*
X25535238Y-86983619D01*
X25630476Y-87078857D01*
X25678095Y-87174095D01*
X49394761Y-41159333D02*
X49442380Y-41016476D01*
X49442380Y-40778380D01*
X49394761Y-40683142D01*
X49347142Y-40635523D01*
X49251904Y-40587904D01*
X49156666Y-40587904D01*
X49061428Y-40635523D01*
X49013809Y-40683142D01*
X48966190Y-40778380D01*
X48918571Y-40968857D01*
X48870952Y-41064095D01*
X48823333Y-41111714D01*
X48728095Y-41159333D01*
X48632857Y-41159333D01*
X48537619Y-41111714D01*
X48490000Y-41064095D01*
X48442380Y-40968857D01*
X48442380Y-40730761D01*
X48490000Y-40587904D01*
X48442380Y-40254571D02*
X49442380Y-40016476D01*
X48728095Y-39826000D01*
X49442380Y-39635523D01*
X48442380Y-39397428D01*
X48537619Y-39064095D02*
X48490000Y-39016476D01*
X48442380Y-38921238D01*
X48442380Y-38683142D01*
X48490000Y-38587904D01*
X48537619Y-38540285D01*
X48632857Y-38492666D01*
X48728095Y-38492666D01*
X48870952Y-38540285D01*
X49442380Y-39111714D01*
X49442380Y-38492666D01*
X47038095Y-70768380D02*
X47038095Y-71577904D01*
X47085714Y-71673142D01*
X47133333Y-71720761D01*
X47228571Y-71768380D01*
X47419047Y-71768380D01*
X47514285Y-71720761D01*
X47561904Y-71673142D01*
X47609523Y-71577904D01*
X47609523Y-70768380D01*
X48609523Y-71768380D02*
X48038095Y-71768380D01*
X48323809Y-71768380D02*
X48323809Y-70768380D01*
X48228571Y-70911238D01*
X48133333Y-71006476D01*
X48038095Y-71054095D01*
X51272380Y-84327904D02*
X52081904Y-84327904D01*
X52177142Y-84280285D01*
X52224761Y-84232666D01*
X52272380Y-84137428D01*
X52272380Y-83946952D01*
X52224761Y-83851714D01*
X52177142Y-83804095D01*
X52081904Y-83756476D01*
X51272380Y-83756476D01*
X51367619Y-83327904D02*
X51320000Y-83280285D01*
X51272380Y-83185047D01*
X51272380Y-82946952D01*
X51320000Y-82851714D01*
X51367619Y-82804095D01*
X51462857Y-82756476D01*
X51558095Y-82756476D01*
X51700952Y-82804095D01*
X52272380Y-83375523D01*
X52272380Y-82756476D01*
M02*
