M48
; DRILL file {KiCad 5.1.6-c6e7f7d~87~ubuntu20.04.1} date Tue Nov  3 14:00:44 2020
; FORMAT={-:-/ absolute / inch / decimal}
; #@! TF.CreationDate,2020-11-03T14:00:44+02:00
; #@! TF.GenerationSoftware,Kicad,Pcbnew,5.1.6-c6e7f7d~87~ubuntu20.04.1
; #@! TF.FileFunction,NonPlated,1,2,NPTH
FMAT,2
INCH
T1C0.0197
T2C0.1260
%
G90
G05
T1
X3.4331Y-3.5138
X3.4331Y-3.5433
X3.4331Y-3.5728
X3.5354Y-3.5138
X3.5354Y-3.5433
X3.5354Y-3.5728
X2.1142Y-3.5138
X2.1142Y-3.5433
X2.1142Y-3.5728
X2.2165Y-3.5138
X2.2165Y-3.5433
X2.2165Y-3.5728
X2.1142Y-2.4311
X2.1142Y-2.4606
X2.1142Y-2.4902
X2.2165Y-2.4311
X2.2165Y-2.4606
X2.2165Y-2.4902
X3.4331Y-2.4311
X3.4331Y-2.4606
X3.4331Y-2.4902
X3.5354Y-2.4311
X3.5354Y-2.4606
X3.5354Y-2.4902
X2.1142Y-1.3287
X2.1142Y-1.3583
X2.1142Y-1.3878
X2.2165Y-1.3287
X2.2165Y-1.3583
X2.2165Y-1.3878
X3.4331Y-1.3287
X3.4331Y-1.3583
X3.4331Y-1.3878
X3.5354Y-1.3287
X3.5354Y-1.3583
X3.5354Y-1.3878
T2
X4.1878Y-1.3103
X4.1878Y-3.4996
X1.55Y-1.3103
X1.55Y-3.4996
X2.8689Y-1.3103
X2.8689Y-3.4996
T0
M30
