G04 #@! TF.GenerationSoftware,KiCad,Pcbnew,5.1.6-c6e7f7d~87~ubuntu20.04.1*
G04 #@! TF.CreationDate,2020-11-03T14:00:41+02:00*
G04 #@! TF.ProjectId,temp_monitor,74656d70-5f6d-46f6-9e69-746f722e6b69,rev?*
G04 #@! TF.SameCoordinates,Original*
G04 #@! TF.FileFunction,Legend,Bot*
G04 #@! TF.FilePolarity,Positive*
%FSLAX46Y46*%
G04 Gerber Fmt 4.6, Leading zero omitted, Abs format (unit mm)*
G04 Created by KiCad (PCBNEW 5.1.6-c6e7f7d~87~ubuntu20.04.1) date 2020-11-03 14:00:41*
%MOMM*%
%LPD*%
G01*
G04 APERTURE LIST*
%ADD10C,0.120000*%
%ADD11C,0.150000*%
G04 APERTURE END LIST*
D10*
X116420000Y-100536000D02*
X116420000Y-22536000D01*
X116420000Y-22536000D02*
X96320000Y-22536000D01*
X96320000Y-22536000D02*
X96320000Y-100536000D01*
X96320000Y-100536000D02*
X116420000Y-100536000D01*
X82920000Y-100536000D02*
X82920000Y-22536000D01*
X82920000Y-22536000D02*
X62820000Y-22536000D01*
X62820000Y-22536000D02*
X62820000Y-100536000D01*
X62820000Y-100536000D02*
X82920000Y-100536000D01*
X29320000Y-100536000D02*
X49420000Y-100536000D01*
X29320000Y-22536000D02*
X29320000Y-100536000D01*
X49420000Y-22536000D02*
X29320000Y-22536000D01*
X49420000Y-100536000D02*
X49420000Y-22536000D01*
D11*
X105298571Y-60750285D02*
X105346190Y-60893142D01*
X105393809Y-60940761D01*
X105489047Y-60988380D01*
X105631904Y-60988380D01*
X105727142Y-60940761D01*
X105774761Y-60893142D01*
X105822380Y-60797904D01*
X105822380Y-60416952D01*
X104822380Y-60416952D01*
X104822380Y-60750285D01*
X104870000Y-60845523D01*
X104917619Y-60893142D01*
X105012857Y-60940761D01*
X105108095Y-60940761D01*
X105203333Y-60893142D01*
X105250952Y-60845523D01*
X105298571Y-60750285D01*
X105298571Y-60416952D01*
X104822380Y-61274095D02*
X104822380Y-61845523D01*
X105822380Y-61559809D02*
X104822380Y-61559809D01*
X105822380Y-62702666D02*
X105822380Y-62131238D01*
X105822380Y-62416952D02*
X104822380Y-62416952D01*
X104965238Y-62321714D01*
X105060476Y-62226476D01*
X105108095Y-62131238D01*
X71798571Y-60750285D02*
X71846190Y-60893142D01*
X71893809Y-60940761D01*
X71989047Y-60988380D01*
X72131904Y-60988380D01*
X72227142Y-60940761D01*
X72274761Y-60893142D01*
X72322380Y-60797904D01*
X72322380Y-60416952D01*
X71322380Y-60416952D01*
X71322380Y-60750285D01*
X71370000Y-60845523D01*
X71417619Y-60893142D01*
X71512857Y-60940761D01*
X71608095Y-60940761D01*
X71703333Y-60893142D01*
X71750952Y-60845523D01*
X71798571Y-60750285D01*
X71798571Y-60416952D01*
X71322380Y-61274095D02*
X71322380Y-61845523D01*
X72322380Y-61559809D02*
X71322380Y-61559809D01*
X72322380Y-62702666D02*
X72322380Y-62131238D01*
X72322380Y-62416952D02*
X71322380Y-62416952D01*
X71465238Y-62321714D01*
X71560476Y-62226476D01*
X71608095Y-62131238D01*
X38298571Y-60750285D02*
X38346190Y-60893142D01*
X38393809Y-60940761D01*
X38489047Y-60988380D01*
X38631904Y-60988380D01*
X38727142Y-60940761D01*
X38774761Y-60893142D01*
X38822380Y-60797904D01*
X38822380Y-60416952D01*
X37822380Y-60416952D01*
X37822380Y-60750285D01*
X37870000Y-60845523D01*
X37917619Y-60893142D01*
X38012857Y-60940761D01*
X38108095Y-60940761D01*
X38203333Y-60893142D01*
X38250952Y-60845523D01*
X38298571Y-60750285D01*
X38298571Y-60416952D01*
X37822380Y-61274095D02*
X37822380Y-61845523D01*
X38822380Y-61559809D02*
X37822380Y-61559809D01*
X38822380Y-62702666D02*
X38822380Y-62131238D01*
X38822380Y-62416952D02*
X37822380Y-62416952D01*
X37965238Y-62321714D01*
X38060476Y-62226476D01*
X38108095Y-62131238D01*
M02*
