M48
; DRILL file {KiCad 5.1.6-c6e7f7d~87~ubuntu20.04.1} date Tue Nov  3 14:00:44 2020
; FORMAT={-:-/ absolute / inch / decimal}
; #@! TF.CreationDate,2020-11-03T14:00:44+02:00
; #@! TF.GenerationSoftware,Kicad,Pcbnew,5.1.6-c6e7f7d~87~ubuntu20.04.1
; #@! TF.FileFunction,Plated,1,2,PTH
FMAT,2
INCH
T1C0.0295
T2C0.0394
T3C0.0433
T4C0.0787
%
G90
G05
T1
X4.5378Y-3.24
X4.5378Y-3.29
X1.9Y-3.24
X1.9Y-3.29
X1.9Y-3.34
X3.2189Y-3.24
X3.2189Y-3.29
X3.2189Y-3.34
X4.5378Y-3.34
T2
X1.18Y-3.46
X1.3Y-3.16
X1.38Y-3.76
X1.44Y-2.84
X1.6Y-2.89
X1.65Y-1.89
X1.75Y-3.54
X1.76Y-1.89
X2.4989Y-3.46
X2.6189Y-3.16
X2.6989Y-3.76
X2.7589Y-2.84
X2.9189Y-2.89
X2.9689Y-1.89
X3.0689Y-3.54
X3.0789Y-1.89
X3.8178Y-3.46
X3.9378Y-3.16
X4.0178Y-3.76
X4.0778Y-2.84
X4.2378Y-2.89
X4.2878Y-1.89
X4.3878Y-3.54
X4.3978Y-1.89
X3.8732Y-1.6732
X3.9732Y-1.6732
X4.0732Y-1.6732
X4.1732Y-1.6732
X1.2354Y-1.6732
X1.3354Y-1.6732
X1.4354Y-1.6732
X1.5354Y-1.6732
X2.5543Y-1.6732
X2.6543Y-1.6732
X2.7543Y-1.6732
X2.8543Y-1.6732
T3
X1.1Y-3.3341
X1.1Y-3.59
X1.2772Y-3.3341
X1.2772Y-3.59
X2.4189Y-3.3341
X2.4189Y-3.59
X2.5961Y-3.3341
X2.5961Y-3.59
X3.7378Y-3.3341
X3.7378Y-3.59
X3.915Y-3.3341
X3.915Y-3.59
X4.3106Y-1.44
X4.3106Y-1.6959
X4.4878Y-1.44
X4.4878Y-1.6959
X2.9917Y-1.44
X2.9917Y-1.6959
X3.1689Y-1.44
X3.1689Y-1.6959
X1.6728Y-1.44
X1.6728Y-1.6959
X1.85Y-1.44
X1.85Y-1.6959
T4
X1.55Y-1.0054
X1.55Y-3.84
X2.8689Y-1.0054
X2.8689Y-3.84
X4.1878Y-1.0054
X4.1878Y-3.84
T0
M30
