G04 #@! TF.GenerationSoftware,KiCad,Pcbnew,5.1.4-e60b266~84~ubuntu19.04.1*
G04 #@! TF.CreationDate,2019-10-25T19:11:23+03:00*
G04 #@! TF.ProjectId,temp_monitor,74656d70-5f6d-46f6-9e69-746f722e6b69,rev?*
G04 #@! TF.SameCoordinates,Original*
G04 #@! TF.FileFunction,Legend,Top*
G04 #@! TF.FilePolarity,Positive*
%FSLAX46Y46*%
G04 Gerber Fmt 4.6, Leading zero omitted, Abs format (unit mm)*
G04 Created by KiCad (PCBNEW 5.1.4-e60b266~84~ubuntu19.04.1) date 2019-10-25 19:11:23*
%MOMM*%
%LPD*%
G04 APERTURE LIST*
%ADD10C,0.150000*%
%ADD11C,0.120000*%
G04 APERTURE END LIST*
D10*
X115125952Y-73112380D02*
X114649761Y-73112380D01*
X114602142Y-73588571D01*
X114649761Y-73540952D01*
X114745000Y-73493333D01*
X114983095Y-73493333D01*
X115078333Y-73540952D01*
X115125952Y-73588571D01*
X115173571Y-73683809D01*
X115173571Y-73921904D01*
X115125952Y-74017142D01*
X115078333Y-74064761D01*
X114983095Y-74112380D01*
X114745000Y-74112380D01*
X114649761Y-74064761D01*
X114602142Y-74017142D01*
X115649761Y-74112380D02*
X115840238Y-74112380D01*
X115935476Y-74064761D01*
X115983095Y-74017142D01*
X116078333Y-73874285D01*
X116125952Y-73683809D01*
X116125952Y-73302857D01*
X116078333Y-73207619D01*
X116030714Y-73160000D01*
X115935476Y-73112380D01*
X115745000Y-73112380D01*
X115649761Y-73160000D01*
X115602142Y-73207619D01*
X115554523Y-73302857D01*
X115554523Y-73540952D01*
X115602142Y-73636190D01*
X115649761Y-73683809D01*
X115745000Y-73731428D01*
X115935476Y-73731428D01*
X116030714Y-73683809D01*
X116078333Y-73636190D01*
X116125952Y-73540952D01*
X116554523Y-74017142D02*
X116602142Y-74064761D01*
X116554523Y-74112380D01*
X116506904Y-74064761D01*
X116554523Y-74017142D01*
X116554523Y-74112380D01*
X117459285Y-73112380D02*
X117268809Y-73112380D01*
X117173571Y-73160000D01*
X117125952Y-73207619D01*
X117030714Y-73350476D01*
X116983095Y-73540952D01*
X116983095Y-73921904D01*
X117030714Y-74017142D01*
X117078333Y-74064761D01*
X117173571Y-74112380D01*
X117364047Y-74112380D01*
X117459285Y-74064761D01*
X117506904Y-74017142D01*
X117554523Y-73921904D01*
X117554523Y-73683809D01*
X117506904Y-73588571D01*
X117459285Y-73540952D01*
X117364047Y-73493333D01*
X117173571Y-73493333D01*
X117078333Y-73540952D01*
X117030714Y-73588571D01*
X116983095Y-73683809D01*
X118030714Y-74112380D02*
X118221190Y-74112380D01*
X118316428Y-74064761D01*
X118364047Y-74017142D01*
X118459285Y-73874285D01*
X118506904Y-73683809D01*
X118506904Y-73302857D01*
X118459285Y-73207619D01*
X118411666Y-73160000D01*
X118316428Y-73112380D01*
X118125952Y-73112380D01*
X118030714Y-73160000D01*
X117983095Y-73207619D01*
X117935476Y-73302857D01*
X117935476Y-73540952D01*
X117983095Y-73636190D01*
X118030714Y-73683809D01*
X118125952Y-73731428D01*
X118316428Y-73731428D01*
X118411666Y-73683809D01*
X118459285Y-73636190D01*
X118506904Y-73540952D01*
X119125952Y-73112380D02*
X119221190Y-73112380D01*
X119316428Y-73160000D01*
X119364047Y-73207619D01*
X119411666Y-73302857D01*
X119459285Y-73493333D01*
X119459285Y-73731428D01*
X119411666Y-73921904D01*
X119364047Y-74017142D01*
X119316428Y-74064761D01*
X119221190Y-74112380D01*
X119125952Y-74112380D01*
X119030714Y-74064761D01*
X118983095Y-74017142D01*
X118935476Y-73921904D01*
X118887857Y-73731428D01*
X118887857Y-73493333D01*
X118935476Y-73302857D01*
X118983095Y-73207619D01*
X119030714Y-73160000D01*
X119125952Y-73112380D01*
X120649761Y-74112380D02*
X120649761Y-73445714D01*
X120649761Y-73540952D02*
X120697380Y-73493333D01*
X120792619Y-73445714D01*
X120935476Y-73445714D01*
X121030714Y-73493333D01*
X121078333Y-73588571D01*
X121078333Y-74112380D01*
X121078333Y-73588571D02*
X121125952Y-73493333D01*
X121221190Y-73445714D01*
X121364047Y-73445714D01*
X121459285Y-73493333D01*
X121506904Y-73588571D01*
X121506904Y-74112380D01*
X121983095Y-74112380D02*
X121983095Y-73445714D01*
X121983095Y-73540952D02*
X122030714Y-73493333D01*
X122125952Y-73445714D01*
X122268809Y-73445714D01*
X122364047Y-73493333D01*
X122411666Y-73588571D01*
X122411666Y-74112380D01*
X122411666Y-73588571D02*
X122459285Y-73493333D01*
X122554523Y-73445714D01*
X122697380Y-73445714D01*
X122792619Y-73493333D01*
X122840238Y-73588571D01*
X122840238Y-74112380D01*
D11*
X88900000Y-74930000D02*
X148590000Y-74930000D01*
X88900000Y-85090000D02*
X88900000Y-74343579D01*
X148590000Y-85090000D02*
X148590000Y-74343579D01*
X148590000Y-74930000D02*
X147463496Y-75516421D01*
X148590000Y-74930000D02*
X147463496Y-74343579D01*
X88900000Y-74930000D02*
X90026504Y-75516421D01*
X88900000Y-74930000D02*
X90026504Y-74343579D01*
X117880000Y-106890000D02*
X117880000Y-107670000D01*
X117880000Y-107670000D02*
X118880000Y-107670000D01*
X136120000Y-106890000D02*
X136120000Y-107670000D01*
X136120000Y-107670000D02*
X135120000Y-107670000D01*
X117880000Y-81925000D02*
X136120000Y-81925000D01*
X136120000Y-81925000D02*
X136120000Y-88345000D01*
X117880000Y-81925000D02*
X117880000Y-88345000D01*
X117880000Y-88345000D02*
X117500000Y-88345000D01*
X113178000Y-96389436D02*
X113178000Y-97593564D01*
X111358000Y-96389436D02*
X111358000Y-97593564D01*
X95373436Y-100478000D02*
X96577564Y-100478000D01*
X95373436Y-98658000D02*
X96577564Y-98658000D01*
X95373436Y-102214000D02*
X96577564Y-102214000D01*
X95373436Y-104034000D02*
X96577564Y-104034000D01*
X107245564Y-88498000D02*
X106041436Y-88498000D01*
X107245564Y-90318000D02*
X106041436Y-90318000D01*
X143062000Y-88586000D02*
X140402000Y-88586000D01*
X143062000Y-96266000D02*
X143062000Y-88586000D01*
X140402000Y-96266000D02*
X140402000Y-88586000D01*
X143062000Y-96266000D02*
X140402000Y-96266000D01*
X143062000Y-97536000D02*
X143062000Y-98866000D01*
X143062000Y-98866000D02*
X141732000Y-98866000D01*
X105916000Y-109784000D02*
X105916000Y-108854000D01*
X105916000Y-106624000D02*
X105916000Y-107554000D01*
X105916000Y-106624000D02*
X103756000Y-106624000D01*
X105916000Y-109784000D02*
X104456000Y-109784000D01*
X103376000Y-105974000D02*
X101916000Y-105974000D01*
X103376000Y-102814000D02*
X101216000Y-102814000D01*
X103376000Y-102814000D02*
X103376000Y-103744000D01*
X103376000Y-105974000D02*
X103376000Y-105044000D01*
X99770000Y-107933748D02*
X99770000Y-108456252D01*
X98350000Y-107933748D02*
X98350000Y-108456252D01*
X111454000Y-88662252D02*
X111454000Y-88139748D01*
X110034000Y-88662252D02*
X110034000Y-88139748D01*
X106696000Y-93560000D02*
X102196000Y-93560000D01*
X107946000Y-97560000D02*
X107946000Y-96060000D01*
X102196000Y-100060000D02*
X106696000Y-100060000D01*
X100946000Y-96060000D02*
X100946000Y-97560000D01*
X145942000Y-109680000D02*
X145942000Y-108180000D01*
X144692000Y-105680000D02*
X140192000Y-105680000D01*
X138942000Y-108180000D02*
X138942000Y-109680000D01*
X140192000Y-112180000D02*
X144692000Y-112180000D01*
X112290000Y-112958000D02*
X108690000Y-112958000D01*
X112328478Y-112969522D02*
G75*
G02X110490000Y-117408000I-1838478J-1838478D01*
G01*
X108651522Y-112969522D02*
G75*
G03X110490000Y-117408000I1838478J-1838478D01*
G01*
X109965748Y-108510000D02*
X110488252Y-108510000D01*
X109965748Y-109930000D02*
X110488252Y-109930000D01*
X93158000Y-93158000D02*
X93158000Y-95818000D01*
X95758000Y-93158000D02*
X93158000Y-93158000D01*
X95758000Y-95818000D02*
X93158000Y-95818000D01*
X95758000Y-93158000D02*
X95758000Y-95818000D01*
X97028000Y-93158000D02*
X98358000Y-93158000D01*
X98358000Y-93158000D02*
X98358000Y-94488000D01*
D10*
X115842380Y-106981904D02*
X116651904Y-106981904D01*
X116747142Y-106934285D01*
X116794761Y-106886666D01*
X116842380Y-106791428D01*
X116842380Y-106600952D01*
X116794761Y-106505714D01*
X116747142Y-106458095D01*
X116651904Y-106410476D01*
X115842380Y-106410476D01*
X116842380Y-105410476D02*
X116842380Y-105981904D01*
X116842380Y-105696190D02*
X115842380Y-105696190D01*
X115985238Y-105791428D01*
X116080476Y-105886666D01*
X116128095Y-105981904D01*
X114445142Y-97158166D02*
X114492761Y-97205785D01*
X114540380Y-97348642D01*
X114540380Y-97443880D01*
X114492761Y-97586738D01*
X114397523Y-97681976D01*
X114302285Y-97729595D01*
X114111809Y-97777214D01*
X113968952Y-97777214D01*
X113778476Y-97729595D01*
X113683238Y-97681976D01*
X113588000Y-97586738D01*
X113540380Y-97443880D01*
X113540380Y-97348642D01*
X113588000Y-97205785D01*
X113635619Y-97158166D01*
X114540380Y-96205785D02*
X114540380Y-96777214D01*
X114540380Y-96491500D02*
X113540380Y-96491500D01*
X113683238Y-96586738D01*
X113778476Y-96681976D01*
X113826095Y-96777214D01*
X95808833Y-98105142D02*
X95761214Y-98152761D01*
X95618357Y-98200380D01*
X95523119Y-98200380D01*
X95380261Y-98152761D01*
X95285023Y-98057523D01*
X95237404Y-97962285D01*
X95189785Y-97771809D01*
X95189785Y-97628952D01*
X95237404Y-97438476D01*
X95285023Y-97343238D01*
X95380261Y-97248000D01*
X95523119Y-97200380D01*
X95618357Y-97200380D01*
X95761214Y-97248000D01*
X95808833Y-97295619D01*
X96189785Y-97295619D02*
X96237404Y-97248000D01*
X96332642Y-97200380D01*
X96570738Y-97200380D01*
X96665976Y-97248000D01*
X96713595Y-97295619D01*
X96761214Y-97390857D01*
X96761214Y-97486095D01*
X96713595Y-97628952D01*
X96142166Y-98200380D01*
X96761214Y-98200380D01*
X95808833Y-101661142D02*
X95761214Y-101708761D01*
X95618357Y-101756380D01*
X95523119Y-101756380D01*
X95380261Y-101708761D01*
X95285023Y-101613523D01*
X95237404Y-101518285D01*
X95189785Y-101327809D01*
X95189785Y-101184952D01*
X95237404Y-100994476D01*
X95285023Y-100899238D01*
X95380261Y-100804000D01*
X95523119Y-100756380D01*
X95618357Y-100756380D01*
X95761214Y-100804000D01*
X95808833Y-100851619D01*
X96142166Y-100756380D02*
X96761214Y-100756380D01*
X96427880Y-101137333D01*
X96570738Y-101137333D01*
X96665976Y-101184952D01*
X96713595Y-101232571D01*
X96761214Y-101327809D01*
X96761214Y-101565904D01*
X96713595Y-101661142D01*
X96665976Y-101708761D01*
X96570738Y-101756380D01*
X96285023Y-101756380D01*
X96189785Y-101708761D01*
X96142166Y-101661142D01*
X106476833Y-91585142D02*
X106429214Y-91632761D01*
X106286357Y-91680380D01*
X106191119Y-91680380D01*
X106048261Y-91632761D01*
X105953023Y-91537523D01*
X105905404Y-91442285D01*
X105857785Y-91251809D01*
X105857785Y-91108952D01*
X105905404Y-90918476D01*
X105953023Y-90823238D01*
X106048261Y-90728000D01*
X106191119Y-90680380D01*
X106286357Y-90680380D01*
X106429214Y-90728000D01*
X106476833Y-90775619D01*
X107333976Y-91013714D02*
X107333976Y-91680380D01*
X107095880Y-90632761D02*
X106857785Y-91347047D01*
X107476833Y-91347047D01*
X141398666Y-99318380D02*
X141398666Y-100032666D01*
X141351047Y-100175523D01*
X141255809Y-100270761D01*
X141112952Y-100318380D01*
X141017714Y-100318380D01*
X142398666Y-100318380D02*
X141827238Y-100318380D01*
X142112952Y-100318380D02*
X142112952Y-99318380D01*
X142017714Y-99461238D01*
X141922476Y-99556476D01*
X141827238Y-99604095D01*
X105060761Y-106251619D02*
X104965523Y-106204000D01*
X104870285Y-106108761D01*
X104727428Y-105965904D01*
X104632190Y-105918285D01*
X104536952Y-105918285D01*
X104584571Y-106156380D02*
X104489333Y-106108761D01*
X104394095Y-106013523D01*
X104346476Y-105823047D01*
X104346476Y-105489714D01*
X104394095Y-105299238D01*
X104489333Y-105204000D01*
X104584571Y-105156380D01*
X104775047Y-105156380D01*
X104870285Y-105204000D01*
X104965523Y-105299238D01*
X105013142Y-105489714D01*
X105013142Y-105823047D01*
X104965523Y-106013523D01*
X104870285Y-106108761D01*
X104775047Y-106156380D01*
X104584571Y-106156380D01*
X105965523Y-106156380D02*
X105394095Y-106156380D01*
X105679809Y-106156380D02*
X105679809Y-105156380D01*
X105584571Y-105299238D01*
X105489333Y-105394476D01*
X105394095Y-105442095D01*
X102520761Y-102441619D02*
X102425523Y-102394000D01*
X102330285Y-102298761D01*
X102187428Y-102155904D01*
X102092190Y-102108285D01*
X101996952Y-102108285D01*
X102044571Y-102346380D02*
X101949333Y-102298761D01*
X101854095Y-102203523D01*
X101806476Y-102013047D01*
X101806476Y-101679714D01*
X101854095Y-101489238D01*
X101949333Y-101394000D01*
X102044571Y-101346380D01*
X102235047Y-101346380D01*
X102330285Y-101394000D01*
X102425523Y-101489238D01*
X102473142Y-101679714D01*
X102473142Y-102013047D01*
X102425523Y-102203523D01*
X102330285Y-102298761D01*
X102235047Y-102346380D01*
X102044571Y-102346380D01*
X102854095Y-101441619D02*
X102901714Y-101394000D01*
X102996952Y-101346380D01*
X103235047Y-101346380D01*
X103330285Y-101394000D01*
X103377904Y-101441619D01*
X103425523Y-101536857D01*
X103425523Y-101632095D01*
X103377904Y-101774952D01*
X102806476Y-102346380D01*
X103425523Y-102346380D01*
X101162380Y-108361666D02*
X100686190Y-108695000D01*
X101162380Y-108933095D02*
X100162380Y-108933095D01*
X100162380Y-108552142D01*
X100210000Y-108456904D01*
X100257619Y-108409285D01*
X100352857Y-108361666D01*
X100495714Y-108361666D01*
X100590952Y-108409285D01*
X100638571Y-108456904D01*
X100686190Y-108552142D01*
X100686190Y-108933095D01*
X101162380Y-107409285D02*
X101162380Y-107980714D01*
X101162380Y-107695000D02*
X100162380Y-107695000D01*
X100305238Y-107790238D01*
X100400476Y-107885476D01*
X100448095Y-107980714D01*
X109546380Y-88567666D02*
X109070190Y-88901000D01*
X109546380Y-89139095D02*
X108546380Y-89139095D01*
X108546380Y-88758142D01*
X108594000Y-88662904D01*
X108641619Y-88615285D01*
X108736857Y-88567666D01*
X108879714Y-88567666D01*
X108974952Y-88615285D01*
X109022571Y-88662904D01*
X109070190Y-88758142D01*
X109070190Y-89139095D01*
X108879714Y-87710523D02*
X109546380Y-87710523D01*
X108498761Y-87948619D02*
X109213047Y-88186714D01*
X109213047Y-87567666D01*
X103112666Y-101464761D02*
X103255523Y-101512380D01*
X103493619Y-101512380D01*
X103588857Y-101464761D01*
X103636476Y-101417142D01*
X103684095Y-101321904D01*
X103684095Y-101226666D01*
X103636476Y-101131428D01*
X103588857Y-101083809D01*
X103493619Y-101036190D01*
X103303142Y-100988571D01*
X103207904Y-100940952D01*
X103160285Y-100893333D01*
X103112666Y-100798095D01*
X103112666Y-100702857D01*
X103160285Y-100607619D01*
X103207904Y-100560000D01*
X103303142Y-100512380D01*
X103541238Y-100512380D01*
X103684095Y-100560000D01*
X104017428Y-100512380D02*
X104255523Y-101512380D01*
X104446000Y-100798095D01*
X104636476Y-101512380D01*
X104874571Y-100512380D01*
X105779333Y-101512380D02*
X105207904Y-101512380D01*
X105493619Y-101512380D02*
X105493619Y-100512380D01*
X105398380Y-100655238D01*
X105303142Y-100750476D01*
X105207904Y-100798095D01*
X141108666Y-105084761D02*
X141251523Y-105132380D01*
X141489619Y-105132380D01*
X141584857Y-105084761D01*
X141632476Y-105037142D01*
X141680095Y-104941904D01*
X141680095Y-104846666D01*
X141632476Y-104751428D01*
X141584857Y-104703809D01*
X141489619Y-104656190D01*
X141299142Y-104608571D01*
X141203904Y-104560952D01*
X141156285Y-104513333D01*
X141108666Y-104418095D01*
X141108666Y-104322857D01*
X141156285Y-104227619D01*
X141203904Y-104180000D01*
X141299142Y-104132380D01*
X141537238Y-104132380D01*
X141680095Y-104180000D01*
X142013428Y-104132380D02*
X142251523Y-105132380D01*
X142442000Y-104418095D01*
X142632476Y-105132380D01*
X142870571Y-104132380D01*
X143203904Y-104227619D02*
X143251523Y-104180000D01*
X143346761Y-104132380D01*
X143584857Y-104132380D01*
X143680095Y-104180000D01*
X143727714Y-104227619D01*
X143775333Y-104322857D01*
X143775333Y-104418095D01*
X143727714Y-104560952D01*
X143156285Y-105132380D01*
X143775333Y-105132380D01*
X109728095Y-117820380D02*
X109728095Y-118629904D01*
X109775714Y-118725142D01*
X109823333Y-118772761D01*
X109918571Y-118820380D01*
X110109047Y-118820380D01*
X110204285Y-118772761D01*
X110251904Y-118725142D01*
X110299523Y-118629904D01*
X110299523Y-117820380D01*
X110728095Y-117915619D02*
X110775714Y-117868000D01*
X110870952Y-117820380D01*
X111109047Y-117820380D01*
X111204285Y-117868000D01*
X111251904Y-117915619D01*
X111299523Y-118010857D01*
X111299523Y-118106095D01*
X111251904Y-118248952D01*
X110680476Y-118820380D01*
X111299523Y-118820380D01*
X110060333Y-108022380D02*
X109727000Y-107546190D01*
X109488904Y-108022380D02*
X109488904Y-107022380D01*
X109869857Y-107022380D01*
X109965095Y-107070000D01*
X110012714Y-107117619D01*
X110060333Y-107212857D01*
X110060333Y-107355714D01*
X110012714Y-107450952D01*
X109965095Y-107498571D01*
X109869857Y-107546190D01*
X109488904Y-107546190D01*
X110965095Y-107022380D02*
X110488904Y-107022380D01*
X110441285Y-107498571D01*
X110488904Y-107450952D01*
X110584142Y-107403333D01*
X110822238Y-107403333D01*
X110917476Y-107450952D01*
X110965095Y-107498571D01*
X111012714Y-107593809D01*
X111012714Y-107831904D01*
X110965095Y-107927142D01*
X110917476Y-107974761D01*
X110822238Y-108022380D01*
X110584142Y-108022380D01*
X110488904Y-107974761D01*
X110441285Y-107927142D01*
X98810380Y-94821333D02*
X99524666Y-94821333D01*
X99667523Y-94868952D01*
X99762761Y-94964190D01*
X99810380Y-95107047D01*
X99810380Y-95202285D01*
X98905619Y-94392761D02*
X98858000Y-94345142D01*
X98810380Y-94249904D01*
X98810380Y-94011809D01*
X98858000Y-93916571D01*
X98905619Y-93868952D01*
X99000857Y-93821333D01*
X99096095Y-93821333D01*
X99238952Y-93868952D01*
X99810380Y-94440380D01*
X99810380Y-93821333D01*
M02*
