<?xml version="1.0" standalone="no"?>
 <!DOCTYPE svg PUBLIC "-//W3C//DTD SVG 1.1//EN" 
 "http://www.w3.org/Graphics/SVG/1.1/DTD/svg11.dtd"> 
<svg xmlns="http://www.w3.org/2000/svg" version="1.1" 
    width="29.7002cm" height="21.0007cm" viewBox="0 0 116930 82680 ">
<title>SVG Picture created as temp_monitor-F_Cu.svg date 2019/10/25 19:09:59 </title>
  <desc>Picture generated by PCBNEW </desc>
<g style="fill:#000000; fill-opacity:1;stroke:#000000; stroke-opacity:1;
stroke-linecap:round; stroke-linejoin:round; "
 transform="translate(0 0) scale(1 1)">
</g>
<g style="fill:#000000; fill-opacity:0.0; 
stroke:#000000; stroke-width:-0.000393701; stroke-opacity:1; 
stroke-linecap:round; stroke-linejoin:round;">
</g>
<g style="fill:#000000; fill-opacity:0.0; 
stroke:#000000; stroke-width:39.3701; stroke-opacity:1; 
stroke-linecap:round; stroke-linejoin:round;">
</g>
<g style="fill:#000000; fill-opacity:0.0; 
stroke:#000000; stroke-width:59.0551; stroke-opacity:1; 
stroke-linecap:round; stroke-linejoin:round;">
<rect x="69685.9" y="65357.2" width="42519.7" height="12598.4" rx="0" />
</g>
<g style="fill:#000000; fill-opacity:0.0; 
stroke:#000000; stroke-width:39.3701; stroke-opacity:1; 
stroke-linecap:round; stroke-linejoin:round;">
</g>
<g style="fill:#000000; fill-opacity:0.0; 
stroke:#000000; stroke-width:59.0551; stroke-opacity:1; 
stroke-linecap:round; stroke-linejoin:round;">
<rect x="3937.01" y="3937.01" width="109056" height="74806" rx="0" />
</g>
<g style="fill:#000000; fill-opacity:0.0; 
stroke:#000000; stroke-width:39.3701; stroke-opacity:1; 
stroke-linecap:round; stroke-linejoin:round;">
</g>
<g style="fill:#000000; fill-opacity:0.0; 
stroke:#000000; stroke-width:59.0551; stroke-opacity:1; 
stroke-linecap:round; stroke-linejoin:round;">
<rect x="4724.41" y="4724.41" width="107481" height="73231.2" rx="0" />
</g>
<g style="fill:#000000; fill-opacity:0.0; 
stroke:#000000; stroke-width:39.3701; stroke-opacity:1; 
stroke-linecap:round; stroke-linejoin:round;">
</g>
<g style="fill:#000000; fill-opacity:0.0; 
stroke:#000000; stroke-width:59.0551; stroke-opacity:1; 
stroke-linecap:round; stroke-linejoin:round;">
<path d="M23622 4724
L23622 3937
" />
</g>
<g style="fill:#000000; fill-opacity:0.0; 
stroke:#000000; stroke-width:39.3701; stroke-opacity:1; 
stroke-linecap:round; stroke-linejoin:round;">
</g>
<g style="fill:#000000; fill-opacity:0.0; 
stroke:#000000; stroke-width:59.0551; stroke-opacity:1; 
stroke-linecap:round; stroke-linejoin:round;">
<path d="M43307 4724
L43307 3937
" />
</g>
<g style="fill:#000000; fill-opacity:0.0; 
stroke:#000000; stroke-width:39.3701; stroke-opacity:1; 
stroke-linecap:round; stroke-linejoin:round;">
</g>
<g style="fill:#000000; fill-opacity:0.0; 
stroke:#000000; stroke-width:59.0551; stroke-opacity:1; 
stroke-linecap:round; stroke-linejoin:round;">
<path d="M62992 4724
L62992 3937
" />
</g>
<g style="fill:#000000; fill-opacity:0.0; 
stroke:#000000; stroke-width:39.3701; stroke-opacity:1; 
stroke-linecap:round; stroke-linejoin:round;">
</g>
<g style="fill:#000000; fill-opacity:0.0; 
stroke:#000000; stroke-width:59.0551; stroke-opacity:1; 
stroke-linecap:round; stroke-linejoin:round;">
<path d="M82677 4724
L82677 3937
" />
</g>
<g style="fill:#000000; fill-opacity:0.0; 
stroke:#000000; stroke-width:39.3701; stroke-opacity:1; 
stroke-linecap:round; stroke-linejoin:round;">
</g>
<g style="fill:#000000; fill-opacity:0.0; 
stroke:#000000; stroke-width:59.0551; stroke-opacity:1; 
stroke-linecap:round; stroke-linejoin:round;">
<path d="M102362 4724
L102362 3937
" />
</g>
<g style="fill:#000000; fill-opacity:0.0; 
stroke:#000000; stroke-width:39.3701; stroke-opacity:1; 
stroke-linecap:round; stroke-linejoin:round;">
</g>
<g style="fill:#000000; fill-opacity:0.0; 
stroke:#000000; stroke-width:59.0551; stroke-opacity:1; 
stroke-linecap:round; stroke-linejoin:round;">
<path d="M14199 4562
L13906 4562
" />
<path d="M14052 4562
L14052 4050
L14004 4123
L13955 4172
L13906 4196
" />
</g>
<g style="fill:#000000; fill-opacity:0.0; 
stroke:#000000; stroke-width:39.3701; stroke-opacity:1; 
stroke-linecap:round; stroke-linejoin:round;">
</g>
<g style="fill:#000000; fill-opacity:0.0; 
stroke:#000000; stroke-width:59.0551; stroke-opacity:1; 
stroke-linecap:round; stroke-linejoin:round;">
<path d="M33591 4099
L33615 4074
L33664 4050
L33786 4050
L33835 4074
L33859 4099
L33884 4147
L33884 4196
L33859 4269
L33567 4562
L33884 4562
" />
</g>
<g style="fill:#000000; fill-opacity:0.0; 
stroke:#000000; stroke-width:39.3701; stroke-opacity:1; 
stroke-linecap:round; stroke-linejoin:round;">
</g>
<g style="fill:#000000; fill-opacity:0.0; 
stroke:#000000; stroke-width:59.0551; stroke-opacity:1; 
stroke-linecap:round; stroke-linejoin:round;">
<path d="M53252 4050
L53569 4050
L53398 4245
L53471 4245
L53520 4269
L53544 4294
L53569 4342
L53569 4464
L53544 4513
L53520 4537
L53471 4562
L53325 4562
L53276 4537
L53252 4513
" />
</g>
<g style="fill:#000000; fill-opacity:0.0; 
stroke:#000000; stroke-width:39.3701; stroke-opacity:1; 
stroke-linecap:round; stroke-linejoin:round;">
</g>
<g style="fill:#000000; fill-opacity:0.0; 
stroke:#000000; stroke-width:59.0551; stroke-opacity:1; 
stroke-linecap:round; stroke-linejoin:round;">
<path d="M73205 4221
L73205 4562
" />
<path d="M73083 4026
L72961 4391
L73278 4391
" />
</g>
<g style="fill:#000000; fill-opacity:0.0; 
stroke:#000000; stroke-width:39.3701; stroke-opacity:1; 
stroke-linecap:round; stroke-linejoin:round;">
</g>
<g style="fill:#000000; fill-opacity:0.0; 
stroke:#000000; stroke-width:59.0551; stroke-opacity:1; 
stroke-linecap:round; stroke-linejoin:round;">
<path d="M92914 4050
L92671 4050
L92646 4294
L92671 4269
L92719 4245
L92841 4245
L92890 4269
L92914 4294
L92939 4342
L92939 4464
L92914 4513
L92890 4537
L92841 4562
L92719 4562
L92671 4537
L92646 4513
" />
</g>
<g style="fill:#000000; fill-opacity:0.0; 
stroke:#000000; stroke-width:39.3701; stroke-opacity:1; 
stroke-linecap:round; stroke-linejoin:round;">
</g>
<g style="fill:#000000; fill-opacity:0.0; 
stroke:#000000; stroke-width:59.0551; stroke-opacity:1; 
stroke-linecap:round; stroke-linejoin:round;">
<path d="M112575 4050
L112477 4050
L112429 4074
L112404 4099
L112356 4172
L112331 4269
L112331 4464
L112356 4513
L112380 4537
L112429 4562
L112526 4562
L112575 4537
L112599 4513
L112624 4464
L112624 4342
L112599 4294
L112575 4269
L112526 4245
L112429 4245
L112380 4269
L112356 4294
L112331 4342
" />
</g>
<g style="fill:#000000; fill-opacity:0.0; 
stroke:#000000; stroke-width:39.3701; stroke-opacity:1; 
stroke-linecap:round; stroke-linejoin:round;">
</g>
<g style="fill:#000000; fill-opacity:0.0; 
stroke:#000000; stroke-width:59.0551; stroke-opacity:1; 
stroke-linecap:round; stroke-linejoin:round;">
<path d="M23622 77955
L23622 78742
" />
</g>
<g style="fill:#000000; fill-opacity:0.0; 
stroke:#000000; stroke-width:39.3701; stroke-opacity:1; 
stroke-linecap:round; stroke-linejoin:round;">
</g>
<g style="fill:#000000; fill-opacity:0.0; 
stroke:#000000; stroke-width:59.0551; stroke-opacity:1; 
stroke-linecap:round; stroke-linejoin:round;">
<path d="M43307 77955
L43307 78742
" />
</g>
<g style="fill:#000000; fill-opacity:0.0; 
stroke:#000000; stroke-width:39.3701; stroke-opacity:1; 
stroke-linecap:round; stroke-linejoin:round;">
</g>
<g style="fill:#000000; fill-opacity:0.0; 
stroke:#000000; stroke-width:59.0551; stroke-opacity:1; 
stroke-linecap:round; stroke-linejoin:round;">
<path d="M62992 77955
L62992 78742
" />
</g>
<g style="fill:#000000; fill-opacity:0.0; 
stroke:#000000; stroke-width:39.3701; stroke-opacity:1; 
stroke-linecap:round; stroke-linejoin:round;">
</g>
<g style="fill:#000000; fill-opacity:0.0; 
stroke:#000000; stroke-width:59.0551; stroke-opacity:1; 
stroke-linecap:round; stroke-linejoin:round;">
<path d="M82677 77955
L82677 78742
" />
</g>
<g style="fill:#000000; fill-opacity:0.0; 
stroke:#000000; stroke-width:39.3701; stroke-opacity:1; 
stroke-linecap:round; stroke-linejoin:round;">
</g>
<g style="fill:#000000; fill-opacity:0.0; 
stroke:#000000; stroke-width:59.0551; stroke-opacity:1; 
stroke-linecap:round; stroke-linejoin:round;">
<path d="M102362 77955
L102362 78742
" />
</g>
<g style="fill:#000000; fill-opacity:0.0; 
stroke:#000000; stroke-width:39.3701; stroke-opacity:1; 
stroke-linecap:round; stroke-linejoin:round;">
</g>
<g style="fill:#000000; fill-opacity:0.0; 
stroke:#000000; stroke-width:59.0551; stroke-opacity:1; 
stroke-linecap:round; stroke-linejoin:round;">
<path d="M14199 78580
L13906 78580
" />
<path d="M14052 78580
L14052 78069
L14004 78142
L13955 78190
L13906 78215
" />
</g>
<g style="fill:#000000; fill-opacity:0.0; 
stroke:#000000; stroke-width:39.3701; stroke-opacity:1; 
stroke-linecap:round; stroke-linejoin:round;">
</g>
<g style="fill:#000000; fill-opacity:0.0; 
stroke:#000000; stroke-width:59.0551; stroke-opacity:1; 
stroke-linecap:round; stroke-linejoin:round;">
<path d="M33591 78117
L33615 78093
L33664 78069
L33786 78069
L33835 78093
L33859 78117
L33884 78166
L33884 78215
L33859 78288
L33567 78580
L33884 78580
" />
</g>
<g style="fill:#000000; fill-opacity:0.0; 
stroke:#000000; stroke-width:39.3701; stroke-opacity:1; 
stroke-linecap:round; stroke-linejoin:round;">
</g>
<g style="fill:#000000; fill-opacity:0.0; 
stroke:#000000; stroke-width:59.0551; stroke-opacity:1; 
stroke-linecap:round; stroke-linejoin:round;">
<path d="M53252 78069
L53569 78069
L53398 78263
L53471 78263
L53520 78288
L53544 78312
L53569 78361
L53569 78483
L53544 78532
L53520 78556
L53471 78580
L53325 78580
L53276 78556
L53252 78532
" />
</g>
<g style="fill:#000000; fill-opacity:0.0; 
stroke:#000000; stroke-width:39.3701; stroke-opacity:1; 
stroke-linecap:round; stroke-linejoin:round;">
</g>
<g style="fill:#000000; fill-opacity:0.0; 
stroke:#000000; stroke-width:59.0551; stroke-opacity:1; 
stroke-linecap:round; stroke-linejoin:round;">
<path d="M73205 78239
L73205 78580
" />
<path d="M73083 78044
L72961 78410
L73278 78410
" />
</g>
<g style="fill:#000000; fill-opacity:0.0; 
stroke:#000000; stroke-width:39.3701; stroke-opacity:1; 
stroke-linecap:round; stroke-linejoin:round;">
</g>
<g style="fill:#000000; fill-opacity:0.0; 
stroke:#000000; stroke-width:59.0551; stroke-opacity:1; 
stroke-linecap:round; stroke-linejoin:round;">
<path d="M92914 78069
L92671 78069
L92646 78312
L92671 78288
L92719 78263
L92841 78263
L92890 78288
L92914 78312
L92939 78361
L92939 78483
L92914 78532
L92890 78556
L92841 78580
L92719 78580
L92671 78556
L92646 78532
" />
</g>
<g style="fill:#000000; fill-opacity:0.0; 
stroke:#000000; stroke-width:39.3701; stroke-opacity:1; 
stroke-linecap:round; stroke-linejoin:round;">
</g>
<g style="fill:#000000; fill-opacity:0.0; 
stroke:#000000; stroke-width:59.0551; stroke-opacity:1; 
stroke-linecap:round; stroke-linejoin:round;">
<path d="M112575 78069
L112477 78069
L112429 78093
L112404 78117
L112356 78190
L112331 78288
L112331 78483
L112356 78532
L112380 78556
L112429 78580
L112526 78580
L112575 78556
L112599 78532
L112624 78483
L112624 78361
L112599 78312
L112575 78288
L112526 78263
L112429 78263
L112380 78288
L112356 78312
L112331 78361
" />
</g>
<g style="fill:#000000; fill-opacity:0.0; 
stroke:#000000; stroke-width:39.3701; stroke-opacity:1; 
stroke-linecap:round; stroke-linejoin:round;">
</g>
<g style="fill:#000000; fill-opacity:0.0; 
stroke:#000000; stroke-width:59.0551; stroke-opacity:1; 
stroke-linecap:round; stroke-linejoin:round;">
<path d="M3937 23622
L4724 23622
" />
</g>
<g style="fill:#000000; fill-opacity:0.0; 
stroke:#000000; stroke-width:39.3701; stroke-opacity:1; 
stroke-linecap:round; stroke-linejoin:round;">
</g>
<g style="fill:#000000; fill-opacity:0.0; 
stroke:#000000; stroke-width:59.0551; stroke-opacity:1; 
stroke-linecap:round; stroke-linejoin:round;">
<path d="M3937 43307
L4724 43307
" />
</g>
<g style="fill:#000000; fill-opacity:0.0; 
stroke:#000000; stroke-width:39.3701; stroke-opacity:1; 
stroke-linecap:round; stroke-linejoin:round;">
</g>
<g style="fill:#000000; fill-opacity:0.0; 
stroke:#000000; stroke-width:59.0551; stroke-opacity:1; 
stroke-linecap:round; stroke-linejoin:round;">
<path d="M3937 62992
L4724 62992
" />
</g>
<g style="fill:#000000; fill-opacity:0.0; 
stroke:#000000; stroke-width:39.3701; stroke-opacity:1; 
stroke-linecap:round; stroke-linejoin:round;">
</g>
<g style="fill:#000000; fill-opacity:0.0; 
stroke:#000000; stroke-width:59.0551; stroke-opacity:1; 
stroke-linecap:round; stroke-linejoin:round;">
<path d="M4208 13864
L4452 13864
" />
<path d="M4160 14011
L4330 13499
L4501 14011
" />
</g>
<g style="fill:#000000; fill-opacity:0.0; 
stroke:#000000; stroke-width:39.3701; stroke-opacity:1; 
stroke-linecap:round; stroke-linejoin:round;">
</g>
<g style="fill:#000000; fill-opacity:0.0; 
stroke:#000000; stroke-width:59.0551; stroke-opacity:1; 
stroke-linecap:round; stroke-linejoin:round;">
<path d="M4367 33428
L4440 33452
L4464 33476
L4489 33525
L4489 33598
L4464 33647
L4440 33671
L4391 33696
L4196 33696
L4196 33184
L4367 33184
L4416 33208
L4440 33233
L4464 33281
L4464 33330
L4440 33379
L4416 33403
L4367 33428
L4196 33428
" />
</g>
<g style="fill:#000000; fill-opacity:0.0; 
stroke:#000000; stroke-width:39.3701; stroke-opacity:1; 
stroke-linecap:round; stroke-linejoin:round;">
</g>
<g style="fill:#000000; fill-opacity:0.0; 
stroke:#000000; stroke-width:59.0551; stroke-opacity:1; 
stroke-linecap:round; stroke-linejoin:round;">
<path d="M4489 53332
L4464 53356
L4391 53381
L4342 53381
L4269 53356
L4221 53308
L4196 53259
L4172 53161
L4172 53088
L4196 52991
L4221 52942
L4269 52893
L4342 52869
L4391 52869
L4464 52893
L4489 52918
" />
</g>
<g style="fill:#000000; fill-opacity:0.0; 
stroke:#000000; stroke-width:39.3701; stroke-opacity:1; 
stroke-linecap:round; stroke-linejoin:round;">
</g>
<g style="fill:#000000; fill-opacity:0.0; 
stroke:#000000; stroke-width:59.0551; stroke-opacity:1; 
stroke-linecap:round; stroke-linejoin:round;">
<path d="M4196 73066
L4196 72554
L4318 72554
L4391 72578
L4440 72627
L4464 72676
L4489 72773
L4489 72846
L4464 72944
L4440 72993
L4391 73041
L4318 73066
L4196 73066
" />
</g>
<g style="fill:#000000; fill-opacity:0.0; 
stroke:#000000; stroke-width:39.3701; stroke-opacity:1; 
stroke-linecap:round; stroke-linejoin:round;">
</g>
<g style="fill:#000000; fill-opacity:0.0; 
stroke:#000000; stroke-width:59.0551; stroke-opacity:1; 
stroke-linecap:round; stroke-linejoin:round;">
<path d="M112992 23622
L112205 23622
" />
</g>
<g style="fill:#000000; fill-opacity:0.0; 
stroke:#000000; stroke-width:39.3701; stroke-opacity:1; 
stroke-linecap:round; stroke-linejoin:round;">
</g>
<g style="fill:#000000; fill-opacity:0.0; 
stroke:#000000; stroke-width:59.0551; stroke-opacity:1; 
stroke-linecap:round; stroke-linejoin:round;">
<path d="M112992 43307
L112205 43307
" />
</g>
<g style="fill:#000000; fill-opacity:0.0; 
stroke:#000000; stroke-width:39.3701; stroke-opacity:1; 
stroke-linecap:round; stroke-linejoin:round;">
</g>
<g style="fill:#000000; fill-opacity:0.0; 
stroke:#000000; stroke-width:59.0551; stroke-opacity:1; 
stroke-linecap:round; stroke-linejoin:round;">
<path d="M112992 62992
L112205 62992
" />
</g>
<g style="fill:#000000; fill-opacity:0.0; 
stroke:#000000; stroke-width:39.3701; stroke-opacity:1; 
stroke-linecap:round; stroke-linejoin:round;">
</g>
<g style="fill:#000000; fill-opacity:0.0; 
stroke:#000000; stroke-width:59.0551; stroke-opacity:1; 
stroke-linecap:round; stroke-linejoin:round;">
<path d="M112477 13864
L112721 13864
" />
<path d="M112428 14011
L112599 13499
L112769 14011
" />
</g>
<g style="fill:#000000; fill-opacity:0.0; 
stroke:#000000; stroke-width:39.3701; stroke-opacity:1; 
stroke-linecap:round; stroke-linejoin:round;">
</g>
<g style="fill:#000000; fill-opacity:0.0; 
stroke:#000000; stroke-width:59.0551; stroke-opacity:1; 
stroke-linecap:round; stroke-linejoin:round;">
<path d="M112635 33428
L112708 33452
L112733 33476
L112757 33525
L112757 33598
L112733 33647
L112708 33671
L112660 33696
L112465 33696
L112465 33184
L112635 33184
L112684 33208
L112708 33233
L112733 33281
L112733 33330
L112708 33379
L112684 33403
L112635 33428
L112465 33428
" />
</g>
<g style="fill:#000000; fill-opacity:0.0; 
stroke:#000000; stroke-width:39.3701; stroke-opacity:1; 
stroke-linecap:round; stroke-linejoin:round;">
</g>
<g style="fill:#000000; fill-opacity:0.0; 
stroke:#000000; stroke-width:59.0551; stroke-opacity:1; 
stroke-linecap:round; stroke-linejoin:round;">
<path d="M112757 53332
L112733 53356
L112660 53381
L112611 53381
L112538 53356
L112489 53308
L112465 53259
L112440 53161
L112440 53088
L112465 52991
L112489 52942
L112538 52893
L112611 52869
L112660 52869
L112733 52893
L112757 52918
" />
</g>
<g style="fill:#000000; fill-opacity:0.0; 
stroke:#000000; stroke-width:39.3701; stroke-opacity:1; 
stroke-linecap:round; stroke-linejoin:round;">
</g>
<g style="fill:#000000; fill-opacity:0.0; 
stroke:#000000; stroke-width:59.0551; stroke-opacity:1; 
stroke-linecap:round; stroke-linejoin:round;">
<path d="M112465 73066
L112465 72554
L112587 72554
L112660 72578
L112708 72627
L112733 72676
L112757 72773
L112757 72846
L112733 72944
L112708 72993
L112660 73041
L112587 73066
L112465 73066
" />
</g>
<g style="fill:#000000; fill-opacity:0.0; 
stroke:#000000; stroke-width:39.3701; stroke-opacity:1; 
stroke-linecap:round; stroke-linejoin:round;">
</g>
<g style="fill:#000000; fill-opacity:0.0; 
stroke:#000000; stroke-width:59.0551; stroke-opacity:1; 
stroke-linecap:round; stroke-linejoin:round;">
<path d="M78911 76293
L78911 75703
L79051 75703
L79136 75731
L79192 75787
L79220 75843
L79248 75956
L79248 76040
L79220 76153
L79192 76209
L79136 76265
L79051 76293
L78911 76293
" />
<path d="M79754 76293
L79754 75984
L79726 75928
L79670 75899
L79557 75899
L79501 75928
" />
<path d="M79754 76265
L79698 76293
L79557 76293
L79501 76265
L79473 76209
L79473 76153
L79501 76096
L79557 76068
L79698 76068
L79754 76040
" />
<path d="M79951 75899
L80176 75899
" />
<path d="M80036 75703
L80036 76209
L80064 76265
L80120 76293
L80176 76293
" />
<path d="M80598 76265
L80542 76293
L80429 76293
L80373 76265
L80345 76209
L80345 75984
L80373 75928
L80429 75899
L80542 75899
L80598 75928
L80626 75984
L80626 76040
L80345 76096
" />
<path d="M80879 76237
L80907 76265
L80879 76293
L80851 76265
L80879 76237
L80879 76293
" />
<path d="M80879 75928
L80907 75956
L80879 75984
L80851 75956
L80879 75928
L80879 75984
" />
</g>
<g style="fill:#000000; fill-opacity:0.0; 
stroke:#000000; stroke-width:39.3701; stroke-opacity:1; 
stroke-linecap:round; stroke-linejoin:round;">
</g>
<g style="fill:#000000; fill-opacity:0.0; 
stroke:#000000; stroke-width:59.0551; stroke-opacity:1; 
stroke-linecap:round; stroke-linejoin:round;">
<path d="M69685 76577
L112205 76577
" />
</g>
<g style="fill:#000000; fill-opacity:0.0; 
stroke:#000000; stroke-width:39.3701; stroke-opacity:1; 
stroke-linecap:round; stroke-linejoin:round;">
</g>
<g style="fill:#000000; fill-opacity:0.0; 
stroke:#000000; stroke-width:59.0551; stroke-opacity:1; 
stroke-linecap:round; stroke-linejoin:round;">
<path d="M70249 77395
L70249 76805
" />
<path d="M70587 77395
L70334 77058
" />
<path d="M70587 76805
L70249 77142
" />
<path d="M70840 77395
L70840 77002
" />
<path d="M70840 76805
L70812 76833
L70840 76861
L70868 76833
L70840 76805
L70840 76861
" />
<path d="M71458 77339
L71430 77367
L71346 77395
L71290 77395
L71205 77367
L71149 77311
L71121 77255
L71093 77142
L71093 77058
L71121 76946
L71149 76889
L71205 76833
L71290 76805
L71346 76805
L71430 76833
L71458 76861
" />
<path d="M71965 77395
L71965 77086
L71937 77030
L71880 77002
L71768 77002
L71712 77030
" />
<path d="M71965 77367
L71908 77395
L71768 77395
L71712 77367
L71683 77311
L71683 77255
L71712 77199
L71768 77171
L71908 77171
L71965 77142
" />
<path d="M72499 77395
L72499 76805
" />
<path d="M72499 77367
L72443 77395
L72330 77395
L72274 77367
L72246 77339
L72218 77283
L72218 77114
L72246 77058
L72274 77030
L72330 77002
L72443 77002
L72499 77030
" />
<path d="M73230 77086
L73427 77086
" />
<path d="M73511 77395
L73230 77395
L73230 76805
L73511 76805
" />
<path d="M73764 77339
L73793 77367
L73764 77395
L73736 77367
L73764 77339
L73764 77395
" />
<path d="M74046 77395
L74046 76805
L74186 76805
L74271 76833
L74327 76889
L74355 76946
L74383 77058
L74383 77142
L74355 77255
L74327 77311
L74271 77367
L74186 77395
L74046 77395
" />
<path d="M74636 77339
L74664 77367
L74636 77395
L74608 77367
L74636 77339
L74636 77395
" />
<path d="M74889 77227
L75171 77227
" />
<path d="M74833 77395
L75030 76805
L75227 77395
" />
<path d="M75424 77339
L75452 77367
L75424 77395
L75395 77367
L75424 77339
L75424 77395
" />
<path d="M76605 77395
L76605 76805
" />
<path d="M76661 77171
L76830 77395
" />
<path d="M76830 77002
L76605 77227
" />
<path d="M77083 77395
L77083 77002
" />
<path d="M77083 76805
L77055 76833
L77083 76861
L77111 76833
L77083 76805
L77083 76861
" />
<path d="M77617 77367
L77561 77395
L77448 77395
L77392 77367
L77364 77339
L77336 77283
L77336 77114
L77364 77058
L77392 77030
L77448 77002
L77561 77002
L77617 77030
" />
<path d="M78123 77395
L78123 77086
L78095 77030
L78039 77002
L77926 77002
L77870 77030
" />
<path d="M78123 77367
L78067 77395
L77926 77395
L77870 77367
L77842 77311
L77842 77255
L77870 77199
L77926 77171
L78067 77171
L78123 77142
" />
<path d="M78658 77395
L78658 76805
" />
<path d="M78658 77367
L78601 77395
L78489 77395
L78433 77367
L78404 77339
L78376 77283
L78376 77114
L78404 77058
L78433 77030
L78489 77002
L78601 77002
L78658 77030
" />
<path d="M79670 76805
L79389 76805
L79361 77086
L79389 77058
L79445 77030
L79586 77030
L79642 77058
L79670 77086
L79698 77142
L79698 77283
L79670 77339
L79642 77367
L79586 77395
L79445 77395
L79389 77367
L79361 77339
" />
<path d="M79951 77339
L79979 77367
L79951 77395
L79923 77367
L79951 77339
L79951 77395
" />
<path d="M80542 77395
L80204 77395
" />
<path d="M80373 77395
L80373 76805
L80317 76889
L80260 76946
L80204 76974
" />
<path d="M80795 77339
L80823 77367
L80795 77395
L80767 77367
L80795 77339
L80795 77395
" />
<path d="M81329 77002
L81329 77395
" />
<path d="M81188 76777
L81048 77199
L81413 77199
" />
<path d="M81638 77171
L82088 77171
" />
<path d="M82595 77367
L82538 77395
L82426 77395
L82370 77367
L82341 77311
L82341 77086
L82370 77030
L82426 77002
L82538 77002
L82595 77030
L82623 77086
L82623 77142
L82341 77199
" />
<path d="M83129 76805
L83016 76805
L82960 76833
L82932 76861
L82876 76946
L82848 77058
L82848 77283
L82876 77339
L82904 77367
L82960 77395
L83073 77395
L83129 77367
L83157 77339
L83185 77283
L83185 77142
L83157 77086
L83129 77058
L83073 77030
L82960 77030
L82904 77058
L82876 77086
L82848 77142
" />
<path d="M83551 76805
L83607 76805
L83663 76833
L83691 76861
L83719 76917
L83748 77030
L83748 77171
L83719 77283
L83691 77339
L83663 77367
L83607 77395
L83551 77395
L83494 77367
L83466 77339
L83438 77283
L83410 77171
L83410 77030
L83438 76917
L83466 76861
L83494 76833
L83551 76805
" />
<path d="M84001 77395
L84001 76805
" />
<path d="M84001 77030
L84057 77002
L84169 77002
L84226 77030
L84254 77058
L84282 77114
L84282 77283
L84254 77339
L84226 77367
L84169 77395
L84057 77395
L84001 77367
" />
<path d="M84507 76861
L84535 76833
L84591 76805
L84732 76805
L84788 76833
L84816 76861
L84844 76917
L84844 76974
L84816 77058
L84479 77395
L84844 77395
" />
<path d="M85350 76805
L85238 76805
L85182 76833
L85154 76861
L85097 76946
L85069 77058
L85069 77283
L85097 77339
L85126 77367
L85182 77395
L85294 77395
L85350 77367
L85379 77339
L85407 77283
L85407 77142
L85379 77086
L85350 77058
L85294 77030
L85182 77030
L85126 77058
L85097 77086
L85069 77142
" />
<path d="M85913 76805
L85800 76805
L85744 76833
L85716 76861
L85660 76946
L85632 77058
L85632 77283
L85660 77339
L85688 77367
L85744 77395
L85857 77395
L85913 77367
L85941 77339
L85969 77283
L85969 77142
L85941 77086
L85913 77058
L85857 77030
L85744 77030
L85688 77058
L85660 77086
L85632 77142
" />
<path d="M86082 76644
L86644 76644
" />
<path d="M86307 77058
L86250 77030
L86222 77002
L86194 76946
L86194 76917
L86222 76861
L86250 76833
L86307 76805
L86419 76805
L86475 76833
L86503 76861
L86532 76917
L86532 76946
L86503 77002
L86475 77030
L86419 77058
L86307 77058
L86250 77086
L86222 77114
L86194 77171
L86194 77283
L86222 77339
L86250 77367
L86307 77395
L86419 77395
L86475 77367
L86503 77339
L86532 77283
L86532 77171
L86503 77114
L86475 77086
L86419 77058
" />
<path d="M86644 76644
L87206 76644
" />
<path d="M87038 77002
L87038 77395
" />
<path d="M86897 76777
L86757 77199
L87122 77199
" />
<path d="M87600 77002
L87600 77395
" />
<path d="M87347 77002
L87347 77311
L87375 77367
L87431 77395
L87516 77395
L87572 77367
L87600 77339
" />
<path d="M87881 77395
L87881 76805
" />
<path d="M87881 77030
L87938 77002
L88050 77002
L88106 77030
L88135 77058
L88163 77114
L88163 77283
L88135 77339
L88106 77367
L88050 77395
L87938 77395
L87881 77367
" />
<path d="M88669 77002
L88669 77395
" />
<path d="M88416 77002
L88416 77311
L88444 77367
L88500 77395
L88584 77395
L88641 77367
L88669 77339
" />
<path d="M88950 77002
L88950 77395
" />
<path d="M88950 77058
L88978 77030
L89034 77002
L89119 77002
L89175 77030
L89203 77086
L89203 77395
" />
<path d="M89400 77002
L89625 77002
" />
<path d="M89484 76805
L89484 77311
L89512 77367
L89569 77395
L89625 77395
" />
<path d="M90075 77002
L90075 77395
" />
<path d="M89822 77002
L89822 77311
L89850 77367
L89906 77395
L89991 77395
L90047 77367
L90075 77339
" />
<path d="M90665 77395
L90328 77395
" />
<path d="M90497 77395
L90497 76805
L90440 76889
L90384 76946
L90328 76974
" />
<path d="M90947 77395
L91059 77395
L91115 77367
L91144 77339
L91200 77255
L91228 77142
L91228 76917
L91200 76861
L91172 76833
L91115 76805
L91003 76805
L90947 76833
L90919 76861
L90890 76917
L90890 77058
L90919 77114
L90947 77142
L91003 77171
L91115 77171
L91172 77142
L91200 77114
L91228 77058
" />
<path d="M91481 77339
L91509 77367
L91481 77395
L91453 77367
L91481 77339
L91481 77395
" />
<path d="M91875 76805
L91931 76805
L91987 76833
L92015 76861
L92043 76917
L92072 77030
L92072 77171
L92043 77283
L92015 77339
L91987 77367
L91931 77395
L91875 77395
L91818 77367
L91790 77339
L91762 77283
L91734 77171
L91734 77030
L91762 76917
L91790 76861
L91818 76833
L91875 76805
" />
<path d="M92578 77002
L92578 77395
" />
<path d="M92437 76777
L92296 77199
L92662 77199
" />
<path d="M92887 77339
L92915 77367
L92887 77395
L92859 77367
L92887 77339
L92887 77395
" />
<path d="M93478 77395
L93140 77395
" />
<path d="M93309 77395
L93309 76805
L93253 76889
L93196 76946
L93140 76974
" />
</g>
<g style="fill:#000000; fill-opacity:0.0; 
stroke:#000000; stroke-width:39.3701; stroke-opacity:1; 
stroke-linecap:round; stroke-linejoin:round;">
</g>
<g style="fill:#000000; fill-opacity:0.0; 
stroke:#000000; stroke-width:59.0551; stroke-opacity:1; 
stroke-linecap:round; stroke-linejoin:round;">
<path d="M69685 75396
L112205 75396
" />
</g>
<g style="fill:#000000; fill-opacity:0.0; 
stroke:#000000; stroke-width:39.3701; stroke-opacity:1; 
stroke-linecap:round; stroke-linejoin:round;">
</g>
<g style="fill:#000000; fill-opacity:0.0; 
stroke:#000000; stroke-width:118.11; stroke-opacity:1; 
stroke-linecap:round; stroke-linejoin:round;">
<path d="M104099 76293
L103902 76012
" />
<path d="M103761 76293
L103761 75703
L103986 75703
L104042 75731
L104070 75759
L104099 75815
L104099 75899
L104070 75956
L104042 75984
L103986 76012
L103761 76012
" />
<path d="M104577 76265
L104520 76293
L104408 76293
L104352 76265
L104323 76209
L104323 75984
L104352 75928
L104408 75899
L104520 75899
L104577 75928
L104605 75984
L104605 76040
L104323 76096
" />
<path d="M104802 75899
L104942 76293
L105083 75899
" />
<path d="M105308 76237
L105336 76265
L105308 76293
L105280 76265
L105308 76237
L105308 76293
" />
<path d="M105308 75928
L105336 75956
L105308 75984
L105280 75956
L105308 75928
L105308 75984
" />
</g>
<g style="fill:#000000; fill-opacity:0.0; 
stroke:#000000; stroke-width:39.3701; stroke-opacity:1; 
stroke-linecap:round; stroke-linejoin:round;">
</g>
<g style="fill:#000000; fill-opacity:0.0; 
stroke:#000000; stroke-width:59.0551; stroke-opacity:1; 
stroke-linecap:round; stroke-linejoin:round;">
<path d="M70221 76265
L70305 76293
L70446 76293
L70502 76265
L70530 76237
L70559 76181
L70559 76124
L70530 76068
L70502 76040
L70446 76012
L70334 75984
L70277 75956
L70249 75928
L70221 75871
L70221 75815
L70249 75759
L70277 75731
L70334 75703
L70474 75703
L70559 75731
" />
<path d="M70812 76293
L70812 75899
" />
<path d="M70812 75703
L70784 75731
L70812 75759
L70840 75731
L70812 75703
L70812 75759
" />
<path d="M71037 75899
L71346 75899
L71037 76293
L71346 76293
" />
<path d="M71796 76265
L71740 76293
L71627 76293
L71571 76265
L71543 76209
L71543 75984
L71571 75928
L71627 75899
L71740 75899
L71796 75928
L71824 75984
L71824 76040
L71543 76096
" />
<path d="M72077 76237
L72105 76265
L72077 76293
L72049 76265
L72077 76237
L72077 76293
" />
<path d="M72077 75928
L72105 75956
L72077 75984
L72049 75956
L72077 75928
L72077 75984
" />
<path d="M72780 76124
L73061 76124
" />
<path d="M72724 76293
L72921 75703
L73118 76293
" />
<path d="M73568 75899
L73568 76293
" />
<path d="M73427 75674
L73286 76096
L73652 76096
" />
</g>
<g style="fill:#000000; fill-opacity:0.0; 
stroke:#000000; stroke-width:39.3701; stroke-opacity:1; 
stroke-linecap:round; stroke-linejoin:round;">
</g>
<g style="fill:#000000; fill-opacity:0.0; 
stroke:#000000; stroke-width:59.0551; stroke-opacity:1; 
stroke-linecap:round; stroke-linejoin:round;">
<path d="M103714 77395
L103714 76805
" />
<path d="M104248 77395
L104248 76805
" />
<path d="M104248 77367
L104192 77395
L104079 77395
L104023 77367
L103995 77339
L103967 77283
L103967 77114
L103995 77058
L104023 77030
L104079 77002
L104192 77002
L104248 77030
" />
<path d="M104529 77339
L104557 77367
L104529 77395
L104501 77367
L104529 77339
L104529 77395
" />
<path d="M104529 77030
L104557 77058
L104529 77086
L104501 77058
L104529 77030
L104529 77086
" />
<path d="M105570 77395
L105232 77395
" />
<path d="M105401 77395
L105401 76805
L105345 76889
L105289 76946
L105232 76974
" />
<path d="M106245 76777
L105739 77536
" />
<path d="M106751 77395
L106413 77395
" />
<path d="M106582 77395
L106582 76805
L106526 76889
L106470 76946
L106413 76974
" />
</g>
<g style="fill:#000000; fill-opacity:0.0; 
stroke:#000000; stroke-width:39.3701; stroke-opacity:1; 
stroke-linecap:round; stroke-linejoin:round;">
</g>
<g style="fill:#000000; fill-opacity:0.0; 
stroke:#000000; stroke-width:59.0551; stroke-opacity:1; 
stroke-linecap:round; stroke-linejoin:round;">
<path d="M69685 73821
L112205 73821
" />
</g>
<g style="fill:#000000; fill-opacity:0.0; 
stroke:#000000; stroke-width:39.3701; stroke-opacity:1; 
stroke-linecap:round; stroke-linejoin:round;">
</g>
<g style="fill:#000000; fill-opacity:0.0; 
stroke:#000000; stroke-width:157.48; stroke-opacity:1; 
stroke-linecap:round; stroke-linejoin:round;">
<path d="M70360 74099
L70810 74099
" />
<path d="M70486 74886
L70585 74099
" />
<path d="M70974 74886
L71039 74361
" />
<path d="M71072 74099
L71030 74136
L71063 74174
L71105 74136
L71072 74099
L71063 74174
" />
<path d="M71302 74361
L71602 74361
" />
<path d="M71447 74099
L71363 74774
L71391 74849
L71461 74886
L71536 74886
" />
<path d="M71911 74886
L71841 74849
L71813 74774
L71897 74099
" />
<path d="M72516 74849
L72436 74886
L72286 74886
L72216 74849
L72187 74774
L72225 74474
L72272 74399
L72352 74361
L72501 74361
L72572 74399
L72600 74474
L72591 74549
L72206 74624
" />
<path d="M72895 74811
L72928 74849
L72886 74886
L72853 74849
L72895 74811
L72886 74886
" />
<path d="M72947 74399
L72980 74436
L72937 74474
L72905 74436
L72947 74399
L72937 74474
" />
</g>
<g style="fill:#000000; fill-opacity:0.0; 
stroke:#000000; stroke-width:39.3701; stroke-opacity:1; 
stroke-linecap:round; stroke-linejoin:round;">
</g>
<g style="fill:#000000; fill-opacity:0.0; 
stroke:#000000; stroke-width:59.0551; stroke-opacity:1; 
stroke-linecap:round; stroke-linejoin:round;">
<path d="M70446 73070
L70249 73070
" />
<path d="M70249 73380
L70249 72789
L70530 72789
" />
<path d="M70755 73380
L70755 72986
" />
<path d="M70755 72789
L70727 72817
L70755 72845
L70784 72817
L70755 72789
L70755 72845
" />
<path d="M71121 73380
L71065 73352
L71037 73295
L71037 72789
" />
<path d="M71571 73352
L71515 73380
L71402 73380
L71346 73352
L71318 73295
L71318 73070
L71346 73014
L71402 72986
L71515 72986
L71571 73014
L71599 73070
L71599 73127
L71318 73183
" />
<path d="M71852 73323
L71880 73352
L71852 73380
L71824 73352
L71852 73323
L71852 73380
" />
<path d="M71852 73014
L71880 73042
L71852 73070
L71824 73042
L71852 73014
L71852 73070
" />
<path d="M72499 72986
L72724 72986
" />
<path d="M72583 72789
L72583 73295
L72611 73352
L72668 73380
L72724 73380
" />
<path d="M73146 73352
L73090 73380
L72977 73380
L72921 73352
L72893 73295
L72893 73070
L72921 73014
L72977 72986
L73090 72986
L73146 73014
L73174 73070
L73174 73127
L72893 73183
" />
<path d="M73427 73380
L73427 72986
" />
<path d="M73427 73042
L73455 73014
L73511 72986
L73596 72986
L73652 73014
L73680 73070
L73680 73380
" />
<path d="M73680 73070
L73708 73014
L73764 72986
L73849 72986
L73905 73014
L73933 73070
L73933 73380
" />
<path d="M74214 72986
L74214 73577
" />
<path d="M74214 73014
L74271 72986
L74383 72986
L74439 73014
L74467 73042
L74496 73099
L74496 73267
L74467 73323
L74439 73352
L74383 73380
L74271 73380
L74214 73352
" />
<path d="M74608 73436
L75058 73436
" />
<path d="M75199 73380
L75199 72986
" />
<path d="M75199 73042
L75227 73014
L75283 72986
L75367 72986
L75424 73014
L75452 73070
L75452 73380
" />
<path d="M75452 73070
L75480 73014
L75536 72986
L75620 72986
L75677 73014
L75705 73070
L75705 73380
" />
<path d="M76070 73380
L76014 73352
L75986 73323
L75958 73267
L75958 73099
L75986 73042
L76014 73014
L76070 72986
L76155 72986
L76211 73014
L76239 73042
L76267 73099
L76267 73267
L76239 73323
L76211 73352
L76155 73380
L76070 73380
" />
<path d="M76520 72986
L76520 73380
" />
<path d="M76520 73042
L76548 73014
L76605 72986
L76689 72986
L76745 73014
L76773 73070
L76773 73380
" />
<path d="M77055 73380
L77055 72986
" />
<path d="M77055 72789
L77027 72817
L77055 72845
L77083 72817
L77055 72789
L77055 72845
" />
<path d="M77251 72986
L77476 72986
" />
<path d="M77336 72789
L77336 73295
L77364 73352
L77420 73380
L77476 73380
" />
<path d="M77758 73380
L77701 73352
L77673 73323
L77645 73267
L77645 73099
L77673 73042
L77701 73014
L77758 72986
L77842 72986
L77898 73014
L77926 73042
L77955 73099
L77955 73267
L77926 73323
L77898 73352
L77842 73380
L77758 73380
" />
<path d="M78208 73380
L78208 72986
" />
<path d="M78208 73099
L78236 73042
L78264 73014
L78320 72986
L78376 72986
" />
<path d="M78573 73323
L78601 73352
L78573 73380
L78545 73352
L78573 73323
L78573 73380
" />
<path d="M78854 73380
L78854 72789
" />
<path d="M78911 73155
L79079 73380
" />
<path d="M79079 72986
L78854 73211
" />
<path d="M79332 73380
L79332 72986
" />
<path d="M79332 72789
L79304 72817
L79332 72845
L79361 72817
L79332 72789
L79332 72845
" />
<path d="M79867 73352
L79811 73380
L79698 73380
L79642 73352
L79614 73323
L79586 73267
L79586 73099
L79614 73042
L79642 73014
L79698 72986
L79811 72986
L79867 73014
" />
<path d="M80373 73380
L80373 73070
L80345 73014
L80289 72986
L80176 72986
L80120 73014
" />
<path d="M80373 73352
L80317 73380
L80176 73380
L80120 73352
L80092 73295
L80092 73239
L80120 73183
L80176 73155
L80317 73155
L80373 73127
" />
<path d="M80907 73380
L80907 72789
" />
<path d="M80907 73352
L80851 73380
L80739 73380
L80682 73352
L80654 73323
L80626 73267
L80626 73099
L80654 73042
L80682 73014
L80739 72986
L80851 72986
L80907 73014
" />
<path d="M81048 73436
L81498 73436
" />
<path d="M81638 72986
L81638 73577
" />
<path d="M81638 73014
L81695 72986
L81807 72986
L81863 73014
L81892 73042
L81920 73099
L81920 73267
L81892 73323
L81863 73352
L81807 73380
L81695 73380
L81638 73352
" />
<path d="M82426 73352
L82370 73380
L82257 73380
L82201 73352
L82173 73323
L82145 73267
L82145 73099
L82173 73042
L82201 73014
L82257 72986
L82370 72986
L82426 73014
" />
<path d="M82679 73380
L82679 72789
" />
<path d="M82679 73014
L82735 72986
L82848 72986
L82904 73014
L82932 73042
L82960 73099
L82960 73267
L82932 73323
L82904 73352
L82848 73380
L82735 73380
L82679 73352
" />
</g>
<g style="fill:#000000; fill-opacity:0.0; 
stroke:#000000; stroke-width:39.3701; stroke-opacity:1; 
stroke-linecap:round; stroke-linejoin:round;">
</g>
<g style="fill:#000000; fill-opacity:0.0; 
stroke:#000000; stroke-width:59.0551; stroke-opacity:1; 
stroke-linecap:round; stroke-linejoin:round;">
<path d="M69685 71459
L112205 71459
" />
</g>
<g style="fill:#000000; fill-opacity:0.0; 
stroke:#000000; stroke-width:39.3701; stroke-opacity:1; 
stroke-linecap:round; stroke-linejoin:round;">
</g>
<g style="fill:#000000; fill-opacity:0.0; 
stroke:#000000; stroke-width:59.0551; stroke-opacity:1; 
stroke-linecap:round; stroke-linejoin:round;">
<path d="M70221 72289
L70305 72317
L70446 72317
L70502 72289
L70530 72260
L70559 72204
L70559 72148
L70530 72092
L70502 72064
L70446 72036
L70334 72007
L70277 71979
L70249 71951
L70221 71895
L70221 71839
L70249 71782
L70277 71754
L70334 71726
L70474 71726
L70559 71754
" />
<path d="M70812 72317
L70812 71726
" />
<path d="M71065 72317
L71065 72007
L71037 71951
L70980 71923
L70896 71923
L70840 71951
L70812 71979
" />
<path d="M71571 72289
L71515 72317
L71402 72317
L71346 72289
L71318 72232
L71318 72007
L71346 71951
L71402 71923
L71515 71923
L71571 71951
L71599 72007
L71599 72064
L71318 72120
" />
<path d="M72077 72289
L72021 72317
L71908 72317
L71852 72289
L71824 72232
L71824 72007
L71852 71951
L71908 71923
L72021 71923
L72077 71951
L72105 72007
L72105 72064
L71824 72120
" />
<path d="M72274 71923
L72499 71923
" />
<path d="M72358 71726
L72358 72232
L72386 72289
L72443 72317
L72499 72317
" />
<path d="M72696 72260
L72724 72289
L72696 72317
L72668 72289
L72696 72260
L72696 72317
" />
<path d="M72696 71951
L72724 71979
L72696 72007
L72668 71979
L72696 71951
L72696 72007
" />
</g>
<g style="fill:#000000; fill-opacity:0.0; 
stroke:#000000; stroke-width:39.3701; stroke-opacity:1; 
stroke-linecap:round; stroke-linejoin:round;">
</g>
<g style="fill:#000000; fill-opacity:0.0; 
stroke:#000000; stroke-width:59.0551; stroke-opacity:1; 
stroke-linecap:round; stroke-linejoin:round;">
<path d="M77559 75396
L77559 76577
" />
</g>
<g style="fill:#000000; fill-opacity:0.0; 
stroke:#000000; stroke-width:39.3701; stroke-opacity:1; 
stroke-linecap:round; stroke-linejoin:round;">
</g>
<g style="fill:#000000; fill-opacity:0.0; 
stroke:#000000; stroke-width:59.0551; stroke-opacity:1; 
stroke-linecap:round; stroke-linejoin:round;">
<path d="M102756 75396
L102756 77955
" />
<g >
</g>
<g style="fill:#840000; fill-opacity:0.0; 
stroke:#840000; stroke-width:59.0551; stroke-opacity:1; 
stroke-linecap:round; stroke-linejoin:round;">
</g>
<g style="fill:#840000; fill-opacity:0.0; 
stroke:#840000; stroke-width:0; stroke-opacity:1; 
stroke-linecap:round; stroke-linejoin:round;">
</g>
<g style="fill:#840000; fill-opacity:1.0; 
stroke:#840000; stroke-width:0; stroke-opacity:1; 
stroke-linecap:round; stroke-linejoin:round;">
<path style="fill:#840000; fill-opacity:1.0; 
stroke:#840000; stroke-width:0; stroke-opacity:1; 
stroke-linecap:round; stroke-linejoin:round;fill-rule:evenodd;"
d="M 48622,39187
48622,37218
50590,37218
50590,39187
48622,39187
Z" /> 
<path style="fill:#840000; fill-opacity:1.0; 
stroke:#840000; stroke-width:0; stroke-opacity:1; 
stroke-linecap:round; stroke-linejoin:round;fill-rule:evenodd;"
d="M 46259,35427
46259,35072
47047,35072
47047,35427
46259,35427
Z" /> 
<path style="fill:#840000; fill-opacity:1.0; 
stroke:#840000; stroke-width:0; stroke-opacity:1; 
stroke-linecap:round; stroke-linejoin:round;fill-rule:evenodd;"
d="M 46259,35927
46259,35572
47047,35572
47047,35927
46259,35927
Z" /> 
<path style="fill:#840000; fill-opacity:1.0; 
stroke:#840000; stroke-width:0; stroke-opacity:1; 
stroke-linecap:round; stroke-linejoin:round;fill-rule:evenodd;"
d="M 46259,36427
46259,36072
47047,36072
47047,36427
46259,36427
Z" /> 
<path style="fill:#840000; fill-opacity:1.0; 
stroke:#840000; stroke-width:0; stroke-opacity:1; 
stroke-linecap:round; stroke-linejoin:round;fill-rule:evenodd;"
d="M 46259,36927
46259,36572
47047,36572
47047,36927
46259,36927
Z" /> 
<path style="fill:#840000; fill-opacity:1.0; 
stroke:#840000; stroke-width:0; stroke-opacity:1; 
stroke-linecap:round; stroke-linejoin:round;fill-rule:evenodd;"
d="M 46259,37427
46259,37072
47047,37072
47047,37427
46259,37427
Z" /> 
<path style="fill:#840000; fill-opacity:1.0; 
stroke:#840000; stroke-width:0; stroke-opacity:1; 
stroke-linecap:round; stroke-linejoin:round;fill-rule:evenodd;"
d="M 46259,37927
46259,37572
47047,37572
47047,37927
46259,37927
Z" /> 
<path style="fill:#840000; fill-opacity:1.0; 
stroke:#840000; stroke-width:0; stroke-opacity:1; 
stroke-linecap:round; stroke-linejoin:round;fill-rule:evenodd;"
d="M 46259,38427
46259,38072
47047,38072
47047,38427
46259,38427
Z" /> 
<path style="fill:#840000; fill-opacity:1.0; 
stroke:#840000; stroke-width:0; stroke-opacity:1; 
stroke-linecap:round; stroke-linejoin:round;fill-rule:evenodd;"
d="M 46259,38927
46259,38572
47047,38572
47047,38927
46259,38927
Z" /> 
<path style="fill:#840000; fill-opacity:1.0; 
stroke:#840000; stroke-width:0; stroke-opacity:1; 
stroke-linecap:round; stroke-linejoin:round;fill-rule:evenodd;"
d="M 46259,39427
46259,39072
47047,39072
47047,39427
46259,39427
Z" /> 
<path style="fill:#840000; fill-opacity:1.0; 
stroke:#840000; stroke-width:0; stroke-opacity:1; 
stroke-linecap:round; stroke-linejoin:round;fill-rule:evenodd;"
d="M 46259,39927
46259,39572
47047,39572
47047,39927
46259,39927
Z" /> 
<path style="fill:#840000; fill-opacity:1.0; 
stroke:#840000; stroke-width:0; stroke-opacity:1; 
stroke-linecap:round; stroke-linejoin:round;fill-rule:evenodd;"
d="M 46259,40427
46259,40072
47047,40072
47047,40427
46259,40427
Z" /> 
<path style="fill:#840000; fill-opacity:1.0; 
stroke:#840000; stroke-width:0; stroke-opacity:1; 
stroke-linecap:round; stroke-linejoin:round;fill-rule:evenodd;"
d="M 46259,40927
46259,40572
47047,40572
47047,40927
46259,40927
Z" /> 
<path style="fill:#840000; fill-opacity:1.0; 
stroke:#840000; stroke-width:0; stroke-opacity:1; 
stroke-linecap:round; stroke-linejoin:round;fill-rule:evenodd;"
d="M 46259,41427
46259,41072
47047,41072
47047,41427
46259,41427
Z" /> 
<path style="fill:#840000; fill-opacity:1.0; 
stroke:#840000; stroke-width:0; stroke-opacity:1; 
stroke-linecap:round; stroke-linejoin:round;fill-rule:evenodd;"
d="M 46259,41927
46259,41572
47047,41572
47047,41927
46259,41927
Z" /> 
<path style="fill:#840000; fill-opacity:1.0; 
stroke:#840000; stroke-width:0; stroke-opacity:1; 
stroke-linecap:round; stroke-linejoin:round;fill-rule:evenodd;"
d="M 47927,42537
47572,42537
47572,41750
47927,41750
47927,42537
Z" /> 
<path style="fill:#840000; fill-opacity:1.0; 
stroke:#840000; stroke-width:0; stroke-opacity:1; 
stroke-linecap:round; stroke-linejoin:round;fill-rule:evenodd;"
d="M 48427,42537
48072,42537
48072,41750
48427,41750
48427,42537
Z" /> 
<path style="fill:#840000; fill-opacity:1.0; 
stroke:#840000; stroke-width:0; stroke-opacity:1; 
stroke-linecap:round; stroke-linejoin:round;fill-rule:evenodd;"
d="M 48927,42537
48572,42537
48572,41750
48927,41750
48927,42537
Z" /> 
<path style="fill:#840000; fill-opacity:1.0; 
stroke:#840000; stroke-width:0; stroke-opacity:1; 
stroke-linecap:round; stroke-linejoin:round;fill-rule:evenodd;"
d="M 49427,42537
49072,42537
49072,41750
49427,41750
49427,42537
Z" /> 
<path style="fill:#840000; fill-opacity:1.0; 
stroke:#840000; stroke-width:0; stroke-opacity:1; 
stroke-linecap:round; stroke-linejoin:round;fill-rule:evenodd;"
d="M 49927,42537
49572,42537
49572,41750
49927,41750
49927,42537
Z" /> 
<path style="fill:#840000; fill-opacity:1.0; 
stroke:#840000; stroke-width:0; stroke-opacity:1; 
stroke-linecap:round; stroke-linejoin:round;fill-rule:evenodd;"
d="M 50427,42537
50072,42537
50072,41750
50427,41750
50427,42537
Z" /> 
<path style="fill:#840000; fill-opacity:1.0; 
stroke:#840000; stroke-width:0; stroke-opacity:1; 
stroke-linecap:round; stroke-linejoin:round;fill-rule:evenodd;"
d="M 50927,42537
50572,42537
50572,41750
50927,41750
50927,42537
Z" /> 
<path style="fill:#840000; fill-opacity:1.0; 
stroke:#840000; stroke-width:0; stroke-opacity:1; 
stroke-linecap:round; stroke-linejoin:round;fill-rule:evenodd;"
d="M 51427,42537
51072,42537
51072,41750
51427,41750
51427,42537
Z" /> 
<path style="fill:#840000; fill-opacity:1.0; 
stroke:#840000; stroke-width:0; stroke-opacity:1; 
stroke-linecap:round; stroke-linejoin:round;fill-rule:evenodd;"
d="M 51927,42537
51572,42537
51572,41750
51927,41750
51927,42537
Z" /> 
<path style="fill:#840000; fill-opacity:1.0; 
stroke:#840000; stroke-width:0; stroke-opacity:1; 
stroke-linecap:round; stroke-linejoin:round;fill-rule:evenodd;"
d="M 52427,42537
52072,42537
52072,41750
52427,41750
52427,42537
Z" /> 
<path style="fill:#840000; fill-opacity:1.0; 
stroke:#840000; stroke-width:0; stroke-opacity:1; 
stroke-linecap:round; stroke-linejoin:round;fill-rule:evenodd;"
d="M 52952,41927
52952,41572
53740,41572
53740,41927
52952,41927
Z" /> 
<path style="fill:#840000; fill-opacity:1.0; 
stroke:#840000; stroke-width:0; stroke-opacity:1; 
stroke-linecap:round; stroke-linejoin:round;fill-rule:evenodd;"
d="M 52952,41427
52952,41072
53740,41072
53740,41427
52952,41427
Z" /> 
<path style="fill:#840000; fill-opacity:1.0; 
stroke:#840000; stroke-width:0; stroke-opacity:1; 
stroke-linecap:round; stroke-linejoin:round;fill-rule:evenodd;"
d="M 52952,40927
52952,40572
53740,40572
53740,40927
52952,40927
Z" /> 
<path style="fill:#840000; fill-opacity:1.0; 
stroke:#840000; stroke-width:0; stroke-opacity:1; 
stroke-linecap:round; stroke-linejoin:round;fill-rule:evenodd;"
d="M 52952,40427
52952,40072
53740,40072
53740,40427
52952,40427
Z" /> 
<path style="fill:#840000; fill-opacity:1.0; 
stroke:#840000; stroke-width:0; stroke-opacity:1; 
stroke-linecap:round; stroke-linejoin:round;fill-rule:evenodd;"
d="M 52952,39927
52952,39572
53740,39572
53740,39927
52952,39927
Z" /> 
<path style="fill:#840000; fill-opacity:1.0; 
stroke:#840000; stroke-width:0; stroke-opacity:1; 
stroke-linecap:round; stroke-linejoin:round;fill-rule:evenodd;"
d="M 52952,39427
52952,39072
53740,39072
53740,39427
52952,39427
Z" /> 
<path style="fill:#840000; fill-opacity:1.0; 
stroke:#840000; stroke-width:0; stroke-opacity:1; 
stroke-linecap:round; stroke-linejoin:round;fill-rule:evenodd;"
d="M 52952,38927
52952,38572
53740,38572
53740,38927
52952,38927
Z" /> 
<path style="fill:#840000; fill-opacity:1.0; 
stroke:#840000; stroke-width:0; stroke-opacity:1; 
stroke-linecap:round; stroke-linejoin:round;fill-rule:evenodd;"
d="M 52952,38427
52952,38072
53740,38072
53740,38427
52952,38427
Z" /> 
<path style="fill:#840000; fill-opacity:1.0; 
stroke:#840000; stroke-width:0; stroke-opacity:1; 
stroke-linecap:round; stroke-linejoin:round;fill-rule:evenodd;"
d="M 52952,37927
52952,37572
53740,37572
53740,37927
52952,37927
Z" /> 
<path style="fill:#840000; fill-opacity:1.0; 
stroke:#840000; stroke-width:0; stroke-opacity:1; 
stroke-linecap:round; stroke-linejoin:round;fill-rule:evenodd;"
d="M 52952,37427
52952,37072
53740,37072
53740,37427
52952,37427
Z" /> 
<path style="fill:#840000; fill-opacity:1.0; 
stroke:#840000; stroke-width:0; stroke-opacity:1; 
stroke-linecap:round; stroke-linejoin:round;fill-rule:evenodd;"
d="M 52952,36927
52952,36572
53740,36572
53740,36927
52952,36927
Z" /> 
<path style="fill:#840000; fill-opacity:1.0; 
stroke:#840000; stroke-width:0; stroke-opacity:1; 
stroke-linecap:round; stroke-linejoin:round;fill-rule:evenodd;"
d="M 52952,36427
52952,36072
53740,36072
53740,36427
52952,36427
Z" /> 
<path style="fill:#840000; fill-opacity:1.0; 
stroke:#840000; stroke-width:0; stroke-opacity:1; 
stroke-linecap:round; stroke-linejoin:round;fill-rule:evenodd;"
d="M 52952,35927
52952,35572
53740,35572
53740,35927
52952,35927
Z" /> 
<path style="fill:#840000; fill-opacity:1.0; 
stroke:#840000; stroke-width:0; stroke-opacity:1; 
stroke-linecap:round; stroke-linejoin:round;fill-rule:evenodd;"
d="M 52952,35427
52952,35072
53740,35072
53740,35427
52952,35427
Z" /> 
</g>
<g >
</g>
<g style="fill:#840000; fill-opacity:1.0; 
stroke:#840000; stroke-width:0; stroke-opacity:1; 
stroke-linecap:round; stroke-linejoin:round;">
<path style="fill:#840000; fill-opacity:1.0; 
stroke:#840000; stroke-width:0; stroke-opacity:1; 
stroke-linecap:round; stroke-linejoin:round;fill-rule:evenodd;"
d="M 44455,37319
44465,37321
44474,37323
44483,37326
44492,37331
44500,37336
44508,37341
44515,37348
44522,37355
44527,37363
44532,37371
44536,37380
44540,37389
44542,37398
44544,37408
44544,37417
44544,37782
44544,37791
44542,37801
44540,37810
44536,37819
44532,37828
44527,37836
44522,37844
44515,37851
44508,37858
44500,37863
44492,37868
44483,37873
44474,37876
44465,37878
44455,37880
44446,37880
43953,37880
43944,37880
43934,37878
43925,37876
43916,37873
43907,37868
43899,37863
43891,37858
43884,37851
43877,37844
43872,37836
43867,37828
43863,37819
43859,37810
43857,37801
43855,37791
43855,37782
43855,37417
43855,37408
43857,37398
43859,37389
43863,37380
43867,37371
43872,37363
43877,37355
43884,37348
43891,37341
43899,37336
43907,37331
43916,37326
43925,37323
43934,37321
43944,37319
43953,37319
44446,37319
44455,37319
Z" /> 
<path style="fill:#840000; fill-opacity:1.0; 
stroke:#840000; stroke-width:0; stroke-opacity:1; 
stroke-linecap:round; stroke-linejoin:round;fill-rule:evenodd;"
d="M 44455,38491
44465,38492
44474,38494
44483,38498
44492,38502
44500,38507
44508,38513
44515,38519
44522,38526
44527,38534
44532,38542
44536,38551
44540,38560
44542,38569
44544,38579
44544,38589
44544,38953
44544,38962
44542,38972
44540,38981
44536,38991
44532,38999
44527,39008
44522,39015
44515,39022
44508,39029
44500,39035
44492,39040
44483,39044
44474,39047
44465,39049
44455,39051
44446,39051
43953,39051
43944,39051
43934,39049
43925,39047
43916,39044
43907,39040
43899,39035
43891,39029
43884,39022
43877,39015
43872,39008
43867,38999
43863,38991
43859,38981
43857,38972
43855,38962
43855,38953
43855,38589
43855,38579
43857,38569
43859,38560
43863,38551
43867,38542
43872,38534
43877,38526
43884,38519
43891,38513
43899,38507
43907,38502
43916,38498
43925,38494
43934,38492
43944,38491
43953,38490
44446,38490
44455,38491
Z" /> 
</g>
<g >
</g>
<g style="fill:#840000; fill-opacity:1.0; 
stroke:#840000; stroke-width:0; stroke-opacity:1; 
stroke-linecap:round; stroke-linejoin:round;">
<path style="fill:#840000; fill-opacity:1.0; 
stroke:#840000; stroke-width:0; stroke-opacity:1; 
stroke-linecap:round; stroke-linejoin:round;fill-rule:evenodd;"
d="M 38562,38855
38572,38857
38581,38859
38591,38863
38599,38867
38608,38872
38615,38877
38622,38884
38629,38891
38635,38899
38640,38907
38644,38916
38647,38925
38649,38934
38651,38944
38651,38953
38651,39446
38651,39455
38649,39465
38647,39474
38644,39483
38640,39492
38635,39500
38629,39508
38622,39515
38615,39522
38608,39527
38599,39532
38591,39536
38581,39540
38572,39542
38562,39544
38553,39544
38189,39544
38179,39544
38169,39542
38160,39540
38151,39536
38142,39532
38134,39527
38126,39522
38119,39515
38113,39508
38107,39500
38102,39492
38098,39483
38094,39474
38092,39465
38091,39455
38090,39446
38090,38953
38091,38944
38092,38934
38094,38925
38098,38916
38102,38907
38107,38899
38113,38891
38119,38884
38126,38877
38134,38872
38142,38867
38151,38863
38160,38859
38169,38857
38179,38855
38189,38855
38553,38855
38562,38855
Z" /> 
<path style="fill:#840000; fill-opacity:1.0; 
stroke:#840000; stroke-width:0; stroke-opacity:1; 
stroke-linecap:round; stroke-linejoin:round;fill-rule:evenodd;"
d="M 37391,38855
37401,38857
37410,38859
37419,38863
37428,38867
37436,38872
37444,38877
37451,38884
37458,38891
37463,38899
37468,38907
37473,38916
37476,38925
37478,38934
37480,38944
37480,38953
37480,39446
37480,39455
37478,39465
37476,39474
37473,39483
37468,39492
37463,39500
37458,39508
37451,39515
37444,39522
37436,39527
37428,39532
37419,39536
37410,39540
37401,39542
37391,39544
37382,39544
37017,39544
37008,39544
36998,39542
36989,39540
36980,39536
36971,39532
36963,39527
36955,39522
36948,39515
36941,39508
36936,39500
36931,39492
36926,39483
36923,39474
36921,39465
36919,39455
36919,39446
36919,38953
36919,38944
36921,38934
36923,38925
36926,38916
36931,38907
36936,38899
36941,38891
36948,38884
36955,38877
36963,38872
36971,38867
36980,38863
36989,38859
36998,38857
37008,38855
37017,38855
37382,38855
37391,38855
Z" /> 
</g>
<g >
</g>
<g style="fill:#840000; fill-opacity:1.0; 
stroke:#840000; stroke-width:0; stroke-opacity:1; 
stroke-linecap:round; stroke-linejoin:round;">
<path style="fill:#840000; fill-opacity:1.0; 
stroke:#840000; stroke-width:0; stroke-opacity:1; 
stroke-linecap:round; stroke-linejoin:round;fill-rule:evenodd;"
d="M 37391,40255
37401,40257
37410,40259
37419,40263
37428,40267
37436,40272
37444,40277
37451,40284
37458,40291
37463,40299
37468,40307
37473,40316
37476,40325
37478,40334
37480,40344
37480,40353
37480,40846
37480,40855
37478,40865
37476,40874
37473,40883
37468,40892
37463,40900
37458,40908
37451,40915
37444,40922
37436,40927
37428,40932
37419,40936
37410,40940
37401,40942
37391,40944
37382,40944
37017,40944
37008,40944
36998,40942
36989,40940
36980,40936
36971,40932
36963,40927
36955,40922
36948,40915
36941,40908
36936,40900
36931,40892
36926,40883
36923,40874
36921,40865
36919,40855
36919,40846
36919,40353
36919,40344
36921,40334
36923,40325
36926,40316
36931,40307
36936,40299
36941,40291
36948,40284
36955,40277
36963,40272
36971,40267
36980,40263
36989,40259
36998,40257
37008,40255
37017,40255
37382,40255
37391,40255
Z" /> 
<path style="fill:#840000; fill-opacity:1.0; 
stroke:#840000; stroke-width:0; stroke-opacity:1; 
stroke-linecap:round; stroke-linejoin:round;fill-rule:evenodd;"
d="M 38562,40255
38572,40257
38581,40259
38591,40263
38599,40267
38608,40272
38615,40277
38622,40284
38629,40291
38635,40299
38640,40307
38644,40316
38647,40325
38649,40334
38651,40344
38651,40353
38651,40846
38651,40855
38649,40865
38647,40874
38644,40883
38640,40892
38635,40900
38629,40908
38622,40915
38615,40922
38608,40927
38599,40932
38591,40936
38581,40940
38572,40942
38562,40944
38553,40944
38189,40944
38179,40944
38169,40942
38160,40940
38151,40936
38142,40932
38134,40927
38126,40922
38119,40915
38113,40908
38107,40900
38102,40892
38098,40883
38094,40874
38092,40865
38091,40855
38090,40846
38090,40353
38091,40344
38092,40334
38094,40325
38098,40316
38102,40307
38107,40299
38113,40291
38119,40284
38126,40277
38134,40272
38142,40267
38151,40263
38160,40259
38169,40257
38179,40255
38189,40255
38553,40255
38562,40255
Z" /> 
</g>
<g >
</g>
<g style="fill:#840000; fill-opacity:1.0; 
stroke:#840000; stroke-width:0; stroke-opacity:1; 
stroke-linecap:round; stroke-linejoin:round;">
<path style="fill:#840000; fill-opacity:1.0; 
stroke:#840000; stroke-width:0; stroke-opacity:1; 
stroke-linecap:round; stroke-linejoin:round;fill-rule:evenodd;"
d="M 41591,34855
41601,34857
41610,34859
41619,34863
41628,34867
41636,34872
41644,34877
41651,34884
41658,34891
41663,34899
41668,34907
41673,34916
41676,34925
41678,34934
41680,34944
41680,34953
41680,35446
41680,35455
41678,35465
41676,35474
41673,35483
41668,35492
41663,35500
41658,35508
41651,35515
41644,35522
41636,35527
41628,35532
41619,35536
41610,35540
41601,35542
41591,35544
41582,35544
41217,35544
41208,35544
41198,35542
41189,35540
41180,35536
41171,35532
41163,35527
41155,35522
41148,35515
41141,35508
41136,35500
41131,35492
41126,35483
41123,35474
41121,35465
41119,35455
41119,35446
41119,34953
41119,34944
41121,34934
41123,34925
41126,34916
41131,34907
41136,34899
41141,34891
41148,34884
41155,34877
41163,34872
41171,34867
41180,34863
41189,34859
41198,34857
41208,34855
41217,34855
41582,34855
41591,34855
Z" /> 
<path style="fill:#840000; fill-opacity:1.0; 
stroke:#840000; stroke-width:0; stroke-opacity:1; 
stroke-linecap:round; stroke-linejoin:round;fill-rule:evenodd;"
d="M 42762,34855
42772,34857
42781,34859
42791,34863
42799,34867
42808,34872
42815,34877
42822,34884
42829,34891
42835,34899
42840,34907
42844,34916
42847,34925
42849,34934
42851,34944
42851,34953
42851,35446
42851,35455
42849,35465
42847,35474
42844,35483
42840,35492
42835,35500
42829,35508
42822,35515
42815,35522
42808,35527
42799,35532
42791,35536
42781,35540
42772,35542
42762,35544
42753,35544
42389,35544
42379,35544
42369,35542
42360,35540
42351,35536
42342,35532
42334,35527
42326,35522
42319,35515
42313,35508
42307,35500
42302,35492
42298,35483
42294,35474
42292,35465
42291,35455
42290,35446
42290,34953
42291,34944
42292,34934
42294,34925
42298,34916
42302,34907
42307,34899
42313,34891
42319,34884
42326,34877
42334,34872
42342,34867
42351,34863
42360,34859
42369,34857
42379,34855
42389,34855
42753,34855
42762,34855
Z" /> 
</g>
<g >
</g>
<g style="fill:#848400; fill-opacity:1.0; 
stroke:#848400; stroke-width:0; stroke-opacity:1; 
stroke-linecap:round; stroke-linejoin:round;">
<path style="fill:#848400; fill-opacity:1.0; 
stroke:#848400; stroke-width:0; stroke-opacity:1; 
stroke-linecap:round; stroke-linejoin:round;fill-rule:evenodd;"
d="M 56134,38065
56134,38734
55465,38734
55465,38065
56134,38065
Z" /> 
</g>
<g style="fill:#848400; fill-opacity:1.0; 
stroke:#848400; stroke-width:669.291; stroke-opacity:1; 
stroke-linecap:round; stroke-linejoin:round;">
</g>
<g style="fill:#848400; fill-opacity:0.0; 
stroke:#848400; stroke-width:669.291; stroke-opacity:1; 
stroke-linecap:round; stroke-linejoin:round;">
<path d="M55800 37400
L55800 37400
" />
<path d="M55800 36400
L55800 36400
" />
<path d="M55800 35400
L55800 35400
" />
</g>
<g >
</g>
<g style="fill:#840000; fill-opacity:0.0; 
stroke:#840000; stroke-width:669.291; stroke-opacity:1; 
stroke-linecap:round; stroke-linejoin:round;">
</g>
<g style="fill:#840000; fill-opacity:0.0; 
stroke:#840000; stroke-width:0; stroke-opacity:1; 
stroke-linecap:round; stroke-linejoin:round;">
</g>
<g style="fill:#840000; fill-opacity:1.0; 
stroke:#840000; stroke-width:0; stroke-opacity:1; 
stroke-linecap:round; stroke-linejoin:round;">
<path style="fill:#840000; fill-opacity:1.0; 
stroke:#840000; stroke-width:0; stroke-opacity:1; 
stroke-linecap:round; stroke-linejoin:round;fill-rule:evenodd;"
d="M 40829,42383
40829,42068
41183,42068
41183,42383
40829,42383
Z" /> 
<path style="fill:#840000; fill-opacity:1.0; 
stroke:#840000; stroke-width:0; stroke-opacity:1; 
stroke-linecap:round; stroke-linejoin:round;fill-rule:evenodd;"
d="M 40829,43131
40829,42816
41183,42816
41183,43131
40829,43131
Z" /> 
<path style="fill:#840000; fill-opacity:1.0; 
stroke:#840000; stroke-width:0; stroke-opacity:1; 
stroke-linecap:round; stroke-linejoin:round;fill-rule:evenodd;"
d="M 41616,42757
41616,42442
41970,42442
41970,42757
41616,42757
Z" /> 
</g>
<g >
</g>
<g style="fill:#840000; fill-opacity:1.0; 
stroke:#840000; stroke-width:0; stroke-opacity:1; 
stroke-linecap:round; stroke-linejoin:round;">
<path style="fill:#840000; fill-opacity:1.0; 
stroke:#840000; stroke-width:0; stroke-opacity:1; 
stroke-linecap:round; stroke-linejoin:round;fill-rule:evenodd;"
d="M 40616,41257
40616,40942
40970,40942
40970,41257
40616,41257
Z" /> 
<path style="fill:#840000; fill-opacity:1.0; 
stroke:#840000; stroke-width:0; stroke-opacity:1; 
stroke-linecap:round; stroke-linejoin:round;fill-rule:evenodd;"
d="M 39829,41631
39829,41316
40183,41316
40183,41631
39829,41631
Z" /> 
<path style="fill:#840000; fill-opacity:1.0; 
stroke:#840000; stroke-width:0; stroke-opacity:1; 
stroke-linecap:round; stroke-linejoin:round;fill-rule:evenodd;"
d="M 39829,40883
39829,40568
40183,40568
40183,40883
39829,40883
Z" /> 
</g>
<g >
</g>
<g style="fill:#840000; fill-opacity:1.0; 
stroke:#840000; stroke-width:0; stroke-opacity:1; 
stroke-linecap:round; stroke-linejoin:round;">
<path style="fill:#840000; fill-opacity:1.0; 
stroke:#840000; stroke-width:0; stroke-opacity:1; 
stroke-linecap:round; stroke-linejoin:round;fill-rule:evenodd;"
d="M 39186,41967
39196,41968
39205,41970
39214,41974
39223,41978
39231,41983
39239,41988
39246,41995
39253,42002
39259,42010
39263,42018
39268,42027
39271,42036
39273,42045
39275,42055
39275,42064
39275,42320
39275,42330
39273,42340
39271,42349
39268,42358
39263,42367
39259,42375
39253,42383
39246,42390
39239,42396
39231,42402
39223,42407
39214,42411
39205,42415
39196,42417
39186,42418
39177,42419
38822,42419
38813,42418
38803,42417
38794,42415
38785,42411
38776,42407
38768,42402
38760,42396
38753,42390
38746,42383
38740,42375
38736,42367
38731,42358
38728,42349
38726,42340
38724,42330
38724,42320
38724,42064
38724,42055
38726,42045
38728,42036
38731,42027
38736,42018
38740,42010
38746,42002
38753,41995
38760,41988
38768,41983
38776,41978
38785,41974
38794,41970
38803,41968
38813,41967
38822,41966
39177,41966
39186,41967
Z" /> 
<path style="fill:#840000; fill-opacity:1.0; 
stroke:#840000; stroke-width:0; stroke-opacity:1; 
stroke-linecap:round; stroke-linejoin:round;fill-rule:evenodd;"
d="M 39186,42774
39196,42775
39205,42777
39214,42781
39223,42785
39231,42790
39239,42795
39246,42802
39253,42809
39259,42817
39263,42825
39268,42834
39271,42843
39273,42852
39275,42862
39275,42872
39275,43127
39275,43137
39273,43147
39271,43156
39268,43165
39263,43174
39259,43182
39253,43190
39246,43197
39239,43204
39231,43209
39223,43214
39214,43218
39205,43222
39196,43224
39186,43225
39177,43226
38822,43226
38813,43225
38803,43224
38794,43222
38785,43218
38776,43214
38768,43209
38760,43204
38753,43197
38746,43190
38740,43182
38736,43174
38731,43165
38728,43156
38726,43147
38724,43137
38724,43127
38724,42872
38724,42862
38726,42852
38728,42843
38731,42834
38736,42825
38740,42817
38746,42809
38753,42802
38760,42795
38768,42790
38776,42785
38785,42781
38794,42777
38803,42775
38813,42774
38822,42773
39177,42773
39186,42774
Z" /> 
</g>
<g >
</g>
<g style="fill:#840000; fill-opacity:1.0; 
stroke:#840000; stroke-width:0; stroke-opacity:1; 
stroke-linecap:round; stroke-linejoin:round;">
<path style="fill:#840000; fill-opacity:1.0; 
stroke:#840000; stroke-width:0; stroke-opacity:1; 
stroke-linecap:round; stroke-linejoin:round;fill-rule:evenodd;"
d="M 43786,34174
43796,34175
43805,34177
43814,34181
43823,34185
43831,34190
43839,34195
43846,34202
43853,34209
43859,34217
43863,34225
43868,34234
43871,34243
43873,34252
43875,34262
43875,34272
43875,34527
43875,34537
43873,34547
43871,34556
43868,34565
43863,34574
43859,34582
43853,34590
43846,34597
43839,34604
43831,34609
43823,34614
43814,34618
43805,34622
43796,34624
43786,34625
43777,34626
43422,34626
43413,34625
43403,34624
43394,34622
43385,34618
43376,34614
43368,34609
43360,34604
43353,34597
43346,34590
43340,34582
43336,34574
43331,34565
43328,34556
43326,34547
43324,34537
43324,34527
43324,34272
43324,34262
43326,34252
43328,34243
43331,34234
43336,34225
43340,34217
43346,34209
43353,34202
43360,34195
43368,34190
43376,34185
43385,34181
43394,34177
43403,34175
43413,34174
43422,34173
43777,34173
43786,34174
Z" /> 
<path style="fill:#840000; fill-opacity:1.0; 
stroke:#840000; stroke-width:0; stroke-opacity:1; 
stroke-linecap:round; stroke-linejoin:round;fill-rule:evenodd;"
d="M 43786,34981
43796,34982
43805,34984
43814,34988
43823,34992
43831,34997
43839,35003
43846,35009
43853,35016
43859,35024
43863,35032
43868,35041
43871,35050
43873,35059
43875,35069
43875,35079
43875,35335
43875,35344
43873,35354
43871,35363
43868,35372
43863,35381
43859,35389
43853,35397
43846,35404
43839,35411
43831,35416
43823,35421
43814,35425
43805,35429
43796,35431
43786,35432
43777,35433
43422,35433
43413,35432
43403,35431
43394,35429
43385,35425
43376,35421
43368,35416
43360,35411
43353,35404
43346,35397
43340,35389
43336,35381
43331,35372
43328,35363
43326,35354
43324,35344
43324,35335
43324,35079
43324,35069
43326,35059
43328,35050
43331,35041
43336,35032
43340,35024
43346,35016
43353,35009
43360,35003
43368,34997
43376,34992
43385,34988
43394,34984
43403,34982
43413,34981
43422,34980
43777,34980
43786,34981
Z" /> 
</g>
<g >
</g>
<g style="fill:#848400; fill-opacity:1.0; 
stroke:#848400; stroke-width:0; stroke-opacity:1; 
stroke-linecap:round; stroke-linejoin:round;">
<circle cx="42400" cy="37228.3" r="393.701" /> 
</g>
<g style="fill:#848400; fill-opacity:1.0; 
stroke:#848400; stroke-width:39.3701; stroke-opacity:1; 
stroke-linecap:round; stroke-linejoin:round;">
</g>
<g style="fill:#848400; fill-opacity:1.0; 
stroke:#848400; stroke-width:0; stroke-opacity:1; 
stroke-linecap:round; stroke-linejoin:round;">
<circle cx="42400" cy="39000" r="393.701" /> 
</g>
<g style="fill:#848400; fill-opacity:1.0; 
stroke:#848400; stroke-width:39.3701; stroke-opacity:1; 
stroke-linecap:round; stroke-linejoin:round;">
</g>
<g style="fill:#848400; fill-opacity:1.0; 
stroke:#848400; stroke-width:0; stroke-opacity:1; 
stroke-linecap:round; stroke-linejoin:round;">
<circle cx="39840.9" cy="37228.3" r="393.701" /> 
</g>
<g style="fill:#848400; fill-opacity:1.0; 
stroke:#848400; stroke-width:39.3701; stroke-opacity:1; 
stroke-linecap:round; stroke-linejoin:round;">
</g>
<g style="fill:#848400; fill-opacity:1.0; 
stroke:#848400; stroke-width:0; stroke-opacity:1; 
stroke-linecap:round; stroke-linejoin:round;">
<circle cx="39840.9" cy="39000" r="393.701" /> 
</g>
<g style="fill:#848400; fill-opacity:1.0; 
stroke:#848400; stroke-width:39.3701; stroke-opacity:1; 
stroke-linecap:round; stroke-linejoin:round;">
</g>
<g >
</g>
<g style="fill:#848400; fill-opacity:1.0; 
stroke:#848400; stroke-width:39.3701; stroke-opacity:1; 
stroke-linecap:round; stroke-linejoin:round;">
</g>
<g style="fill:#848400; fill-opacity:1.0; 
stroke:#848400; stroke-width:0; stroke-opacity:1; 
stroke-linecap:round; stroke-linejoin:round;">
<circle cx="57359.1" cy="42000" r="393.701" /> 
</g>
<g style="fill:#848400; fill-opacity:1.0; 
stroke:#848400; stroke-width:39.3701; stroke-opacity:1; 
stroke-linecap:round; stroke-linejoin:round;">
</g>
<g style="fill:#848400; fill-opacity:1.0; 
stroke:#848400; stroke-width:0; stroke-opacity:1; 
stroke-linecap:round; stroke-linejoin:round;">
<circle cx="57359.1" cy="43771.7" r="393.701" /> 
</g>
<g style="fill:#848400; fill-opacity:1.0; 
stroke:#848400; stroke-width:39.3701; stroke-opacity:1; 
stroke-linecap:round; stroke-linejoin:round;">
</g>
<g style="fill:#848400; fill-opacity:1.0; 
stroke:#848400; stroke-width:0; stroke-opacity:1; 
stroke-linecap:round; stroke-linejoin:round;">
<circle cx="54800" cy="42000" r="393.701" /> 
</g>
<g style="fill:#848400; fill-opacity:1.0; 
stroke:#848400; stroke-width:39.3701; stroke-opacity:1; 
stroke-linecap:round; stroke-linejoin:round;">
</g>
<g style="fill:#848400; fill-opacity:1.0; 
stroke:#848400; stroke-width:0; stroke-opacity:1; 
stroke-linecap:round; stroke-linejoin:round;">
<circle cx="54800" cy="43771.7" r="393.701" /> 
</g>
<g style="fill:#848400; fill-opacity:1.0; 
stroke:#848400; stroke-width:39.3701; stroke-opacity:1; 
stroke-linecap:round; stroke-linejoin:round;">
</g>
<g >
</g>
<g style="fill:#848400; fill-opacity:1.0; 
stroke:#848400; stroke-width:39.3701; stroke-opacity:1; 
stroke-linecap:round; stroke-linejoin:round;">
</g>
<g style="fill:#848400; fill-opacity:1.0; 
stroke:#848400; stroke-width:413.386; stroke-opacity:1; 
stroke-linecap:round; stroke-linejoin:round;">
</g>
<g style="fill:#848400; fill-opacity:0.0; 
stroke:#848400; stroke-width:413.386; stroke-opacity:1; 
stroke-linecap:round; stroke-linejoin:round;">
<path d="M43500 45288
L43500 45111
" />
<path d="M43000 45288
L43000 45111
" />
</g>
<g style="fill:#848400; fill-opacity:0.0; 
stroke:#848400; stroke-width:0; stroke-opacity:1; 
stroke-linecap:round; stroke-linejoin:round;">
</g>
<g style="fill:#848400; fill-opacity:1.0; 
stroke:#848400; stroke-width:0; stroke-opacity:1; 
stroke-linecap:round; stroke-linejoin:round;">
<path style="fill:#848400; fill-opacity:1.0; 
stroke:#848400; stroke-width:0; stroke-opacity:1; 
stroke-linecap:round; stroke-linejoin:round;fill-rule:evenodd;"
d="M 44206,44904
44206,45495
43793,45495
43793,44904
44206,44904
Z" /> 
</g>
<g >
</g>
<g style="fill:#840000; fill-opacity:1.0; 
stroke:#840000; stroke-width:0; stroke-opacity:1; 
stroke-linecap:round; stroke-linejoin:round;">
<path style="fill:#840000; fill-opacity:1.0; 
stroke:#840000; stroke-width:0; stroke-opacity:1; 
stroke-linecap:round; stroke-linejoin:round;fill-rule:evenodd;"
d="M 43130,42724
43140,42726
43149,42728
43158,42731
43167,42736
43175,42740
43183,42746
43190,42753
43196,42760
43202,42768
43207,42776
43211,42785
43215,42794
43217,42803
43218,42813
43219,42822
43219,43177
43218,43186
43217,43196
43215,43205
43211,43214
43207,43223
43202,43231
43196,43239
43190,43246
43183,43253
43175,43259
43167,43263
43158,43268
43149,43271
43140,43273
43130,43275
43120,43275
42864,43275
42855,43275
42845,43273
42836,43271
42827,43268
42818,43263
42810,43259
42802,43253
42795,43246
42788,43239
42783,43231
42778,43223
42774,43214
42770,43205
42768,43196
42767,43186
42766,43177
42766,42822
42767,42813
42768,42803
42770,42794
42774,42785
42778,42776
42783,42768
42788,42760
42795,42753
42802,42746
42810,42740
42818,42736
42827,42731
42836,42728
42845,42726
42855,42724
42864,42724
43120,42724
43130,42724
Z" /> 
<path style="fill:#840000; fill-opacity:1.0; 
stroke:#840000; stroke-width:0; stroke-opacity:1; 
stroke-linecap:round; stroke-linejoin:round;fill-rule:evenodd;"
d="M 43937,42724
43947,42726
43956,42728
43965,42731
43974,42736
43982,42740
43990,42746
43997,42753
44004,42760
44009,42768
44014,42776
44018,42785
44022,42794
44024,42803
44025,42813
44026,42822
44026,43177
44025,43186
44024,43196
44022,43205
44018,43214
44014,43223
44009,43231
44004,43239
43997,43246
43990,43253
43982,43259
43974,43263
43965,43268
43956,43271
43947,43273
43937,43275
43927,43275
43672,43275
43662,43275
43652,43273
43643,43271
43634,43268
43625,43263
43617,43259
43609,43253
43602,43246
43595,43239
43590,43231
43585,43223
43581,43214
43577,43205
43575,43196
43574,43186
43573,43177
43573,42822
43574,42813
43575,42803
43577,42794
43581,42785
43585,42776
43590,42768
43595,42760
43602,42753
43609,42746
43617,42740
43625,42736
43634,42731
43643,42728
43652,42726
43662,42724
43672,42724
43927,42724
43937,42724
Z" /> 
</g>
<g >
</g>
<g style="fill:#848400; fill-opacity:1.0; 
stroke:#848400; stroke-width:0; stroke-opacity:1; 
stroke-linecap:round; stroke-linejoin:round;">
<path style="fill:#848400; fill-opacity:1.0; 
stroke:#848400; stroke-width:0; stroke-opacity:1; 
stroke-linecap:round; stroke-linejoin:round;fill-rule:evenodd;"
d="M 37865,36865
38534,36865
38534,37534
37865,37534
37865,36865
Z" /> 
</g>
<g style="fill:#848400; fill-opacity:1.0; 
stroke:#848400; stroke-width:669.291; stroke-opacity:1; 
stroke-linecap:round; stroke-linejoin:round;">
</g>
<g style="fill:#848400; fill-opacity:0.0; 
stroke:#848400; stroke-width:669.291; stroke-opacity:1; 
stroke-linecap:round; stroke-linejoin:round;">
<path d="M37200 37200
L37200 37200
" />
</g>
<g >
</g>
<g >
</g>
<g style="fill:#840000; fill-opacity:0.0; 
stroke:#840000; stroke-width:669.291; stroke-opacity:1; 
stroke-linecap:round; stroke-linejoin:round;">
</g>
<g style="fill:#840000; fill-opacity:0.0; 
stroke:#840000; stroke-width:196.85; stroke-opacity:1; 
stroke-linecap:round; stroke-linejoin:round;">
<path d="M42771 37600
L42400 37228
" />
<path d="M44200 37600
L42771 37600
" />
<path d="M42400 37228
L42956 37228
" />
<path d="M42956 37228
L43600 36585
" />
<path d="M43592 35200
L43200 35200
" />
<path d="M43200 35200
L42571 35200
" />
<path d="M43592 36578
L43600 36585
" />
<path d="M43592 35200
L43592 36578
" />
<path d="M44377 36250
L46062 36250
" />
<path d="M46062 36250
L46653 36250
" />
<path d="M43600 35472
L44377 36250
" />
<path d="M43600 35207
L43600 35472
" />
<path d="M43971 39000
L44200 38771
" />
<path d="M42400 39000
L43971 39000
" />
<path d="M55650 35250
L55800 35400
" />
<path d="M53346 35250
L55650 35250
" />
<path d="M48787 43771
L54243 43771
" />
<path d="M47750 42734
L48787 43771
" />
<path d="M54243 43771
L54800 43771
" />
<path d="M47750 42143
L47750 42734
" />
<path d="M38371 39200
L38371 40600
" />
<path d="M47750 42360
L47750 42143
" />
<path d="M44910 45200
L47750 42360
" />
<path d="M44000 45200
L44910 45200
" />
<path d="M39245 41474
L38371 40600
" />
<path d="M40006 41474
L39245 41474
" />
<path d="M41400 35200
L41400 35583
" />
<path d="M41200 35783
L41200 39000
" />
<path d="M41400 35583
L41200 35783
" />
<path d="M38571 39000
L38371 39200
" />
<path d="M39840 39000
L38571 39000
" />
<path d="M41200 39000
L42400 39000
" />
<path d="M49950 35250
L48200 37000
" />
<path d="M49950 35250
L53346 35250
" />
<path d="M46653 35250
L49950 35250
" />
<path d="M48200 37000
L48200 41000
" />
<path d="M48200 41000
L47750 41450
" />
<path d="M47750 41450
L47750 42143
" />
<path d="M38200 37200
L38200 37800
" />
<path d="M38371 37971
L38371 39200
" />
<path d="M38200 37800
L38371 37971
" />
<path d="M40980 43000
L41006 42974
" />
<path d="M39000 43000
L40980 43000
" />
<path d="M38000 43000
L39000 43000
" />
<path d="M37200 40600
L37200 42200
" />
<path d="M37200 42200
L38000 43000
" />
<path d="M37200 40600
L37200 39200
" />
<path d="M44950 35750
L46653 35750
" />
<path d="M43600 34400
L44950 35750
" />
<path d="M43354 34154
L40645 34154
" />
<path d="M43600 34400
L43354 34154
" />
<path d="M40645 34154
L40600 34200
" />
<path d="M40600 34200
L40600 39400
" />
<path d="M40950 39750
L46653 39750
" />
<path d="M40600 39400
L40950 39750
" />
<path d="M39000 43000
L39000 45000
" />
<path d="M39000 45000
L40800 46800
" />
<path d="M40800 46800
L54400 46800
" />
<path d="M55800 45400
L55800 38400
" />
<path d="M54400 46800
L55800 45400
" />
<path d="M37200 37200
L37200 39200
" />
<path d="M53346 36750
L54050 36750
" />
<path d="M54400 36400
L55800 36400
" />
<path d="M54050 36750
L54400 36400
" />
<path d="M55650 37250
L55800 37400
" />
<path d="M53346 37250
L55650 37250
" />
<path d="M41006 41312
L40793 41100
" />
<path d="M41006 42225
L41006 41312
" />
<path d="M40973 42192
L41006 42225
" />
<path d="M39000 42192
L40973 42192
" />
<path d="M43000 43007
L42992 43000
" />
<path d="M43000 45200
L43000 43007
" />
<path d="M42592 42600
L42992 43000
" />
<path d="M41793 42600
L42592 42600
" />
<path d="M40006 40725
L40380 40725
" />
<path d="M40856 40250
L46653 40250
" />
<path d="M40380 40725
L40856 40250
" />
<path d="M54550 41750
L54800 42000
" />
<path d="M53346 41750
L54550 41750
" />
<path d="M43500 45200
L43500 44500
" />
<path d="M43800 44200
L43800 43000
" />
<path d="M43500 44500
L43800 44200
" />
<path d="M43800 43000
L43800 42000
" />
<path d="M45050 40750
L46653 40750
" />
<path d="M43800 42000
L45050 40750
" />
</g>
<g >
</g>
<g style="fill:#840000; fill-opacity:0.0; 
stroke:#840000; stroke-width:196.85; stroke-opacity:1; 
stroke-linecap:round; stroke-linejoin:round;">
</g>
<g style="fill:#840000; fill-opacity:1.0; 
stroke:#840000; stroke-width:100; stroke-opacity:1; 
stroke-linecap:round; stroke-linejoin:round;">
<path style="fill:#840000; fill-opacity:1.0; 
stroke:#840000; stroke-width:100; stroke-opacity:1; 
stroke-linecap:round; stroke-linejoin:round;fill-rule:evenodd;"
d="M 58450,47450
35050,47450
35050,37200
36417,37200
36432,37352
36477,37499
36549,37634
36646,37753
36657,37761
36657,38548
36633,38569
36565,38651
36515,38745
36484,38847
36473,38953
36473,39446
36484,39552
36515,39654
36565,39748
36633,39830
36657,39851
36657,39948
36633,39969
36565,40051
36515,40145
36484,40247
36473,40353
36473,40846
36484,40952
36515,41054
36565,41148
36633,41230
36657,41251
36657,42173
36655,42200
36665,42306
36696,42408
36725,42462
36747,42502
36814,42585
36835,42602
37597,43364
37614,43385
37697,43452
37788,43501
37791,43503
37893,43534
38000,43544
38026,43542
38457,43542
38457,44973
38455,45000
38465,45106
38496,45208
38518,45250
38547,45302
38614,45385
38635,45402
40397,47164
40414,47185
40497,47252
40591,47303
40693,47334
40773,47342
40773,47342
40799,47344
40826,47342
54373,47342
54400,47344
54506,47334
54506,47334
54608,47303
54702,47252
54785,47185
54802,47164
56164,45802
56185,45785
56216,45746
56252,45702
56252,45702
56303,45608
56334,45506
56342,45426
56342,45426
56344,45400
56342,45373
56342,44218
56982,44218
57020,44322
57134,44378
57257,44410
57383,44417
57509,44400
57629,44359
57697,44322
57735,44218
57359,43842
56982,44218
56342,44218
56342,43796
56712,43796
56729,43921
56771,44041
56807,44110
56912,44147
57288,43771
57429,43771
57806,44147
57910,44110
57965,43996
57997,43873
58005,43747
57988,43621
57946,43501
57910,43433
57806,43395
57429,43771
57288,43771
56912,43395
56807,43433
56752,43547
56720,43669
56712,43796
56342,43796
56342,43324
56982,43324
57359,43700
57735,43324
57697,43220
57583,43165
57460,43132
57334,43125
57208,43142
57088,43183
57020,43220
56982,43324
56342,43324
56342,41917
56521,41917
56521,42082
56553,42244
56616,42396
56708,42533
56825,42650
56962,42742
57114,42805
57276,42837
57441,42837
57603,42805
57755,42742
57892,42650
58009,42533
58101,42396
58164,42244
58196,42082
58196,41917
58164,41755
58101,41603
58009,41466
57892,41349
57755,41257
57603,41194
57441,41162
57276,41162
57114,41194
56962,41257
56825,41349
56708,41466
56616,41603
56553,41755
56521,41917
56342,41917
56342,39126
56382,39105
56449,39049
56505,38982
56546,38905
56571,38821
56580,38734
56580,38065
56571,37978
56546,37894
56505,37817
56477,37783
56522,37699
56567,37552
56582,37400
56567,37247
56522,37100
56450,36965
56396,36900
56450,36834
56522,36699
56567,36552
56582,36400
56567,36247
56522,36100
56450,35965
56353,35846
56253,35765
56300,35701
56349,35598
56367,35540
56319,35450
55850,35450
55850,35457
55750,35457
55750,35450
55280,35450
55232,35540
55250,35598
55299,35701
55346,35765
55246,35846
55238,35857
54426,35857
54400,35855
54293,35865
54191,35896
54186,35899
54186,35572
54177,35485
54152,35402
54110,35325
54056,35259
55232,35259
55280,35350
55750,35350
55750,34879
55850,34879
55850,35350
56319,35350
56367,35259
56349,35201
56300,35098
56232,35006
56146,34929
56048,34870
55940,34832
55850,34879
55750,34879
55659,34832
55551,34870
55453,34929
55367,35006
55299,35098
55250,35201
55232,35259
54056,35259
54055,35257
53990,35204
53990,35199
53983,35199
53947,35180
53990,35137
53991,35072
53986,35023
53972,34976
53949,34933
53917,34895
53879,34863
53836,34840
53789,34826
53740,34821
53458,34822
53396,34885
53396,35126
53296,35126
53296,34885
53233,34822
52952,34821
52903,34826
52856,34840
52813,34863
52775,34895
52743,34933
52720,34976
52706,35023
52701,35072
52702,35137
52745,35180
52709,35199
52702,35199
52702,35204
52637,35257
52582,35325
52540,35402
52515,35485
52506,35572
52506,35927
52514,36000
52506,36072
52506,36427
52514,36500
52506,36572
52506,36927
52514,37000
52506,37072
52506,37427
52514,37500
52506,37572
52506,37927
52514,38000
52506,38072
52506,38427
52514,38500
52506,38572
52506,38927
52514,39000
52506,39072
52506,39427
52514,39500
52506,39572
52506,39927
52514,40000
52506,40072
52506,40427
52514,40500
52506,40572
52506,40927
52514,41000
52506,41072
52506,41312
52427,41304
52072,41304
52000,41311
51927,41304
51572,41304
51500,41311
51427,41304
51072,41304
51000,41311
50927,41304
50572,41304
50500,41311
50427,41304
50072,41304
50000,41311
49927,41304
49572,41304
49500,41311
49427,41304
49072,41304
49000,41311
48927,41304
48572,41304
48500,41311
48427,41304
48072,41304
47985,41312
47902,41338
47825,41379
47757,41434
47704,41500
47699,41500
47699,41506
47680,41542
47637,41500
47572,41498
47523,41503
47487,41514
47485,41500
47493,41427
47493,41072
47485,41000
47493,40927
47493,40572
47485,40500
47493,40427
47493,40072
47485,40000
47493,39927
47493,39572
47485,39500
47493,39427
47493,39072
47485,39000
47493,38927
47493,38572
47485,38500
47493,38427
47493,38072
47485,38000
47493,37927
47493,37572
47485,37500
47493,37427
47493,37218
48176,37218
48176,39187
48184,39273
48210,39357
48251,39434
48306,39502
48374,39557
48451,39598
48535,39624
48622,39632
50590,39632
50677,39624
50761,39598
50838,39557
50905,39502
50961,39434
51002,39357
51027,39273
51036,39187
51036,37218
51027,37131
51002,37047
50961,36970
50905,36903
50838,36847
50761,36806
50677,36781
50590,36772
48622,36772
48535,36781
48451,36806
48374,36847
48306,36903
48251,36970
48210,37047
48184,37131
48176,37218
47493,37218
47493,37072
47485,37000
47493,36927
47493,36572
47485,36500
47493,36427
47493,36072
47485,36000
47493,35927
47493,35572
47484,35485
47459,35402
47417,35325
47362,35257
47297,35204
47297,35199
47290,35199
47254,35180
47297,35137
47298,35072
47293,35023
47279,34976
47256,34933
47224,34895
47186,34863
47143,34840
47096,34826
47047,34821
46766,34822
46703,34885
46703,35126
46603,35126
46603,34885
46541,34822
46259,34821
46210,34826
46163,34840
46120,34863
46082,34895
46050,34933
46027,34976
46013,35023
46008,35072
46009,35137
46052,35180
46016,35199
46009,35199
46009,35204
46005,35207
45174,35207
44321,34354
44321,34272
44310,34165
44280,34063
44229,33969
44162,33887
44079,33819
43985,33769
43883,33738
43777,33727
43689,33727
43657,33701
43563,33651
43460,33620
43381,33612
43354,33609
43327,33612
40672,33612
40645,33609
40618,33612
40539,33620
40436,33651
40342,33701
40260,33769
40243,33790
40235,33797
40214,33814
40147,33897
40120,33946
40096,33991
40065,34093
40055,34200
40057,34226
40057,36417
39923,36390
39758,36390
39596,36423
39444,36486
39307,36577
39190,36694
39098,36831
39035,36984
39003,37145
39003,37310
39035,37472
39098,37625
39190,37762
39307,37878
39444,37970
39596,38033
39758,38065
39923,38065
40057,38039
40057,38391
39942,38361
39816,38353
39690,38370
39570,38412
39502,38448
39464,38552
39840,38929
39846,38923
39917,38994
39911,39000
39917,39005
39846,39076
39840,39070
39464,39447
39502,39551
39616,39606
39739,39638
39865,39646
39991,39629
40092,39594
40096,39608
40146,39702
40147,39702
40214,39785
40235,39802
40386,39953
40213,40125
40183,40122
39829,40122
39742,40131
39658,40156
39581,40197
39513,40253
39458,40320
39417,40397
39391,40481
39383,40568
39383,40883
39391,40970
39417,41054
39458,41131
39513,41198
39581,41254
39586,41256
39582,41267
39577,41316
39579,41361
39641,41424
39956,41424
39956,41416
40056,41416
40056,41424
40064,41424
40064,41524
40056,41524
40056,41531
39956,41531
39956,41524
39641,41524
39579,41586
39577,41631
39579,41650
39526,41650
39479,41612
39385,41562
39283,41531
39177,41520
38822,41520
38716,41531
38614,41562
38520,41612
38437,41680
38370,41762
38319,41856
38289,41958
38278,42064
38278,42320
38289,42427
38298,42457
38224,42457
37742,41975
37742,41251
37766,41230
37834,41148
37875,41072
37881,41084
37913,41122
37951,41153
37994,41176
38041,41190
38090,41195
38258,41194
38321,41131
38321,40650
38421,40650
38421,41131
38483,41194
38651,41195
38700,41190
38747,41176
38791,41153
38829,41122
38860,41084
38883,41040
38898,40993
38902,40944
38901,40712
38839,40650
38421,40650
38321,40650
38313,40650
38313,40550
38321,40550
38321,40068
38421,40068
38421,40550
38839,40550
38901,40487
38902,40255
38898,40206
38883,40159
38860,40115
38829,40077
38791,40046
38747,40023
38700,40009
38651,40004
38483,40005
38421,40068
38321,40068
38258,40005
38090,40004
38041,40009
37994,40023
37951,40046
37913,40077
37881,40115
37875,40127
37834,40051
37766,39969
37742,39948
37742,39851
37766,39830
37834,39748
37875,39672
37881,39684
37913,39722
37951,39753
37994,39776
38041,39790
38090,39795
38258,39794
38321,39731
38321,39250
38421,39250
38421,39731
38483,39794
38651,39795
38700,39790
38747,39776
38791,39753
38829,39722
38860,39684
38883,39640
38898,39593
38902,39544
38901,39312
38839,39250
38421,39250
38321,39250
38313,39250
38313,39150
38321,39150
38321,38668
38421,38668
38421,39150
38839,39150
38901,39087
38902,39024
39194,39024
39211,39150
39253,39270
39289,39338
39393,39376
39770,39000
39393,38623
39289,38661
39234,38775
39202,38898
39194,39024
38902,39024
38902,38855
38898,38806
38883,38759
38860,38715
38829,38677
38791,38646
38747,38623
38700,38609
38651,38604
38483,38605
38421,38668
38321,38668
38258,38605
38090,38604
38041,38609
37994,38623
37951,38646
37913,38677
37881,38715
37875,38727
37834,38651
37766,38569
37742,38548
37742,37761
37749,37756
37769,37766
37816,37781
37865,37785
38087,37784
38150,37722
38150,37250
38250,37250
38250,37722
38312,37784
38534,37785
38583,37781
38630,37766
38674,37743
38712,37712
38743,37674
38766,37630
38781,37583
38785,37534
38784,37312
38722,37250
38250,37250
38150,37250
38142,37250
38142,37150
38150,37150
38150,36677
38250,36677
38250,37150
38722,37150
38784,37087
38785,36865
38781,36816
38766,36769
38743,36725
38712,36687
38674,36656
38630,36633
38583,36618
38534,36614
38312,36615
38250,36677
38150,36677
38087,36615
37865,36614
37816,36618
37769,36633
37749,36643
37634,36549
37499,36477
37352,36432
37238,36421
37161,36421
37047,36432
36900,36477
36765,36549
36646,36646
36549,36765
36477,36900
36432,37047
36417,37200
35050,37200
35050,33550
58450,33550
58450,47450
Z" /> 
<path style="fill:#840000; fill-opacity:1.0; 
stroke:#840000; stroke-width:100; stroke-opacity:1; 
stroke-linecap:round; stroke-linejoin:round;fill-rule:evenodd;"
d="M 45813,41427
45821,41500
45813,41572
45813,41927
45822,42014
45847,42097
45889,42174
45944,42242
46012,42297
46089,42339
46172,42364
46259,42373
47047,42373
47134,42364
47217,42339
47294,42297
47322,42275
47321,42537
47326,42586
47340,42633
47363,42676
47395,42715
47433,42746
47476,42769
47523,42783
47572,42788
47637,42787
47680,42744
47699,42781
47699,42787
47704,42787
47757,42852
47825,42908
47902,42949
47985,42974
48072,42983
48427,42983
48500,42976
48572,42983
48927,42983
49000,42976
49072,42983
49427,42983
49500,42976
49572,42983
49927,42983
50000,42976
50072,42983
50427,42983
50500,42976
50572,42983
50927,42983
51000,42976
51072,42983
51427,42983
51500,42976
51572,42983
51927,42983
52000,42976
52072,42983
52427,42983
52514,42974
52597,42949
52674,42908
52742,42852
52797,42785
52839,42708
52864,42624
52873,42537
52873,42365
52952,42373
53740,42373
53827,42364
53910,42339
53987,42297
53994,42292
54014,42292
54057,42396
54149,42533
54266,42650
54403,42742
54555,42805
54717,42837
54882,42837
55044,42805
55196,42742
55257,42701
55257,43399
55247,43395
54870,43771
55247,44147
55257,44144
55257,45175
54175,46257
41024,46257
39542,44775
39542,43542
40656,43542
40658,43543
40742,43568
40829,43577
41183,43577
41270,43568
41354,43543
41431,43502
41498,43446
41554,43379
41595,43302
41620,43218
41622,43203
41970,43203
42057,43194
42141,43169
42192,43142
42320,43142
42320,43177
42331,43283
42362,43385
42412,43479
42457,43534
42457,44746
42456,44748
42396,44861
42359,44983
42349,45079
42349,45320
42359,45416
42396,45538
42456,45651
42537,45750
42636,45831
42749,45892
42872,45929
43000,45942
43127,45929
43250,45892
43372,45929
43500,45942
43627,45929
43750,45892
43863,45831
43962,45750
44043,45651
44050,45639
44050,45682
44112,45745
44206,45746
44255,45741
44302,45727
44346,45704
44384,45672
44415,45634
44438,45591
44453,45544
44457,45495
44456,45312
44394,45250
44150,45250
44150,45150
44394,45150
44456,45087
44457,44904
44453,44855
44438,44808
44415,44765
44384,44727
44346,44695
44302,44672
44255,44658
44206,44653
44112,44654
44050,44717
44050,44716
44164,44602
44185,44585
44252,44502
44303,44408
44318,44357
44334,44306
44342,44218
54423,44218
54461,44322
54575,44378
54698,44410
54824,44417
54950,44400
55070,44359
55138,44322
55176,44218
54800,43842
54423,44218
44342,44218
44344,44200
44342,44173
44342,43796
54153,43796
54170,43921
54212,44041
54248,44110
54352,44147
54729,43771
54352,43395
54248,43433
54193,43547
54161,43669
54153,43796
44342,43796
44342,43526
44380,43479
44430,43385
44449,43324
54423,43324
54800,43700
55176,43324
55138,43220
55024,43165
54901,43132
54775,43125
54649,43142
54529,43183
54461,43220
54423,43324
44449,43324
44461,43283
44472,43177
44472,42822
44461,42716
44430,42614
44380,42520
44342,42473
44342,42224
45274,41292
45813,41292
45813,41427
Z" /> 
<path style="fill:#840000; fill-opacity:1.0; 
stroke:#840000; stroke-width:100; stroke-opacity:1; 
stroke-linecap:round; stroke-linejoin:round;fill-rule:evenodd;"
d="M 41450,35150
41457,35150
41457,35250
41450,35250
41450,35731
41512,35794
41680,35795
41729,35790
41776,35776
41820,35753
41858,35722
41889,35684
41895,35672
41936,35748
42004,35830
42086,35898
42180,35948
42282,35979
42389,35990
42753,35990
42859,35979
42961,35948
43050,35901
43050,36367
42877,36540
42796,36486
42644,36423
42482,36390
42317,36390
42155,36423
42003,36486
41866,36577
41749,36694
41657,36831
41594,36984
41562,37145
41562,37310
41594,37472
41657,37625
41749,37762
41866,37878
42003,37970
42155,38033
42317,38065
42482,38065
42490,38064
42563,38103
42614,38118
42665,38134
42771,38144
42798,38142
43548,38142
43569,38166
43651,38234
43727,38275
43715,38281
43677,38313
43646,38351
43623,38394
43609,38441
43604,38490
43605,38658
43668,38721
44150,38721
44150,38713
44250,38713
44250,38721
44731,38721
44794,38658
44795,38490
44790,38441
44776,38394
44753,38351
44722,38313
44684,38281
44672,38275
44748,38234
44830,38166
44898,38084
44948,37990
44979,37888
44990,37782
44990,37417
44979,37311
44948,37209
44898,37115
44830,37033
44748,36965
44654,36915
44552,36884
44446,36873
44060,36873
44103,36793
44122,36728
44168,36753
44208,36765
44270,36784
44377,36794
44403,36792
45813,36792
45813,36927
45821,37000
45813,37072
45813,37427
45821,37500
45813,37572
45813,37927
45821,38000
45813,38072
45813,38427
45821,38500
45813,38572
45813,38927
45821,39000
45813,39072
45813,39207
44739,39207
44753,39191
44776,39147
44790,39100
44795,39051
44794,38883
44731,38821
44250,38821
44250,38829
44150,38829
44150,38821
43668,38821
43605,38883
43604,39051
43609,39100
43623,39147
43646,39191
43660,39207
43010,39207
43038,39101
43046,38975
43029,38849
42987,38729
42951,38661
42847,38623
42470,39000
42476,39005
42405,39076
42400,39070
42394,39076
42323,39005
42329,39000
41952,38623
41848,38661
41793,38775
41761,38898
41753,39024
41770,39150
41790,39207
41174,39207
41142,39175
41142,38552
42023,38552
42400,38929
42776,38552
42738,38448
42624,38393
42501,38361
42375,38353
42249,38370
42129,38412
42061,38448
42023,38552
41142,38552
41142,35795
41287,35794
41350,35731
41350,35250
41342,35250
41342,35150
41350,35150
41350,35142
41450,35142
41450,35150
Z" /> 
</g>
</g>
<g style="fill:#FFFFFF; fill-opacity:1.0; 
stroke:#FFFFFF; stroke-width:100; stroke-opacity:1; 
stroke-linecap:round; stroke-linejoin:round;">
</g>
<g style="fill:#FFFFFF; fill-opacity:1.0; 
stroke:#FFFFFF; stroke-width:0; stroke-opacity:1; 
stroke-linecap:round; stroke-linejoin:round;">
<circle cx="55800" cy="38400" r="196.85" /> 
</g>
<g style="fill:#FFFFFF; fill-opacity:1.0; 
stroke:#FFFFFF; stroke-width:39.3701; stroke-opacity:1; 
stroke-linecap:round; stroke-linejoin:round;">
</g>
<g style="fill:#FFFFFF; fill-opacity:1.0; 
stroke:#FFFFFF; stroke-width:0; stroke-opacity:1; 
stroke-linecap:round; stroke-linejoin:round;">
<circle cx="55800" cy="37400" r="196.85" /> 
</g>
<g style="fill:#FFFFFF; fill-opacity:1.0; 
stroke:#FFFFFF; stroke-width:39.3701; stroke-opacity:1; 
stroke-linecap:round; stroke-linejoin:round;">
</g>
<g style="fill:#FFFFFF; fill-opacity:1.0; 
stroke:#FFFFFF; stroke-width:0; stroke-opacity:1; 
stroke-linecap:round; stroke-linejoin:round;">
<circle cx="55800" cy="36400" r="196.85" /> 
</g>
<g style="fill:#FFFFFF; fill-opacity:1.0; 
stroke:#FFFFFF; stroke-width:39.3701; stroke-opacity:1; 
stroke-linecap:round; stroke-linejoin:round;">
</g>
<g style="fill:#FFFFFF; fill-opacity:1.0; 
stroke:#FFFFFF; stroke-width:0; stroke-opacity:1; 
stroke-linecap:round; stroke-linejoin:round;">
<circle cx="55800" cy="35400" r="196.85" /> 
</g>
<g style="fill:#FFFFFF; fill-opacity:1.0; 
stroke:#FFFFFF; stroke-width:39.3701; stroke-opacity:1; 
stroke-linecap:round; stroke-linejoin:round;">
</g>
<g style="fill:#FFFFFF; fill-opacity:1.0; 
stroke:#FFFFFF; stroke-width:0; stroke-opacity:1; 
stroke-linecap:round; stroke-linejoin:round;">
<circle cx="42400" cy="37228.3" r="216.535" /> 
</g>
<g style="fill:#FFFFFF; fill-opacity:1.0; 
stroke:#FFFFFF; stroke-width:39.3701; stroke-opacity:1; 
stroke-linecap:round; stroke-linejoin:round;">
</g>
<g style="fill:#FFFFFF; fill-opacity:1.0; 
stroke:#FFFFFF; stroke-width:0; stroke-opacity:1; 
stroke-linecap:round; stroke-linejoin:round;">
<circle cx="42400" cy="39000" r="216.535" /> 
</g>
<g style="fill:#FFFFFF; fill-opacity:1.0; 
stroke:#FFFFFF; stroke-width:39.3701; stroke-opacity:1; 
stroke-linecap:round; stroke-linejoin:round;">
</g>
<g style="fill:#FFFFFF; fill-opacity:1.0; 
stroke:#FFFFFF; stroke-width:0; stroke-opacity:1; 
stroke-linecap:round; stroke-linejoin:round;">
<circle cx="39840.9" cy="37228.3" r="216.535" /> 
</g>
<g style="fill:#FFFFFF; fill-opacity:1.0; 
stroke:#FFFFFF; stroke-width:39.3701; stroke-opacity:1; 
stroke-linecap:round; stroke-linejoin:round;">
</g>
<g style="fill:#FFFFFF; fill-opacity:1.0; 
stroke:#FFFFFF; stroke-width:0; stroke-opacity:1; 
stroke-linecap:round; stroke-linejoin:round;">
<circle cx="39840.9" cy="39000" r="216.535" /> 
</g>
<g style="fill:#FFFFFF; fill-opacity:1.0; 
stroke:#FFFFFF; stroke-width:39.3701; stroke-opacity:1; 
stroke-linecap:round; stroke-linejoin:round;">
</g>
<g style="fill:#FFFFFF; fill-opacity:1.0; 
stroke:#FFFFFF; stroke-width:0; stroke-opacity:1; 
stroke-linecap:round; stroke-linejoin:round;">
<circle cx="57359.1" cy="42000" r="216.535" /> 
</g>
<g style="fill:#FFFFFF; fill-opacity:1.0; 
stroke:#FFFFFF; stroke-width:39.3701; stroke-opacity:1; 
stroke-linecap:round; stroke-linejoin:round;">
</g>
<g style="fill:#FFFFFF; fill-opacity:1.0; 
stroke:#FFFFFF; stroke-width:0; stroke-opacity:1; 
stroke-linecap:round; stroke-linejoin:round;">
<circle cx="57359.1" cy="43771.7" r="216.535" /> 
</g>
<g style="fill:#FFFFFF; fill-opacity:1.0; 
stroke:#FFFFFF; stroke-width:39.3701; stroke-opacity:1; 
stroke-linecap:round; stroke-linejoin:round;">
</g>
<g style="fill:#FFFFFF; fill-opacity:1.0; 
stroke:#FFFFFF; stroke-width:0; stroke-opacity:1; 
stroke-linecap:round; stroke-linejoin:round;">
<circle cx="54800" cy="42000" r="216.535" /> 
</g>
<g style="fill:#FFFFFF; fill-opacity:1.0; 
stroke:#FFFFFF; stroke-width:39.3701; stroke-opacity:1; 
stroke-linecap:round; stroke-linejoin:round;">
</g>
<g style="fill:#FFFFFF; fill-opacity:1.0; 
stroke:#FFFFFF; stroke-width:0; stroke-opacity:1; 
stroke-linecap:round; stroke-linejoin:round;">
<circle cx="54800" cy="43771.7" r="216.535" /> 
</g>
<g style="fill:#FFFFFF; fill-opacity:1.0; 
stroke:#FFFFFF; stroke-width:39.3701; stroke-opacity:1; 
stroke-linecap:round; stroke-linejoin:round;">
</g>
<g style="fill:#FFFFFF; fill-opacity:1.0; 
stroke:#FFFFFF; stroke-width:0; stroke-opacity:1; 
stroke-linecap:round; stroke-linejoin:round;">
<circle cx="43500" cy="45200" r="147.638" /> 
</g>
<g style="fill:#FFFFFF; fill-opacity:1.0; 
stroke:#FFFFFF; stroke-width:39.3701; stroke-opacity:1; 
stroke-linecap:round; stroke-linejoin:round;">
</g>
<g style="fill:#FFFFFF; fill-opacity:1.0; 
stroke:#FFFFFF; stroke-width:0; stroke-opacity:1; 
stroke-linecap:round; stroke-linejoin:round;">
<circle cx="43000" cy="45200" r="147.638" /> 
</g>
<g style="fill:#FFFFFF; fill-opacity:1.0; 
stroke:#FFFFFF; stroke-width:39.3701; stroke-opacity:1; 
stroke-linecap:round; stroke-linejoin:round;">
</g>
<g style="fill:#FFFFFF; fill-opacity:1.0; 
stroke:#FFFFFF; stroke-width:0; stroke-opacity:1; 
stroke-linecap:round; stroke-linejoin:round;">
<circle cx="44000" cy="45200" r="147.638" /> 
</g>
<g style="fill:#FFFFFF; fill-opacity:1.0; 
stroke:#FFFFFF; stroke-width:39.3701; stroke-opacity:1; 
stroke-linecap:round; stroke-linejoin:round;">
</g>
<g style="fill:#FFFFFF; fill-opacity:1.0; 
stroke:#FFFFFF; stroke-width:0; stroke-opacity:1; 
stroke-linecap:round; stroke-linejoin:round;">
<circle cx="38200" cy="37200" r="196.85" /> 
</g>
<g style="fill:#FFFFFF; fill-opacity:1.0; 
stroke:#FFFFFF; stroke-width:39.3701; stroke-opacity:1; 
stroke-linecap:round; stroke-linejoin:round;">
</g>
<g style="fill:#FFFFFF; fill-opacity:1.0; 
stroke:#FFFFFF; stroke-width:0; stroke-opacity:1; 
stroke-linecap:round; stroke-linejoin:round;">
<circle cx="37200" cy="37200" r="196.85" /> 
</g>
<g style="fill:#FFFFFF; fill-opacity:1.0; 
stroke:#FFFFFF; stroke-width:39.3701; stroke-opacity:1; 
stroke-linecap:round; stroke-linejoin:round;">
</g>
<g style="fill:#000000; fill-opacity:1.0; 
stroke:#000000; stroke-width:39.3701; stroke-opacity:1; 
stroke-linecap:round; stroke-linejoin:round;">
<g >
</g>
<g >
</g>
<g >
</g>
<g >
</g>
<g >
</g>
<g >
</g>
<g >
</g>
<g >
</g>
<g >
</g>
<g >
</g>
<g >
</g>
<g >
</g>
<g >
</g>
<g >
</g>
<g >
</g>
<g >
</g>
</g> 
</svg>
